<?xml version="1.0" encoding="utf-8"?>
<!-- Generator: Adobe Illustrator 16.0.0, SVG Export Plug-In . SVG Version: 6.00 Build 0)  -->
<!DOCTYPE svg PUBLIC "-//W3C//DTD SVG 1.1//EN" "http://www.w3.org/Graphics/SVG/1.1/DTD/svg11.dtd">
<svg version="1.1" id="Layer_1" xmlns="http://www.w3.org/2000/svg" xmlns:xlink="http://www.w3.org/1999/xlink" x="0px" y="0px"
	 width="24.01px" height="24.009px" viewBox="0 0 24.01 24.009" enable-background="new 0 0 24.01 24.009" xml:space="preserve">
<g>
	<polyline fill="#BEBDBC" points="20.427,13.013 22.613,12.211 21.904,11.776 21.424,11.537 20.725,12.052 20.347,12.831 
		20.427,13.013 	"/>
</g>
<g>
	<polyline fill="#9E9D9B" points="18.742,13.208 20.291,13.128 20.508,12.373 21.424,11.537 20.599,11.159 19.488,11.833 
		18.742,13.208 	"/>
</g>
<g>
	<polyline fill="#9E9D9B" points="20.964,12.98 22.718,12.188 23.347,12.188 23.302,12.738 21.904,14.171 21.147,13.518 
		20.964,12.98 	"/>
</g>
<g>
	<polyline fill="#BEBDBC" points="21.765,14.181 20.852,13.036 19.465,13.243 19.763,13.964 20.68,14.651 21.765,14.181 	"/>
</g>
<g>
	<polyline fill="#9E9D9B" points="17.644,12.9 18.376,13.85 20.157,14.672 20.324,14.515 19.705,13.85 19.5,13.173 17.644,12.9 	"/>
</g>
<g>
	<polyline fill="#BEBDBC" points="17.336,12.59 18.742,13.208 19.247,12.202 20.529,11.193 19.831,11.078 18.686,11.433 
		17.336,12.59 	"/>
</g>
<g>
	<path d="M6.971,4.718L6.806,4.756c-0.15,0.036-0.29,0.052-0.443,0.052H6.119l0.078,0.23C6.33,5.433,6.393,5.835,6.393,6.307
		c0,1.651-0.782,2.564-1.321,2.564c-0.158,0-0.45,0-0.45-1.044c0-0.251,0.023-0.544,0.071-0.873c0.117-0.405,0.213-0.9,0.3-1.552
		l0.029-0.231L4.792,5.206c-0.206,0.03-0.393,0.047-0.569,0.054l-0.15,0.005L4.055,5.416C4.015,5.789,3.99,6.141,3.968,6.454
		C3.954,6.616,3.944,6.77,3.932,6.917C3.636,8.195,3.247,8.872,2.808,8.872c-0.337,0-0.537-0.36-0.537-0.963
		c0-0.762,0.336-1.788,0.944-2.891l0.143-0.261H2.17c-1.251,0-2.062,0.67-2.062,1.702c0,0.522,0.236,0.95,0.721,1.312l0.104,0.077
		L1.533,7.41L1.329,7.27C0.988,7.036,0.825,6.755,0.825,6.412c0-0.651,0.451-0.981,1.345-0.981c0.008,0,0.017,0,0.026,0
		C1.764,6.364,1.537,7.206,1.537,7.878c0,1.459,0.776,1.676,1.238,1.676c0.374,0,0.858-0.171,1.247-0.89
		c0.18,0.767,0.711,0.898,1.055,0.898c1.033,0,2.104-1.29,2.104-3.448c0-0.394-0.055-0.809-0.167-1.231L6.971,4.718z"/>
	<path d="M9.083,5.909c-0.569,0-0.984,0.351-0.991,0.837L8.011,6.697L7.905,6.811c-0.312,0.347-0.5,0.861-0.5,1.376
		c0,0.833,0.527,1.394,1.314,1.394c0.971,0,1.702-0.894,1.702-2.08C10.422,6.548,9.885,5.909,9.083,5.909z M8.762,8.877
		c-0.487,0-0.591-0.409-0.591-0.753c0-0.263,0.07-0.503,0.215-0.731c0.104,0.1,0.236,0.191,0.395,0.274l0.113,0.058l0.562-0.479
		L9.186,7.125c-0.188-0.086-0.415-0.22-0.415-0.379c0-0.117,0.134-0.158,0.259-0.158c0.394,0,0.627,0.336,0.627,0.9
		C9.656,8.318,9.298,8.877,8.762,8.877z"/>
	<path d="M11.136,9.537c0.173,0,0.342-0.04,0.514-0.124l0.092-0.043l0.091-0.669l-0.311,0.144c-0.042,0.021-0.07,0.025-0.102,0.025
		c-0.003-0.015-0.008-0.043-0.008-0.089c0-0.118,0.116-1.51,0.627-4.151l0.059-0.305L11.8,4.414
		c-0.18,0.053-0.359,0.096-0.531,0.124l-0.147,0.024L11.11,4.71c-0.107,1.556-0.296,2.669-0.421,3.404
		c-0.066,0.396-0.11,0.659-0.11,0.812C10.579,9.31,10.788,9.537,11.136,9.537z"/>
	<path d="M15.026,6.02h-0.819c0.127-0.891,0.375-0.967,0.598-0.967c0.085,0,0.164,0.014,0.253,0.046l0.176,0.062l0.169-0.615
		l-0.134-0.062c-0.136-0.062-0.288-0.09-0.464-0.09c-0.927,0-1.182,0.745-1.306,1.475L13.476,6.02
		c-0.802,0.009-1.679,0.144-1.679,0.985c0,0.269,0.101,0.495,0.307,0.695l0.099,0.096l0.553-0.354l-0.169-0.151
		C12.48,7.194,12.425,7.096,12.425,7c0-0.153,0.076-0.315,0.953-0.319c-0.316,2.638-0.489,3.558-1.412,3.558
		c-0.384,0-0.764-0.194-1.162-0.592l-0.282-0.282l-0.039,0.902l0.062,0.056c0.438,0.391,0.918,0.588,1.428,0.588
		c0.628,0,1.149-0.311,1.471-0.874c0.3-0.525,0.416-1.408,0.592-2.742c0.027-0.195,0.057-0.399,0.084-0.613h0.646L15.026,6.02z"/>
	<path d="M16.669,8.531c-0.254,0.24-0.503,0.365-0.714,0.365c-0.347,0-0.548-0.272-0.548-0.746c0-0.01,0-0.018,0-0.025
		c1.264-0.093,1.925-0.745,1.925-1.373c0-0.496-0.371-0.843-0.901-0.843c-0.975,0-1.801,1.045-1.801,2.284
		c0,0.83,0.503,1.388,1.252,1.388c0.408,0,0.764-0.14,1.083-0.426l0.071-0.065l-0.099-0.81L16.669,8.531z M15.521,7.45
		c0.211-0.558,0.576-0.855,0.848-0.855c0.097,0,0.207,0.041,0.207,0.157C16.576,7.005,16.212,7.357,15.521,7.45z"/>
	<path d="M20.382,7.009l0.313-0.854l-0.144-0.068c-0.228-0.11-0.458-0.166-0.687-0.166c-0.497,0-0.939,0.191-1.365,0.596
		l-0.069-0.589l-0.191,0.049c-0.072,0.017-0.128,0.024-0.188,0.024C18.038,6,18.022,6.002,18.005,5.999l-0.209-0.042V6.25
		c0,0.65-0.145,1.687-0.425,3.001l-0.043,0.212h0.884l0.029-0.317c0.075-0.852,0.131-1.466,0.315-1.81
		c0.216-0.391,0.669-0.676,1.085-0.676c0.228,0,0.393,0.057,0.549,0.188L20.382,7.009z"/>
	<path d="M21.676,7.578c-0.272-0.267-0.424-0.429-0.424-0.635c0-0.217,0.18-0.367,0.436-0.367c0.087,0,0.191,0.019,0.191,0.108
		c0,0.042-0.029,0.122-0.161,0.263l-0.17,0.175l0.594,0.281l0.089-0.091c0.229-0.235,0.339-0.463,0.339-0.69
		c0-0.409-0.347-0.694-0.842-0.694c-0.687,0-1.204,0.474-1.204,1.103c0,0.411,0.205,0.704,0.541,1.045l0.128,0.131
		c0.308,0.307,0.529,0.528,0.529,0.797c0,0.251-0.233,0.518-0.671,0.518c-0.174,0-0.468-0.033-0.468-0.251
		c0-0.107,0.06-0.223,0.176-0.352l0.161-0.175l-0.588-0.279l-0.086,0.089c-0.178,0.183-0.359,0.415-0.359,0.741
		c0,0.426,0.357,0.887,1.132,0.887c0.825,0,1.446-0.544,1.446-1.264c0-0.328-0.138-0.628-0.438-0.975
		C21.904,7.804,21.782,7.684,21.676,7.578z"/>
</g>
<g>
	<path d="M6.383,11.197l-0.85,0.187l0.122,0.221c0.194,0.35,0.291,0.775,0.291,1.27c0,0.375-0.062,1.245-0.64,1.245
		c-0.301,0-0.363-0.314-0.363-0.578c0-0.137,0.015-0.33,0.048-0.604c0.127-0.547,0.225-1.005,0.291-1.444l0.036-0.25l-0.249,0.036
		c-0.152,0.021-0.316,0.042-0.487,0.042H4.423l-0.025,0.157c-0.033,0.21-0.056,0.451-0.082,0.729
		c-0.017,0.194-0.036,0.406-0.062,0.626c-0.188,1.282-0.553,1.282-0.674,1.282c-0.315,0-0.348-0.385-0.348-0.549
		c0-0.502,0.255-1.167,0.782-2.035L4.2,11.224l-0.408,0.023c-0.187,0.012-0.362,0.021-0.52,0.021c-0.388,0-0.759-0.048-1.118-0.095
		C1.83,11.13,1.523,11.09,1.231,11.09c-0.672,0-1.123,0.391-1.123,0.973c0,0.224,0.072,0.435,0.222,0.642l0.095,0.133l0.647-0.343
		l-0.14-0.179c-0.075-0.092-0.106-0.171-0.106-0.253c0-0.175,0.153-0.263,0.46-0.263c0.135,0,0.324,0.024,0.563,0.056
		c0.291,0.038,0.642,0.083,1.065,0.108c-0.296,0.583-0.462,1.164-0.462,1.625c0,0.729,0.429,1.216,1.065,1.216
		c0.387,0,0.679-0.137,0.91-0.431c0.171,0.298,0.448,0.437,0.864,0.437c0.873,0,1.438-0.795,1.438-2.023
		c0-0.505-0.099-1.005-0.287-1.446L6.383,11.197z"/>
	<path d="M8.639,11.176c-0.569,0-0.984,0.353-0.99,0.839l-0.083-0.052L7.461,12.08c-0.312,0.345-0.5,0.859-0.5,1.374
		c0,0.834,0.528,1.395,1.314,1.395c0.97,0,1.701-0.894,1.701-2.08C9.977,11.816,9.439,11.176,8.639,11.176z M8.318,14.144
		c-0.489,0-0.592-0.408-0.592-0.752c0-0.262,0.07-0.501,0.215-0.73c0.104,0.098,0.235,0.19,0.395,0.272l0.111,0.06l0.566-0.479
		l-0.272-0.122c-0.189-0.085-0.414-0.221-0.414-0.379c0-0.117,0.133-0.159,0.256-0.159c0.395,0,0.629,0.337,0.629,0.901
		C9.212,13.587,8.853,14.144,8.318,14.144z"/>
	<path d="M13.192,11.217l-0.274,0.049c-0.129,0.021-0.264,0.034-0.395,0.034h-0.26l-0.014,0.173
		c-0.092,1.111-0.208,1.884-0.288,2.343c-0.306,0.166-0.571,0.261-0.745,0.261c-0.097,0-0.207,0-0.207-0.282
		c0-0.234,0.1-0.979,0.381-2.306l0.056-0.273l-0.274,0.051c-0.162,0.029-0.327,0.034-0.467,0.034h-0.177l-0.012,0.175
		c-0.048,0.69-0.135,1.256-0.199,1.671c-0.053,0.339-0.091,0.584-0.091,0.765c0,0.549,0.316,0.9,0.805,0.9
		c0.254,0,0.563-0.109,1.021-0.359c0.118,0.229,0.313,0.335,0.602,0.335c0.071,0,0.162-0.016,0.266-0.043l0.1-0.029l0.163-0.545
		h-0.307c-0.093,0-0.127,0-0.127-0.195c0-0.246,0.079-1.049,0.384-2.485L13.192,11.217z"/>
	<path d="M23.772,12.012c-0.062-0.082-0.209-0.21-0.491-0.159c-0.31,0.055-0.753-0.192-1.221-0.454
		c-0.663-0.367-1.412-0.785-2.255-0.685c-1.106,0.129-1.996,0.992-2.422,1.407c-0.058,0.057-0.121,0.119-0.16,0.151
		c-0.344-0.157-0.646-0.304-0.88-0.421c-0.039-1.373-0.641-2.253-1.562-2.253c-0.389,0-0.687,0.138-0.909,0.419l-0.101,0.123
		l0.493,0.488l0.12-0.149c0.112-0.138,0.225-0.195,0.379-0.195c0.339,0,0.696,0.382,0.805,1.118c-0.203-0.113-0.4-0.164-0.607-0.164
		c-0.923,0-1.616,0.901-1.616,2.097c0,0.911,0.502,1.501,1.281,1.501c0.483,0,1.56-0.243,1.706-2.349
		c0.244,0.12,0.538,0.259,0.862,0.404c0.366,0.581,1.513,2.132,3.271,2.132c0.037,0,0.077,0,0.116-0.002
		c1.478-0.058,2.758-1.354,3.158-2.21C23.903,12.463,23.915,12.194,23.772,12.012z M15.598,12.145
		c-0.045,1.274-0.382,2.005-0.927,2.005c-0.345,0-0.548-0.319-0.548-0.858c0-0.819,0.354-1.393,0.861-1.393
		C15.16,11.899,15.352,11.975,15.598,12.145z M21.595,11.802c0.063,0.032,0.125,0.066,0.184,0.1
		c0.158,0.089,0.313,0.176,0.468,0.252l-0.265,0.133c-0.012,0.006-0.526,0.271-1.209,0.471c0.234-0.654,0.801-0.933,0.828-0.944
		L21.595,11.802z M20.786,11.417c0.077,0.025,0.152,0.058,0.227,0.092c-0.312,0.238-0.741,0.688-0.878,1.403
		c-0.325,0.06-0.66,0.089-0.981,0.062C19.413,12.267,19.93,11.877,20.786,11.417z M17.229,12.276 M17.794,12.527
		c0.385-0.374,1.174-1.135,2.079-1.241c0.002,0,0.002,0,0.002-0.001c-0.621,0.41-1.054,0.868-1.29,1.566
		c-0.008-0.002-0.016-0.005-0.021-0.009C18.301,12.739,18.04,12.632,17.794,12.527z M18.281,13.351
		c0.023,0.01,0.047,0.02,0.07,0.029c0.3,0.114,0.62,0.168,0.945,0.176c0.108,0.323,0.259,0.578,0.426,0.771
		C19.129,14.134,18.64,13.736,18.281,13.351z M20.887,14.411c-0.162-0.038-0.696-0.208-0.984-0.884
		c0.325-0.038,0.644-0.107,0.936-0.188c0.197,0.412,0.396,0.708,0.598,0.896C21.264,14.312,21.08,14.373,20.887,14.411z
		 M22.786,13.207c-0.122,0.145-0.412,0.454-0.814,0.73l-0.01-0.008c0.008-0.012,0.018-0.021,0.02-0.021
		c-0.008,0-0.229-0.021-0.59-0.745c0.485-0.176,0.816-0.347,0.853-0.364l0.749-0.379c0.097,0.015,0.188,0.02,0.278,0.013
		C23.221,12.593,23.07,12.875,22.786,13.207z"/>
</g>
<g>
	<g>
		<path d="M1.995,16.755c0-0.252-0.215-0.402-0.567-0.414c0.01-0.055,0.042-0.24,0.042-0.24l-0.062,0.01L1.2,16.146
			c0,0-0.018,0.158-0.022,0.203c-0.197,0.027-0.37,0.091-0.526,0.195l-0.024,0.018l0.048,0.216l0.057-0.04
			c0.132-0.099,0.277-0.153,0.424-0.182c-0.06,0.507-0.13,0.959-0.213,1.346l-0.011,0.051h0.333c0.173,0,0.337,0,0.475-0.08
			c0.139-0.083,0.222-0.233,0.222-0.402c0-0.16-0.077-0.28-0.214-0.357C1.901,17.051,1.995,16.923,1.995,16.755z M1.337,17.004
			c0.029-0.225,0.061-0.444,0.063-0.47c0.113,0,0.359,0.025,0.359,0.24c0,0.146-0.119,0.235-0.321,0.235
			C1.438,17.01,1.338,17.004,1.337,17.004z M1.373,17.204c0.133,0,0.356,0.037,0.356,0.271c0,0.203-0.119,0.271-0.47,0.271
			c0,0-0.012,0-0.022,0c0.006-0.037,0.036-0.271,0.073-0.542c0.01,0,0.022,0,0.022,0H1.373z M3.06,16.795l-0.063,0.006l-0.139,0.01
			H2.785l-0.003,0.043c-0.031,0.387-0.07,0.651-0.099,0.807c0,0-0.002,0.005-0.002,0.007c-0.146,0.078-0.234,0.099-0.271,0.099
			c-0.045,0-0.091-0.011-0.091-0.117c0-0.082,0.034-0.341,0.13-0.793l0.013-0.059l-0.265,0.018l-0.008,0.041l-0.101,0.831
			c0,0.182,0.099,0.29,0.257,0.29c0.086,0,0.202-0.046,0.368-0.139c0.035,0.083,0.091,0.133,0.189,0.133l0.112-0.022l0.004-0.025
			l0.038-0.126h-0.08c-0.038,0-0.062-0.006-0.062-0.087c0-0.087,0.028-0.361,0.133-0.854L3.06,16.795z M3.74,17.953h0.269
			l0.074-0.637l0.03-0.261c0-0.177-0.099-0.286-0.265-0.286c-0.09,0-0.21,0.052-0.358,0.131c-0.008-0.038-0.025-0.118-0.025-0.118
			l-0.112,0.016l-0.068-0.002L3.278,16.84v0.029c0,0.229-0.048,0.578-0.143,1.032l-0.012,0.051h0.268c0,0,0.104-0.83,0.109-0.873
			c0.13-0.065,0.225-0.099,0.292-0.099c0.047,0,0.09,0.014,0.09,0.118c0,0.061-0.017,0.248-0.132,0.803L3.74,17.953z M5.135,16.799
			l-0.108-0.008l-0.006,0.041c0,0-0.002,0.012-0.003,0.016c-0.071-0.047-0.147-0.081-0.224-0.081c-0.312,0-0.557,0.32-0.557,0.73
			c0,0.284,0.158,0.476,0.393,0.476c0.098,0,0.181-0.038,0.259-0.095c-0.036,0.268-0.125,0.372-0.331,0.372
			c-0.183,0-0.317-0.061-0.465-0.211L4.02,17.967l-0.012,0.268l0.015,0.014c0.149,0.135,0.322,0.199,0.532,0.199
			c0.2,0,0.345-0.062,0.441-0.199c0.081-0.114,0.097-0.244,0.112-0.396c0.001-0.006,0.01-0.078,0.01-0.078
			c0.02-0.184,0.053-0.495,0.138-0.928l0.012-0.059l-0.097,0.01L5.135,16.799z M4.675,17.776c-0.132,0-0.205-0.104-0.205-0.288
			c0-0.302,0.142-0.52,0.335-0.52c0.068,0,0.13,0.026,0.191,0.075C4.939,17.59,4.885,17.776,4.675,17.776z M6.196,16.784
			l-0.02,0.025c0,0-0.012,0.027-0.024,0.055c-0.097-0.057-0.186-0.093-0.267-0.093c-0.304,0-0.553,0.324-0.553,0.723
			c0,0.282,0.16,0.479,0.387,0.479c0.12,0,0.215-0.054,0.298-0.143c0.033,0.083,0.09,0.141,0.19,0.141l0.111-0.022l0.003-0.025
			l0.039-0.126H6.282c-0.038,0-0.063-0.006-0.063-0.087c0-0.12,0.032-0.438,0.149-0.86l0.016-0.055H6.301L6.196,16.784z
			 M5.756,17.776c-0.113,0-0.188-0.113-0.188-0.288c0-0.298,0.144-0.521,0.333-0.521c0.059,0,0.12,0.026,0.187,0.067
			C6.035,17.55,5.937,17.776,5.756,17.776z M6.629,16.306l-0.006,0.035c-0.036,0.535-0.104,0.934-0.144,1.168l-0.038,0.276
			c0,0.12,0.062,0.189,0.172,0.189l0.198-0.046l-0.006-0.027l0.021-0.145l-0.073,0.019l-0.042,0.01c-0.012,0-0.022,0-0.022-0.05
			c0-0.041,0.04-0.521,0.215-1.43l0.013-0.065l-0.07,0.016L6.629,16.306z M7.48,16.769c-0.188,0-0.321,0.113-0.321,0.272
			c0,0.014,0.012,0.025,0.014,0.04c-0.009-0.006-0.058-0.036-0.058-0.036l-0.024,0.028c-0.104,0.114-0.166,0.287-0.166,0.459
			c0,0.274,0.173,0.458,0.431,0.458c0.322,0,0.565-0.298,0.565-0.694C7.921,16.977,7.747,16.769,7.48,16.769z M7.245,17.225
			c0.037,0.041,0.078,0.077,0.141,0.112l0.026,0.014l0.024-0.021l0.135-0.114l-0.064-0.029c-0.102-0.046-0.153-0.097-0.153-0.148
			c0-0.045,0.043-0.073,0.107-0.073c0.147,0,0.235,0.123,0.235,0.328c0,0.298-0.132,0.495-0.327,0.495
			c-0.191,0-0.221-0.174-0.221-0.278C7.148,17.407,7.185,17.316,7.245,17.225z M9.456,16.773l-0.073,0.015l-0.201,0.037
			l-0.006,0.033c-0.046,0.218-0.134,0.45-0.246,0.704c-0.035-0.221-0.065-0.463-0.081-0.729l-0.003-0.055l-0.192,0.043l-0.008,0.025
			c-0.066,0.231-0.16,0.468-0.271,0.704c-0.046-0.284-0.076-0.532-0.085-0.724l-0.001-0.052l-0.275,0.058l0.014,0.046
			c0.057,0.197,0.119,0.571,0.179,1.053l0.005,0.042H8.4c0,0,0.267-0.655,0.285-0.698c0.023,0.219,0.073,0.696,0.073,0.696
			l0.042,0.002h0.138l0.013-0.026c0.23-0.443,0.397-0.824,0.483-1.103L9.456,16.773z M9.416,17.461h0.602l0.032-0.221H9.447
			L9.416,17.461z M11.216,16.842l-0.037-0.018c-0.075-0.037-0.153-0.056-0.229-0.056c-0.174,0-0.326,0.087-0.475,0.237
			c-0.01-0.079-0.026-0.227-0.026-0.227l-0.118,0.018l-0.046-0.002l-0.027,0.045v0.027c0,0.224-0.049,0.58-0.144,1.034l-0.012,0.051
			h0.271l0.007-0.088c0.026-0.296,0.044-0.512,0.111-0.63c0.074-0.142,0.235-0.242,0.383-0.242c0.08,0,0.141,0.021,0.197,0.07
			l0.049,0.038L11.216,16.842z M11.698,16.769c-0.324,0-0.599,0.352-0.599,0.766c0,0.272,0.166,0.456,0.409,0.456
			c0.135,0,0.254-0.046,0.359-0.143l0.018-0.014l-0.027-0.23l-0.065,0.062c-0.092,0.084-0.181,0.13-0.258,0.13
			c-0.13,0-0.208-0.103-0.208-0.276c0,0,0.001-0.016,0.002-0.031c0.43-0.026,0.658-0.239,0.658-0.448
			C11.987,16.88,11.868,16.769,11.698,16.769z M11.365,17.296c0.073-0.213,0.207-0.33,0.312-0.33c0.044,0,0.091,0.022,0.091,0.073
			C11.769,17.136,11.624,17.266,11.365,17.296z M12.636,17.154l0.17,0.081l0.021-0.025c0.073-0.079,0.107-0.156,0.107-0.227
			c0-0.129-0.106-0.214-0.269-0.214c-0.327,0-0.601,0.342-0.601,0.742c0,0.296,0.172,0.479,0.45,0.479
			c0.121,0,0.239-0.048,0.346-0.143l0.018-0.014l-0.029-0.23l-0.065,0.062c-0.089,0.082-0.181,0.13-0.262,0.13
			c-0.14,0-0.233-0.12-0.233-0.298c0-0.298,0.202-0.535,0.37-0.535c0.027,0,0.071,0.006,0.071,0.038c0,0.023-0.02,0.062-0.057,0.108
			L12.636,17.154z M14.095,16.842l-0.035-0.018c-0.079-0.037-0.154-0.056-0.232-0.056c-0.174,0-0.328,0.087-0.477,0.237
			c-0.01-0.079-0.026-0.227-0.026-0.227l-0.119,0.018l-0.048-0.002l-0.024,0.045v0.027c0,0.224-0.052,0.58-0.146,1.034l-0.011,0.051
			h0.271l0.008-0.084c0.027-0.298,0.045-0.516,0.111-0.634c0.078-0.142,0.237-0.242,0.386-0.242c0.081,0,0.142,0.021,0.199,0.07
			l0.047,0.038L14.095,16.842z M14.576,16.769c-0.323,0-0.6,0.352-0.6,0.766c0,0.272,0.166,0.456,0.412,0.456
			c0.135,0,0.251-0.046,0.359-0.143l0.018-0.014l-0.029-0.23l-0.065,0.062c-0.091,0.084-0.178,0.13-0.259,0.13
			c-0.128,0-0.207-0.103-0.207-0.276c0,0,0-0.016,0.002-0.031c0.429-0.026,0.659-0.239,0.659-0.448
			C14.866,16.88,14.748,16.769,14.576,16.769z M14.243,17.296c0.074-0.213,0.209-0.33,0.313-0.33c0.043,0,0.089,0.022,0.089,0.073
			C14.646,17.136,14.503,17.266,14.243,17.296z M15.775,16.784l-0.018,0.025c0,0-0.012,0.027-0.025,0.055
			c-0.099-0.057-0.186-0.093-0.267-0.093c-0.304,0-0.552,0.324-0.552,0.723c0,0.282,0.157,0.479,0.386,0.479
			c0.121,0,0.216-0.054,0.296-0.143c0.034,0.083,0.093,0.141,0.191,0.141l0.113-0.022l0.002-0.025l0.039-0.126h-0.079
			c-0.039,0-0.065-0.006-0.065-0.087c0-0.12,0.032-0.438,0.15-0.86l0.016-0.055h-0.081L15.775,16.784z M15.336,17.776
			c-0.114,0-0.188-0.113-0.188-0.288c0-0.298,0.142-0.521,0.333-0.521c0.058,0,0.118,0.026,0.186,0.067
			C15.612,17.55,15.518,17.776,15.336,17.776z M16.303,17.669c0-0.058,0.018-0.224,0.091-0.667c0.053,0,0.203,0,0.203,0l0.122-0.199
			c0,0-0.221,0-0.292,0c0.016-0.069,0.067-0.302,0.067-0.302l-0.081,0.025l-0.112,0.039l-0.013,0.022c0,0-0.07,0.177-0.082,0.209
			c-0.032,0.012-0.222,0.087-0.222,0.087l-0.018,0.118c0,0,0.141,0,0.195,0c-0.012,0.077-0.049,0.367-0.049,0.367l-0.04,0.331
			c0,0.176,0.106,0.274,0.292,0.274l0.193-0.024l0.004-0.029l0.038-0.176l-0.184,0.028C16.32,17.774,16.303,17.738,16.303,17.669z
			 M17.058,16.786l-0.064,0.008l-0.212,0.018l-0.006,0.043c-0.006,0.269-0.045,0.497-0.072,0.661l-0.034,0.271
			c0,0.12,0.063,0.189,0.172,0.189l0.193-0.046l-0.004-0.027l0.02-0.145l-0.073,0.019l-0.041,0.01c-0.012,0-0.023,0-0.023-0.05
			c0-0.037,0.023-0.341,0.134-0.892L17.058,16.786z M16.975,16.335c-0.086,0-0.157,0.069-0.157,0.162
			c0,0.087,0.059,0.151,0.136,0.151c0.089,0,0.162-0.081,0.162-0.172C17.115,16.391,17.06,16.335,16.975,16.335z M18.013,17.04
			c0-0.161-0.114-0.271-0.288-0.271c-0.325,0-0.598,0.352-0.598,0.766c0,0.272,0.164,0.456,0.408,0.456
			c0.136,0,0.251-0.046,0.359-0.143l0.018-0.014l-0.027-0.23l-0.067,0.062c-0.091,0.084-0.178,0.13-0.257,0.13
			c-0.132,0-0.207-0.103-0.207-0.276c0,0,0.002-0.016,0.002-0.031C17.784,17.461,18.013,17.249,18.013,17.04z M17.703,16.966
			c0.045,0,0.091,0.022,0.091,0.073c0,0.097-0.145,0.227-0.404,0.257C17.466,17.083,17.597,16.966,17.703,16.966z M18.744,16.769
			c-0.089,0-0.197,0.044-0.335,0.121c-0.006-0.032-0.023-0.11-0.023-0.11l-0.112,0.018l-0.069-0.006l-0.006,0.047v0.052
			c0,0.294-0.069,0.832-0.193,1.481l-0.01,0.053h0.272c0,0,0.037-0.418,0.049-0.552c0.071,0.07,0.158,0.118,0.265,0.118
			c0.312,0,0.548-0.315,0.548-0.734C19.129,16.96,18.978,16.769,18.744,16.769z M18.431,17.074c0.108-0.065,0.199-0.104,0.265-0.104
			c0.168,0,0.201,0.154,0.201,0.286c0,0.316-0.128,0.529-0.317,0.529c-0.137,0-0.207-0.081-0.207-0.239
			C18.372,17.465,18.39,17.328,18.431,17.074z M20.064,16.782l-0.02,0.027c0,0-0.013,0.027-0.028,0.055
			c-0.097-0.057-0.184-0.093-0.266-0.093c-0.302,0-0.551,0.324-0.551,0.723c0,0.282,0.158,0.479,0.385,0.479
			c0.122,0,0.213-0.054,0.298-0.143c0.033,0.083,0.091,0.141,0.191,0.141l0.112-0.022l0.002-0.025l0.039-0.126h-0.08
			c-0.038,0-0.062-0.006-0.062-0.087c0-0.12,0.031-0.438,0.147-0.86l0.017-0.055h-0.083L20.064,16.782z M19.62,17.776
			c-0.112,0-0.186-0.113-0.186-0.288c0-0.298,0.143-0.521,0.332-0.521c0.057,0,0.12,0.026,0.186,0.067
			C19.9,17.55,19.8,17.776,19.62,17.776z M21.399,16.842l-0.037-0.018c-0.075-0.037-0.152-0.056-0.229-0.056
			c-0.174,0-0.328,0.087-0.476,0.237c-0.01-0.079-0.025-0.227-0.025-0.227l-0.119,0.018l-0.049-0.002l-0.023,0.045v0.027
			c0,0.226-0.052,0.582-0.146,1.034l-0.012,0.051h0.272l0.006-0.09c0.025-0.294,0.045-0.51,0.112-0.628
			c0.075-0.142,0.238-0.242,0.385-0.242c0.083,0,0.14,0.021,0.197,0.07l0.049,0.038L21.399,16.842z M22.95,18.042
			c-0.108,0.056-0.229,0.083-0.355,0.083c-0.232,0-0.378-0.093-0.538-0.349l-0.087-0.146c-0.067-0.12-0.132-0.221-0.213-0.3
			c0.176-0.184,0.353-0.302,0.57-0.361l0.072-0.021l-0.175-0.184l-0.032,0.01c-0.223,0.091-0.406,0.229-0.558,0.417
			c0.041-0.284,0.093-0.586,0.144-0.884l0.012-0.067l-0.068,0.018l-0.204,0.05l-0.006,0.035c-0.012,0.229-0.061,0.736-0.225,1.561
			l-0.01,0.051h0.269l0.002-0.039c0.012-0.14,0.025-0.296,0.047-0.458c0.079,0.093,0.139,0.195,0.195,0.294l0.125,0.197
			c0.181,0.267,0.392,0.383,0.682,0.383c0.127,0,0.247-0.025,0.359-0.072l0.02-0.011l0.063-0.25L22.95,18.042z"/>
	</g>
</g>
</svg>
