<?xml version="1.0" encoding="utf-8"?>
<!-- Generator: Adobe Illustrator 16.0.0, SVG Export Plug-In . SVG Version: 6.00 Build 0)  -->
<!DOCTYPE svg PUBLIC "-//W3C//DTD SVG 1.1//EN" "http://www.w3.org/Graphics/SVG/1.1/DTD/svg11.dtd">
<svg version="1.1" id="Layer_1" xmlns="http://www.w3.org/2000/svg" xmlns:xlink="http://www.w3.org/1999/xlink" x="0px" y="0px"
	 width="24.009px" height="24.01px" viewBox="0 0 24.009 24.01" enable-background="new 0 0 24.009 24.01" xml:space="preserve">
<g>
	<polygon points="0.389,13.151 0.705,13.151 0.705,10.907 2.634,10.907 2.634,10.584 0.705,10.584 0.705,8.734 2.634,8.734 
		2.634,8.4 0.389,8.4 	"/>
	<path d="M6.884,8.4l-1.745,4.422H3.476V8.4H3.161v4.751h1.849h0.22h0.116l0.635-1.624h2.186L8.8,13.151h0.336L7.256,8.4H6.884z
		 M8.033,11.213H6.107l0.966-2.441L8.033,11.213z"/>
	<path d="M10.525,10.873v0.295h2.517c-0.2,1.066-0.99,1.777-1.985,1.777c-0.511,0-1.052-0.246-1.41-0.645
		c-0.359-0.394-0.566-0.957-0.566-1.548c0-0.619,0.287-1.257,0.75-1.662c0.352-0.311,0.776-0.467,1.264-0.467
		c0.704,0,1.229,0.317,1.702,1.024l0.015,0.021h0.384l-0.041-0.074c-0.468-0.854-1.155-1.287-2.039-1.287
		c-0.667,0-1.21,0.225-1.663,0.688C8.987,9.474,8.74,10.08,8.74,10.745c0,1.424,0.996,2.497,2.316,2.497
		c1.289,0,2.208-0.908,2.342-2.313l0.004-0.056H10.525z"/>
	<path d="M15.185,10.635c-0.145-0.062-0.284-0.11-0.418-0.158c-0.237-0.084-0.444-0.155-0.605-0.27
		c-0.228-0.158-0.318-0.34-0.318-0.646c0-0.576,0.376-0.963,0.934-0.963c0.489,0,0.777,0.325,0.838,0.942l0.004,0.045h0.32
		l-0.003-0.055c-0.044-0.766-0.482-1.224-1.172-1.224c-0.72,0-1.243,0.526-1.243,1.248c0,0.567,0.285,0.911,0.95,1.152l0.024,0.009
		c0.79,0.287,1.225,0.445,1.225,1.153c0,0.659-0.402,1.083-1.025,1.083c-0.592,0-0.977-0.434-0.982-1.102l-0.001-0.05h-0.311
		l0.001,0.052c0.027,0.855,0.541,1.389,1.343,1.389c0.764,0,1.298-0.566,1.298-1.377C16.044,11.262,15.778,10.883,15.185,10.635z"/>
	<polygon points="19.047,10.566 16.718,10.566 16.718,8.4 16.402,8.4 16.402,13.151 16.718,13.151 16.718,10.861 19.047,10.861 
		19.047,13.151 19.362,13.151 19.362,8.4 19.047,8.4 	"/>
	<rect x="19.958" y="8.4" width="0.329" height="4.751"/>
	<path d="M22.833,8.578C22.586,8.429,22.286,8.4,21.847,8.4h-0.965v4.751h0.316v-1.963h0.643c1.026,0,1.638-0.526,1.638-1.411
		C23.479,9.271,23.238,8.822,22.833,8.578z M23.149,9.791c0,0.406-0.167,0.732-0.472,0.918c-0.253,0.156-0.508,0.156-0.831,0.156
		h-0.649V8.729h0.599c0.4,0,0.724,0.014,0.953,0.182C23,9.091,23.149,9.42,23.149,9.791z"/>
</g>
<path d="M0.428,20.346c0.01,1.097,0.658,1.771,1.588,1.771c1.027,0,1.655-0.703,1.655-1.742c0-1.159-0.725-1.41-1.975-1.863
	c-0.95-0.344-1.414-0.816-1.414-1.703c0-1.037,0.726-1.844,1.84-1.844c1.017,0,1.666,0.654,1.733,1.814H3.507
	c-0.097-0.998-0.571-1.522-1.365-1.522c-0.891,0-1.511,0.634-1.511,1.561c0,0.494,0.146,0.797,0.523,1.06
	c0.397,0.282,0.969,0.402,1.587,0.665c0.872,0.362,1.279,0.917,1.279,1.823c0,1.179-0.755,2.044-1.928,2.044
	c-1.219,0-1.956-0.796-1.994-2.063H0.428z"/>
<path d="M5.464,22.27v-6.801H3.866v-0.363H7.41v0.363H5.812v6.801H5.464z"/>
<path d="M8.111,16.004c0.69-0.688,1.531-1.039,2.514-1.039c1,0,1.852,0.352,2.552,1.047c0.719,0.717,1.09,1.611,1.09,2.63
	s-0.31,1.863-0.94,2.56c-0.721,0.795-1.643,1.208-2.713,1.208C8.572,22.409,7,20.778,7,18.642C7,17.645,7.39,16.718,8.111,16.004z
	 M8.291,21.09c0.622,0.655,1.492,1.018,2.323,1.018c1.882,0,3.292-1.511,3.292-3.486c0-0.725-0.239-1.41-0.69-2.015
	c-0.67-0.888-1.542-1.339-2.602-1.339c-0.851,0-1.652,0.342-2.252,0.956c-0.631,0.655-0.99,1.551-0.99,2.418
	C7.371,19.6,7.711,20.475,8.291,21.09z"/>
<path d="M15.109,22.27H14.77v-7.164h1.85c0.649,0,1.181,0.061,1.667,0.412c0.552,0.404,0.892,1.1,0.892,1.895
	c0,1.271-0.825,2.146-2.15,2.146c-0.059,0-0.116,0-0.175,0l1.85,2.711h-0.396l-2.073-3.033h0.794c1.104,0,1.811-0.765,1.811-1.834
	c0-1.179-0.716-1.943-2.12-1.943h-1.609V22.27z"/>
<path d="M23.041,18.542v0.353h-3.147v3.021h3.147v0.354h-3.486v-7.164h3.583v0.354h-3.244v3.083H23.041z"/>
<g>
	<path d="M0.366,6.681V5.83h0.107v0.422L0.878,5.83h0.146L0.683,6.175l0.355,0.506H0.897L0.607,6.25L0.473,6.385v0.296H0.366z"/>
	<path d="M1.716,6.681V5.83h0.107v0.851H1.716z"/>
	<path d="M2.747,6.681V5.932H2.478V5.83h0.646v0.102H2.855v0.749H2.747z"/>
	<path d="M4.364,6.382L4.472,6.41C4.449,6.502,4.408,6.572,4.35,6.623C4.29,6.67,4.218,6.695,4.133,6.695
		c-0.088,0-0.16-0.02-0.213-0.057C3.865,6.602,3.822,6.547,3.793,6.477C3.765,6.406,3.75,6.33,3.75,6.25
		c0-0.09,0.017-0.166,0.048-0.232c0.033-0.064,0.079-0.116,0.139-0.148c0.059-0.035,0.126-0.052,0.197-0.052
		c0.082,0,0.151,0.021,0.206,0.064c0.055,0.042,0.095,0.104,0.117,0.183L4.351,6.09C4.333,6.027,4.305,5.983,4.269,5.955
		C4.233,5.926,4.188,5.913,4.133,5.913c-0.064,0-0.116,0.015-0.158,0.046C3.933,5.99,3.904,6.031,3.887,6.086
		C3.87,6.137,3.862,6.192,3.862,6.25c0,0.07,0.01,0.133,0.031,0.188c0.02,0.053,0.051,0.094,0.093,0.121
		C4.028,6.584,4.075,6.6,4.125,6.6c0.06,0,0.112-0.02,0.154-0.057C4.32,6.508,4.348,6.453,4.364,6.382z"/>
	<path d="M5.175,6.681V5.83h0.108v0.35h0.424V5.83h0.108v0.851H5.707v-0.4H5.283v0.4H5.175z"/>
	<path d="M6.564,6.681V5.83h0.589v0.102H6.671v0.26h0.45v0.1h-0.45V6.58h0.5v0.101H6.564z"/>
	<path d="M7.888,6.681V5.83h0.111l0.428,0.668V5.83H8.53v0.851H8.419L7.992,6.015v0.666H7.888z"/>
	<path d="M19.188,6.681V5.83h0.306c0.061,0,0.111,0.01,0.15,0.027c0.037,0.017,0.066,0.044,0.088,0.078
		c0.021,0.036,0.032,0.073,0.032,0.113c0,0.036-0.01,0.07-0.028,0.102c-0.02,0.031-0.048,0.059-0.087,0.078
		c0.05,0.014,0.088,0.039,0.115,0.077c0.025,0.036,0.04,0.078,0.04,0.128c0,0.04-0.008,0.076-0.025,0.111
		c-0.016,0.034-0.036,0.061-0.059,0.08c-0.025,0.018-0.053,0.032-0.091,0.04c-0.035,0.011-0.079,0.016-0.131,0.016H19.188z
		 M19.296,6.188h0.175c0.049,0,0.082-0.004,0.104-0.011c0.027-0.008,0.048-0.021,0.062-0.043c0.014-0.02,0.021-0.044,0.021-0.072
		c0-0.029-0.008-0.054-0.02-0.075c-0.013-0.021-0.033-0.036-0.056-0.044c-0.024-0.008-0.065-0.012-0.124-0.012h-0.162V6.188z
		 M19.296,6.58h0.202c0.035,0,0.06-0.002,0.075-0.005c0.024-0.005,0.044-0.012,0.062-0.023c0.015-0.011,0.03-0.026,0.042-0.046
		c0.009-0.021,0.015-0.045,0.015-0.072c0-0.031-0.008-0.061-0.023-0.082c-0.017-0.025-0.038-0.039-0.066-0.05
		c-0.027-0.01-0.067-0.014-0.118-0.014h-0.188V6.58z"/>
	<path d="M20.303,6.681l0.313-0.851h0.116l0.333,0.851h-0.122l-0.095-0.257h-0.342l-0.09,0.257H20.303z M20.538,6.332h0.276
		l-0.086-0.236c-0.026-0.07-0.043-0.129-0.057-0.176c-0.011,0.055-0.026,0.109-0.044,0.163L20.538,6.332z"/>
	<path d="M21.82,6.681V5.932h-0.268V5.83h0.646v0.102h-0.271v0.749H21.82z"/>
	<path d="M22.859,6.681V5.83h0.107v0.35h0.423V5.83h0.108v0.851H23.39v-0.4h-0.423v0.4H22.859z"/>
	<path d="M10.8,6.681V5.83h0.108v0.75h0.401v0.101H10.8z"/>
	<path d="M11.982,6.681V5.83h0.107v0.851H11.982z"/>
	<path d="M13.082,6.681L12.766,5.83h0.117l0.212,0.617c0.015,0.05,0.03,0.096,0.042,0.14c0.014-0.046,0.028-0.093,0.044-0.14
		l0.22-0.617h0.109l-0.318,0.851H13.082z"/>
	<path d="M14.195,6.681V5.83h0.107v0.851H14.195z"/>
	<path d="M15.06,6.681V5.83h0.11l0.428,0.668V5.83h0.104v0.851h-0.11l-0.428-0.666v0.666H15.06z"/>
	<path d="M16.832,6.348v-0.1h0.346v0.312c-0.054,0.045-0.108,0.078-0.165,0.101C16.957,6.683,16.9,6.695,16.84,6.695
		c-0.081,0-0.153-0.02-0.219-0.055c-0.065-0.035-0.113-0.087-0.146-0.154c-0.035-0.068-0.052-0.143-0.052-0.227
		c0-0.082,0.018-0.159,0.052-0.232c0.033-0.07,0.08-0.124,0.142-0.158c0.062-0.035,0.133-0.052,0.214-0.052
		c0.059,0,0.113,0.009,0.161,0.028c0.047,0.021,0.084,0.048,0.112,0.084c0.027,0.035,0.047,0.081,0.062,0.139l-0.097,0.027
		c-0.013-0.043-0.028-0.076-0.046-0.101c-0.02-0.026-0.045-0.044-0.078-0.06c-0.035-0.016-0.071-0.022-0.113-0.022
		c-0.049,0-0.091,0.007-0.128,0.022c-0.036,0.016-0.065,0.037-0.086,0.062c-0.022,0.023-0.04,0.053-0.051,0.083
		c-0.021,0.054-0.032,0.11-0.032,0.171c0,0.076,0.011,0.14,0.038,0.189c0.024,0.053,0.062,0.09,0.108,0.115
		c0.049,0.024,0.1,0.037,0.154,0.037c0.046,0,0.091-0.01,0.136-0.028c0.045-0.019,0.079-0.04,0.102-0.06V6.348H16.832z"/>
</g>
<polygon points="0.366,4.624 0.938,4.624 0.938,2.219 1.735,4.624 2.22,4.624 3.016,2.219 3.016,4.624 3.589,4.624 3.589,1.418 
	2.812,1.418 1.974,3.868 1.145,1.418 0.366,1.418 0.366,4.624 "/>
<path d="M6.896,2.907L6.871,2.698L6.815,2.496l-0.075-0.19L6.649,2.13L6.534,1.967L6.403,1.82L6.256,1.689l-0.16-0.113L5.92,1.488
	L5.735,1.422L5.539,1.377L5.335,1.358H5.309H5.296H5.293L5.088,1.372l-0.198,0.04L4.706,1.475l-0.18,0.084L4.362,1.666L4.213,1.791
	L4.078,1.937L3.96,2.096L3.864,2.27L3.783,2.455L3.727,2.656L3.694,2.863L3.688,3.081l0.017,0.212l0.044,0.203l0.067,0.193
	l0.088,0.179l0.104,0.171l0.127,0.15l0.141,0.135l0.156,0.117l0.17,0.099l0.179,0.076L4.974,4.67l0.199,0.027l0.204,0.002
	l0.198-0.023l0.191-0.05l0.186-0.068l0.169-0.094l0.16-0.114l0.145-0.131l0.13-0.15l0.108-0.164l0.094-0.18l0.07-0.188l0.047-0.203
	l0.022-0.209L6.896,2.907z M6.315,3.188L6.292,3.318L6.246,3.447L6.192,3.565L6.121,3.677L6.042,3.779L5.949,3.868l-0.099,0.08
	L5.738,4.016L5.622,4.064L5.501,4.102l-0.127,0.02L5.241,4.125L5.114,4.107L4.99,4.075l-0.119-0.05L4.759,3.962L4.656,3.885
	L4.564,3.797L4.481,3.699L4.411,3.59L4.35,3.469L4.306,3.348L4.276,3.213L4.26,3.081v-0.14l0.019-0.138l0.032-0.128l0.048-0.125
	l0.061-0.115l0.075-0.106l0.083-0.093l0.097-0.088L4.775,2.08L4.891,2.02l0.119-0.043l0.127-0.029l0.131-0.014h0.015h0.011
	l0.133,0.01l0.129,0.025L5.674,2.01l0.114,0.057l0.105,0.07l0.097,0.079l0.087,0.093l0.075,0.106l0.065,0.113l0.048,0.12
	l0.038,0.129l0.02,0.134l0.007,0.14L6.315,3.188z"/>
<path d="M9.439,2.863L9.41,2.691L9.37,2.519L9.309,2.352L9.232,2.195l-0.09-0.147L9.037,1.91L8.918,1.791L8.775,1.684L8.628,1.598
	l-0.16-0.063l-0.164-0.05l-0.166-0.03l-0.17-0.02L7.623,1.418H7.617H7.595H7.562H7.521H7.418H7.301H7.182H7.076H7.035H7.003H6.982
	H6.977v0.01v0.026v0.044v0.061v0.068v0.086v0.098V1.92v0.117v0.125v0.27v0.29V3.02v0.299v0.289v0.274v0.124v0.119V4.23v0.096v0.088
	v0.072v0.058v0.042v0.03v0.008h0.006h0.021h0.035h0.042h0.105h0.123h0.121h0.105h0.042h0.032h0.02h0.01h0.176l0.169-0.011
	l0.169-0.02l0.164-0.03l0.159-0.046l0.155-0.063l0.147-0.086l0.143-0.114l0.119-0.117l0.105-0.131l0.09-0.147l0.076-0.157
	l0.057-0.162L9.41,3.372l0.029-0.169l0.007-0.166L9.439,2.863z M8.871,3.154L8.852,3.267L8.819,3.372L8.778,3.479L8.726,3.58
	L8.663,3.669L8.588,3.756L8.502,3.832L8.404,3.898L8.298,3.952L8.192,3.986L8.08,4.016L7.969,4.031l-0.115,0.01L7.62,4.049H7.607
	H7.581H7.559H7.546V4.041V4.025V3.998v-0.04V3.912V3.858V3.725V3.573V3.4V3.02V2.645V2.471V2.316V2.186V2.13V2.084V2.048V2.02V2
	V1.996h0.042L7.818,2l0.224,0.023l0.111,0.024L8.262,2.08l0.104,0.046l0.103,0.06L8.56,2.262l0.083,0.09l0.07,0.102L8.77,2.559
	l0.046,0.113l0.032,0.115l0.018,0.124l0.01,0.126L8.871,3.154z"/>
<polygon points="9.497,1.418 9.497,1.424 9.497,1.437 9.497,1.46 9.497,1.492 9.497,1.534 9.497,1.58 9.497,1.697 9.497,1.832 
	9.497,1.986 9.497,2.154 9.497,2.326 9.497,2.676 9.497,2.84 9.497,2.995 9.497,3.129 9.497,3.246 9.497,3.297 9.497,3.338 
	9.497,3.37 9.497,3.396 9.497,3.412 9.497,3.42 9.501,3.473 9.501,3.585 9.51,3.699 9.523,3.805 9.545,3.912 9.574,4.016 
	9.619,4.113 9.673,4.211 9.744,4.305 9.817,4.383 9.897,4.454 9.982,4.521 10.073,4.574 10.172,4.624 10.271,4.66 10.374,4.688 
	10.477,4.699 10.582,4.699 10.69,4.689 10.799,4.664 10.901,4.626 11.003,4.58 11.099,4.522 11.189,4.454 11.271,4.381 
	11.345,4.297 11.414,4.207 11.463,4.113 11.505,4.018 11.535,3.92 11.557,3.814 11.571,3.709 11.583,3.494 11.583,3.436 
	11.583,3.424 11.583,3.416 11.583,3.41 11.583,3.394 11.583,3.362 11.583,3.33 11.583,3.287 11.583,3.18 11.583,3.051 11.583,2.904 
	11.583,2.74 11.583,2.05 11.583,1.893 11.583,1.747 11.583,1.624 11.583,1.523 11.583,1.488 11.583,1.458 11.583,1.435 
	11.583,1.422 11.579,1.418 11.566,1.418 11.547,1.418 11.515,1.418 11.438,1.418 11.244,1.418 11.147,1.418 11.071,1.418 
	11.042,1.418 11.023,1.418 11.01,1.418 11.01,1.424 11.01,1.437 11.01,1.465 11.01,1.498 11.01,1.538 11.01,1.641 11.01,1.768 
	11.01,1.913 11.01,2.074 11.01,2.418 11.01,2.766 11.01,2.924 11.01,3.07 11.01,3.197 11.01,3.3 11.01,3.34 11.01,3.372 
	11.01,3.396 11.01,3.412 11.01,3.42 11.01,3.434 11.01,3.464 11.01,3.52 11.003,3.635 10.988,3.749 10.948,3.858 10.92,3.908 
	10.887,3.955 10.805,4.031 10.712,4.088 10.61,4.119 10.556,4.125 10.498,4.125 10.438,4.113 10.381,4.096 10.329,4.068 
	10.277,4.039 10.233,3.998 10.191,3.952 10.127,3.845 10.093,3.749 10.076,3.646 10.069,3.543 10.069,3.441 10.069,3.416 
	10.069,3.41 10.069,3.39 10.069,3.362 10.069,3.326 10.069,3.232 10.069,3.114 10.069,2.975 10.069,2.817 10.069,2.65 10.069,2.303 
	10.069,2.13 10.069,1.963 10.069,1.814 10.069,1.68 10.069,1.567 10.069,1.523 10.069,1.484 10.069,1.454 10.069,1.435 
	10.069,1.422 10.069,1.418 10.063,1.418 10.047,1.418 10.018,1.418 9.986,1.418 9.904,1.418 9.705,1.418 9.616,1.418 9.542,1.418 
	9.52,1.418 9.504,1.418 9.497,1.418 "/>
<polygon points="11.691,4.624 13.205,4.624 13.205,4.049 12.258,4.049 12.258,1.418 11.691,1.418 11.691,4.624 "/>
<polygon points="13.284,4.624 13.855,4.624 13.855,2.289 15.147,4.624 15.784,4.624 15.784,1.418 15.212,1.418 15.212,3.763 
	13.926,1.418 13.284,1.418 13.284,4.624 "/>
<path d="M19.029,2.715l-0.05-0.198l-0.073-0.19l-0.097-0.18l-0.111-0.16l-0.135-0.148l-0.146-0.133l-0.161-0.107l-0.176-0.09
	l-0.186-0.071l-0.195-0.042l-0.201-0.018l-0.029-0.003h-0.012l-0.208,0.015l-0.195,0.039L16.864,1.49l-0.175,0.086l-0.167,0.107
	l-0.15,0.127l-0.134,0.144l-0.114,0.158l-0.101,0.177l-0.08,0.186L15.89,2.676l-0.032,0.205l-0.011,0.216l0.02,0.214l0.04,0.201
	l0.068,0.193l0.087,0.184l0.107,0.166l0.125,0.152l0.14,0.138l0.158,0.115l0.168,0.098l0.183,0.076l0.188,0.054l0.198,0.03
	l0.203,0.002l0.203-0.022l0.191-0.05l0.184-0.071l0.171-0.096l0.158-0.112l0.146-0.13l0.128-0.15l0.113-0.166l0.09-0.177
	l0.071-0.193l0.048-0.198l0.022-0.213V2.924L19.029,2.715z M18.479,3.208L18.45,3.34l-0.044,0.126l-0.054,0.119l-0.07,0.109
	L18.2,3.795l-0.093,0.094l-0.099,0.08L17.9,4.031l-0.118,0.053l-0.122,0.037l-0.128,0.021h-0.13l-0.128-0.016l-0.125-0.031
	L17.03,4.044l-0.108-0.062L16.82,3.904l-0.094-0.09l-0.083-0.1L16.57,3.605l-0.058-0.116l-0.044-0.127l-0.033-0.13L16.42,3.097
	l0.002-0.14l0.017-0.136l0.036-0.13l0.044-0.123l0.062-0.113l0.071-0.107l0.087-0.096l0.093-0.082l0.105-0.074L17.05,2.04
	l0.119-0.048l0.127-0.025l0.13-0.013h0.017h0.013l0.131,0.009l0.126,0.023l0.123,0.043l0.111,0.055l0.108,0.07l0.096,0.082
	l0.088,0.093l0.074,0.103l0.064,0.113l0.05,0.123l0.037,0.126l0.022,0.138l0.002,0.139L18.479,3.208z"/>
<polygon points="19.855,4.624 20.328,4.624 21.52,1.418 20.921,1.418 20.089,3.855 19.257,1.418 18.66,1.418 19.855,4.624 "/>
<path d="M22.213,1.418H21.77l-1.284,3.206h0.628l0.343-0.829h1.093l0.333,0.829h0.628L22.213,1.418z M21.665,3.221l0.331-0.975
	l0.33,0.975H21.665z"/>
</svg>
