<?xml version="1.0" encoding="utf-8"?>
<!-- Generator: Adobe Illustrator 16.0.0, SVG Export Plug-In . SVG Version: 6.00 Build 0)  -->
<!DOCTYPE svg PUBLIC "-//W3C//DTD SVG 1.1//EN" "http://www.w3.org/Graphics/SVG/1.1/DTD/svg11.dtd">
<svg version="1.1" id="Layer_1" xmlns="http://www.w3.org/2000/svg" xmlns:xlink="http://www.w3.org/1999/xlink" x="0px" y="0px"
	 width="24.008px" height="24.01px" viewBox="0 0 24.008 24.01" enable-background="new 0 0 24.008 24.01" xml:space="preserve">
<path fill="#3C3C3B" d="M13.461,1.484c-1.456-0.004-2.895,0.644-3.91,1.65l-0.02,0.021C8.39,4.297,7.773,5.58,7.749,6.862
	c-0.022,1.162,0.45,2.287,1.33,3.169c1.633,1.631,4.037,1.719,5.587,0.204l0.037-0.036c1.441-1.441,0.891-3.068,0.201-3.756
	c-0.73-0.732-1.867-0.789-2.529-0.125l-0.013,0.014c-0.217,0.223-0.326,0.455-0.324,0.691c0.004,0.223,0.107,0.434,0.31,0.626
	c0.433,0.417,0.978,0.33,1.269,0.04c0.172-0.173,0.198-0.299,0.215-0.381c0.008-0.045,0.013-0.051,0.021-0.062
	c0.043-0.043,0.163-0.053,0.25,0.034c0.111,0.114,0.251,0.353,0.268,0.649c0.021,0.391-0.166,0.789-0.557,1.179
	c-1.104,1.103-2.887,0.858-3.796-0.051C8.421,7.461,8.5,5.066,10.205,3.361C11.223,2.344,12.556,1.723,14,1.822
	c1.297,0.088,2.238,0.432,3.291,1.16c0.039,0.026,0.078,0.055,0.115,0.083c0.068,0.083,0.139,0.165,0.204,0.251
	c2.117,2.747,1.916,6.707-0.604,9.225c-2.506,2.508-6.449,2.708-9.196,0.621c-0.251-0.19-0.484-0.394-0.713-0.621
	c-2.737-2.736-2.737-7.174,0-9.91c2.652-2.654,6.901-2.734,9.651-0.246C15.711,1.751,14.611,1.486,13.461,1.484z"/>
<path fill="none" d="M18.411,3.77h0.002c0.219,0.366,0.424,0.736,0.617,1.265l0.205,0.663c-0.107-0.277-0.283-1.033-0.936-1.77
	V3.926c-0.313-0.375-0.649-0.695-1.008-0.943C16.238,2.254,15.297,1.91,14,1.822c-1.444-0.1-2.777,0.521-3.795,1.539
	c-1.705,1.705-1.783,4.1-0.187,5.696c0.909,0.909,2.691,1.153,3.796,0.051c0.39-0.39,0.577-0.788,0.558-1.179
	c-0.018-0.297-0.156-0.535-0.269-0.647c-0.086-0.087-0.206-0.079-0.25-0.036c-0.009,0.012-0.013,0.02-0.022,0.062
	c-0.017,0.082-0.043,0.208-0.215,0.381c-0.291,0.29-0.836,0.377-1.27-0.04c-0.201-0.192-0.304-0.403-0.308-0.626
	c-0.002-0.236,0.107-0.469,0.324-0.691l0.013-0.014c0.663-0.664,1.797-0.607,2.529,0.125c0.687,0.688,1.24,2.314-0.202,3.756
	l-0.035,0.036c-1.554,1.515-3.957,1.427-5.588-0.204c-0.879-0.882-1.352-2.005-1.33-3.169C7.773,5.58,8.39,4.297,9.533,3.155
	l0.02-0.021c1.015-1.007,2.454-1.654,3.908-1.65c1.345,0.004,2.621,0.362,3.809,1.251C17.727,3.078,18.09,3.355,18.411,3.77z"/>
<path fill="#A8A8A7" d="M17.933,3.066c0.176,0.228,0.334,0.464,0.478,0.703c-0.32-0.414-0.684-0.691-1.142-1.034
	c-0.75-0.561-1.536-0.909-2.351-1.093c-2.458-1.184-5.5-0.758-7.535,1.276c-2.573,2.573-2.573,6.759,0,9.334
	c0.21,0.21,0.43,0.401,0.672,0.585c2.617,1.987,6.339,1.736,8.661-0.585c2.338-2.339,2.582-6.073,0.568-8.687
	c-0.173-0.228-0.365-0.445-0.568-0.647c-0.258-0.259-0.533-0.489-0.821-0.697c0.472,0.184,0.922,0.433,1.396,0.761
	c0.357,0.248,0.693,0.568,1.006,0.943v0.002c0.556,0.627,0.766,1.266,0.882,1.614c0.718,2.524,0.065,5.339-1.886,7.288
	c-2.607,2.607-6.792,2.893-9.731,0.658c-0.272-0.209-0.52-0.422-0.756-0.658c-2.891-2.893-2.891-7.598,0-10.488
	c2.893-2.892,7.597-2.892,10.487,0C17.524,2.568,17.738,2.814,17.933,3.066z"/>
<path fill="#A8A8A7" d="M18.113,3.435c-0.247-0.247-0.521-0.458-0.844-0.699c-1.187-0.889-2.464-1.247-3.808-1.251
	c-1.456-0.004-2.895,0.644-3.91,1.65l-0.02,0.021C8.39,4.297,7.773,5.58,7.749,6.862c-0.022,1.164,0.45,2.287,1.33,3.169
	c1.633,1.631,4.037,1.719,5.587,0.204l0.037-0.036c1.441-1.441,0.889-3.068,0.201-3.756c-0.73-0.732-1.867-0.789-2.529-0.125
	l-0.013,0.014c-0.217,0.223-0.326,0.455-0.324,0.691c0.004,0.223,0.107,0.434,0.308,0.626c0.433,0.417,0.979,0.33,1.271,0.04
	c0.172-0.173,0.198-0.299,0.215-0.381c0.008-0.043,0.013-0.051,0.021-0.062c0.043-0.043,0.163-0.051,0.25,0.036
	c0.111,0.112,0.251,0.351,0.268,0.647c0.021,0.391-0.166,0.789-0.557,1.179c-1.104,1.103-2.887,0.858-3.796-0.051
	C8.421,7.461,8.5,5.066,10.205,3.361C11.223,2.344,12.556,1.723,14,1.822c1.297,0.088,2.238,0.432,3.291,1.16
	c0.358,0.248,0.694,0.568,1.008,0.943v0.002c0.049,0.055,0.094,0.111,0.139,0.165c-0.041,0.427-0.131,1.355-0.129,1.355
	c-0.557-1.545-1.746-2.179-1.746-2.179C15.86,2.813,13.079,1.477,10.6,3.754C9.027,5.199,8.954,7.32,10.354,8.721
	c0.936,0.936,2.396,0.777,3.122,0.051c0.049-0.047,0.345-0.355,0.411-0.686c-0.463,0.404-1.249,0.503-1.871-0.094
	c-0.294-0.285-0.447-0.607-0.453-0.961c-0.006-0.367,0.149-0.715,0.46-1.035l0.015-0.016c0.85-0.848,2.287-0.791,3.205,0.126
	c0.817,0.817,1.483,2.743-0.205,4.431v0.002l-0.039,0.037c-1.744,1.703-4.435,1.613-6.257-0.209C7.77,9.395,7.248,8.146,7.273,6.854
	C7.3,5.445,7.965,4.05,9.197,2.818l0.021-0.021c2.09-2.075,5.178-2.236,7.871-0.408C17.553,2.683,17.872,3.108,18.113,3.435z"/>
<g opacity="0.75">
	<path opacity="0.15" fill="#FFFFFF" enable-background="new    " d="M9.586,7.525C7.642,7.309,5.859,6.85,5.258,6.041
		C5.16,5.91,5.095,5.771,5.06,5.627c0.075-0.793,0.37-1.361,0.523-1.668C6.879,1.653,9.35,0.17,12.051,0.17
		c3.088,0,5.886,1.95,6.958,4.854l0.007,0.013c0.135,0.408,0.075,0.803-0.173,1.146c-0.281,0.39-1.025,0.961-2.987,1.275
		c-0.294,0.037-0.938,0.135-1.354,0.153c-0.586,0.045-1.248,0.071-2,0.071c-0.214,0-0.433-0.004-0.656-0.008
		C11.246,7.666,10.093,7.598,9.586,7.525z"/>
</g>
<g>
	<g enable-background="new    ">
		<path fill="#3C3C3B" d="M5.247,15.232c0-0.101-0.058-0.159-0.159-0.159H4.786v-0.425h0.511c0.31,0,0.439,0.108,0.439,0.418v2.693
			l0.375-0.288c0.108-0.086,0.302-0.194,0.411-0.316l0.929-1.066h0.598l-1.016,1.246c-0.18,0.224-0.302,0.339-0.302,0.339v0.015
			c0,0,0.101,0.05,0.223,0.266l0.655,1.175c0.065,0.122,0.137,0.158,0.332,0.158h0.194v0.425H7.796c-0.36,0-0.468-0.058-0.626-0.36
			l-0.648-1.224c-0.079-0.145-0.346-0.159-0.454-0.087l-0.331,0.216v1.455h-0.49V15.232z"/>
	</g>
	<g enable-background="new    ">
		<path fill="none" stroke="#3C3C3B" stroke-width="0.1361" stroke-miterlimit="10" d="M5.247,15.232
			c0-0.101-0.058-0.159-0.159-0.159H4.786v-0.425h0.511c0.31,0,0.439,0.108,0.439,0.418v2.693l0.375-0.288
			c0.108-0.086,0.302-0.194,0.411-0.316l0.929-1.066h0.598l-1.016,1.246c-0.18,0.224-0.302,0.339-0.302,0.339v0.015
			c0,0,0.101,0.05,0.223,0.266l0.655,1.175c0.065,0.122,0.137,0.158,0.332,0.158h0.194v0.425H7.796c-0.36,0-0.468-0.058-0.626-0.36
			l-0.648-1.224c-0.079-0.145-0.346-0.159-0.454-0.087l-0.331,0.216v1.455h-0.49V15.232z"/>
	</g>
	<g enable-background="new    ">
		<path fill="#3C3C3B" d="M10.214,16.003c1.059,0,1.916,0.807,1.916,1.88c0,1.095-0.857,1.915-1.908,1.915
			c-1.059,0-1.916-0.82-1.916-1.915C8.306,16.81,9.163,16.003,10.214,16.003z M10.222,19.359c0.771,0,1.404-0.634,1.404-1.477
			c0-0.821-0.634-1.434-1.404-1.434c-0.778,0-1.412,0.612-1.412,1.434C8.81,18.726,9.443,19.359,10.222,19.359z"/>
	</g>
	<g enable-background="new    ">
		<path fill="none" stroke="#3C3C3B" stroke-width="0.1361" stroke-miterlimit="10" d="M10.214,16.003
			c1.059,0,1.916,0.807,1.916,1.88c0,1.095-0.857,1.915-1.908,1.915c-1.059,0-1.916-0.82-1.916-1.915
			C8.306,16.81,9.163,16.003,10.214,16.003z M10.222,19.359c0.771,0,1.404-0.634,1.404-1.477c0-0.821-0.634-1.434-1.404-1.434
			c-0.778,0-1.412,0.612-1.412,1.434C8.81,18.726,9.443,19.359,10.222,19.359z"/>
	</g>
	<g enable-background="new    ">
		<path fill="#3C3C3B" d="M13.043,16.673c0-0.102-0.058-0.158-0.158-0.158h-0.303v-0.426h0.504c0.303,0,0.439,0.123,0.439,0.411
			v0.245c0,0.15-0.014,0.273-0.014,0.273h0.014c0.174-0.548,0.576-0.965,1.146-0.965c0.101,0,0.194,0.021,0.194,0.021v0.482
			c0,0-0.086-0.015-0.18-0.015c-0.512,0-0.894,0.403-1.052,0.937c-0.072,0.23-0.101,0.475-0.101,0.705v1.527h-0.49V16.673z"/>
	</g>
	<g enable-background="new    ">
		<path fill="none" stroke="#3C3C3B" stroke-width="0.1361" stroke-miterlimit="10" d="M13.043,16.673
			c0-0.102-0.058-0.158-0.158-0.158h-0.303v-0.426h0.504c0.303,0,0.439,0.123,0.439,0.411v0.245c0,0.15-0.014,0.273-0.014,0.273
			h0.014c0.174-0.548,0.576-0.965,1.146-0.965c0.101,0,0.194,0.021,0.194,0.021v0.482c0,0-0.086-0.015-0.18-0.015
			c-0.512,0-0.894,0.403-1.052,0.937c-0.072,0.23-0.101,0.475-0.101,0.705v1.527h-0.49V16.673z"/>
	</g>
	<g enable-background="new    ">
		<path fill="#3C3C3B" d="M15.815,16.673c0-0.102-0.057-0.158-0.158-0.158h-0.303v-0.426h0.512c0.31,0,0.439,0.13,0.439,0.426v1.75
			c0,0.568,0.094,1.072,0.792,1.072c0.821,0,1.333-0.727,1.333-1.512v-1.736h0.489v3.04c0,0.107,0.058,0.158,0.159,0.158h0.302
			v0.425h-0.497c-0.303,0-0.439-0.13-0.439-0.403v-0.166c0-0.144,0.015-0.259,0.015-0.259h-0.015
			c-0.145,0.353-0.619,0.914-1.412,0.914c-0.856,0-1.217-0.461-1.217-1.404V16.673z"/>
	</g>
	<g enable-background="new    ">
		<path fill="none" stroke="#3C3C3B" stroke-width="0.1361" stroke-miterlimit="10" d="M15.815,16.673
			c0-0.102-0.057-0.158-0.158-0.158h-0.303v-0.426h0.512c0.31,0,0.439,0.13,0.439,0.426v1.75c0,0.568,0.094,1.072,0.792,1.072
			c0.821,0,1.333-0.727,1.333-1.512v-1.736h0.489v3.04c0,0.107,0.058,0.158,0.159,0.158h0.302v0.425h-0.497
			c-0.303,0-0.439-0.13-0.439-0.403v-0.166c0-0.144,0.015-0.259,0.015-0.259h-0.015c-0.145,0.353-0.619,0.914-1.412,0.914
			c-0.856,0-1.217-0.461-1.217-1.404V16.673z"/>
	</g>
</g>
<g enable-background="new    ">
	<path fill="#3C3C3B" d="M5.405,20.612c0-0.054-0.031-0.085-0.085-0.085H5.159v-0.227h0.273c0.165,0,0.234,0.069,0.234,0.234v0.7
		c0,0.088-0.008,0.157-0.008,0.157h0.008c0,0,0.162-0.369,0.658-0.369c0.519,0,0.842,0.415,0.842,1.016
		c0,0.611-0.365,1.011-0.873,1.011c-0.461,0-0.635-0.373-0.635-0.373H5.651c0,0,0.007,0.065,0.007,0.158v0.169H5.405V20.612z
		 M6.274,22.819c0.342,0,0.623-0.288,0.623-0.78c0-0.474-0.254-0.777-0.611-0.777c-0.323,0-0.627,0.231-0.627,0.781
		C5.659,22.431,5.859,22.819,6.274,22.819z"/>
	<path fill="#3C3C3B" d="M8.432,21.023c0.535,0,0.812,0.412,0.812,0.893c0,0.046-0.008,0.131-0.008,0.131l-1.458,0.211
		c0.008,0.192,0.323,0.558,0.723,0.558c0.354,0,0.581-0.238,0.581-0.238l0.127,0.196c0,0-0.281,0.276-0.719,0.276
		c-0.573,0-1.011-0.415-1.011-1.011C7.479,21.404,7.913,21.023,8.432,21.023z M8.974,21.839c-0.015-0.4-0.261-0.596-0.546-0.596
		c-0.319,0-0.658,0.211-0.677,0.769L8.974,21.839z"/>
	<path fill="#3C3C3B" d="M10.459,21.023c0.469,0,0.631,0.361,0.631,0.361h0.008c0,0-0.008-0.065-0.008-0.146v-0.627
		c0-0.054-0.031-0.085-0.084-0.085h-0.162v-0.227h0.273c0.166,0,0.235,0.069,0.235,0.234v2.157c0,0.058,0.03,0.085,0.084,0.085
		h0.162v0.227h-0.27c-0.161,0-0.23-0.073-0.23-0.215c0-0.073,0.008-0.123,0.008-0.123h-0.008c0,0-0.158,0.384-0.666,0.384
		c-0.519,0-0.842-0.415-0.842-1.015C9.59,21.424,9.952,21.023,10.459,21.023z M11.098,22.035c0-0.393-0.2-0.777-0.615-0.777
		c-0.342,0-0.623,0.289-0.623,0.777c0,0.477,0.25,0.78,0.611,0.78C10.794,22.815,11.098,22.585,11.098,22.035z"/>
	<path fill="#3C3C3B" d="M12.717,21.023c0.469,0,0.631,0.361,0.631,0.361h0.008c0,0-0.008-0.065-0.008-0.146v-0.627
		c0-0.054-0.031-0.085-0.085-0.085h-0.161v-0.227h0.272c0.165,0,0.235,0.069,0.235,0.234v2.157c0,0.058,0.029,0.085,0.084,0.085
		h0.162v0.227h-0.27c-0.162,0-0.23-0.073-0.23-0.215c0-0.073,0.008-0.123,0.008-0.123h-0.008c0,0-0.158,0.384-0.666,0.384
		c-0.519,0-0.842-0.415-0.842-1.015C11.848,21.424,12.209,21.023,12.717,21.023z M13.356,22.035c0-0.393-0.201-0.777-0.615-0.777
		c-0.343,0-0.624,0.289-0.624,0.777c0,0.477,0.25,0.78,0.612,0.78C13.051,22.815,13.356,22.585,13.356,22.035z"/>
	<path fill="#3C3C3B" d="M14.299,21.381c0-0.054-0.031-0.084-0.086-0.084h-0.16v-0.228h0.272c0.165,0,0.234,0.069,0.234,0.235v1.388
		c0,0.058,0.03,0.085,0.085,0.085h0.161v0.227h-0.272c-0.166,0-0.234-0.069-0.234-0.234V21.381z M14.292,20.301h0.254v0.331h-0.254
		V20.301z"/>
	<path fill="#3C3C3B" d="M15.243,21.381c0-0.054-0.03-0.084-0.084-0.084h-0.162v-0.228h0.27c0.162,0,0.234,0.069,0.234,0.216v0.088
		c0,0.077-0.008,0.139-0.008,0.139H15.5c0.07-0.177,0.316-0.488,0.77-0.488c0.48,0,0.65,0.273,0.65,0.75v0.919
		c0,0.058,0.03,0.085,0.084,0.085h0.162v0.227h-0.273c-0.166,0-0.234-0.069-0.234-0.234v-0.927c0-0.304-0.047-0.573-0.42-0.573
		c-0.33,0-0.615,0.227-0.703,0.546c-0.023,0.081-0.031,0.17-0.031,0.262v0.927h-0.262V21.381z"/>
	<path fill="#3C3C3B" d="M18.243,21.023c0.52,0,0.643,0.331,0.643,0.331h0.008c0,0,0-0.035,0-0.073c0-0.139,0.061-0.212,0.219-0.212
		h0.27v0.228h-0.158c-0.054,0-0.084,0.026-0.084,0.084v1.577c0,0.615-0.454,0.854-0.931,0.854c-0.22,0-0.442-0.058-0.631-0.154
		l0.101-0.219c0,0,0.238,0.135,0.522,0.135c0.377,0,0.677-0.177,0.677-0.607v-0.17c0-0.072,0.004-0.138,0.004-0.138h-0.008
		c-0.115,0.211-0.308,0.334-0.607,0.334c-0.52,0-0.861-0.411-0.861-0.992C17.405,21.42,17.723,21.023,18.243,21.023z M18.881,22
		c0-0.564-0.27-0.738-0.611-0.738c-0.377,0-0.596,0.273-0.596,0.734c0,0.462,0.25,0.762,0.631,0.762
		C18.612,22.758,18.881,22.569,18.881,22z"/>
</g>
<g enable-background="new    ">
	<path fill="none" stroke="#3C3C3B" stroke-width="0.085" stroke-miterlimit="10" d="M5.405,20.612c0-0.054-0.031-0.085-0.085-0.085
		H5.159v-0.227h0.273c0.165,0,0.234,0.069,0.234,0.234v0.7c0,0.088-0.008,0.157-0.008,0.157h0.008c0,0,0.162-0.369,0.658-0.369
		c0.519,0,0.842,0.415,0.842,1.016c0,0.611-0.365,1.011-0.873,1.011c-0.461,0-0.635-0.373-0.635-0.373H5.651
		c0,0,0.007,0.065,0.007,0.158v0.169H5.405V20.612z M6.274,22.819c0.342,0,0.623-0.288,0.623-0.78c0-0.474-0.254-0.777-0.611-0.777
		c-0.323,0-0.627,0.231-0.627,0.781C5.659,22.431,5.859,22.819,6.274,22.819z"/>
	<path fill="none" stroke="#3C3C3B" stroke-width="0.085" stroke-miterlimit="10" d="M8.432,21.023c0.535,0,0.812,0.412,0.812,0.893
		c0,0.046-0.008,0.131-0.008,0.131l-1.458,0.211c0.008,0.192,0.323,0.558,0.723,0.558c0.354,0,0.581-0.238,0.581-0.238l0.127,0.196
		c0,0-0.281,0.276-0.719,0.276c-0.573,0-1.011-0.415-1.011-1.011C7.479,21.404,7.913,21.023,8.432,21.023z M8.974,21.839
		c-0.015-0.4-0.261-0.596-0.546-0.596c-0.319,0-0.658,0.211-0.677,0.769L8.974,21.839z"/>
	<path fill="none" stroke="#3C3C3B" stroke-width="0.085" stroke-miterlimit="10" d="M10.459,21.023
		c0.469,0,0.631,0.361,0.631,0.361h0.008c0,0-0.008-0.065-0.008-0.146v-0.627c0-0.054-0.031-0.085-0.084-0.085h-0.162v-0.227h0.273
		c0.166,0,0.235,0.069,0.235,0.234v2.157c0,0.058,0.03,0.085,0.084,0.085h0.162v0.227h-0.27c-0.161,0-0.23-0.073-0.23-0.215
		c0-0.073,0.008-0.123,0.008-0.123h-0.008c0,0-0.158,0.384-0.666,0.384c-0.519,0-0.842-0.415-0.842-1.015
		C9.59,21.424,9.952,21.023,10.459,21.023z M11.098,22.035c0-0.393-0.2-0.777-0.615-0.777c-0.342,0-0.623,0.289-0.623,0.777
		c0,0.477,0.25,0.78,0.611,0.78C10.794,22.815,11.098,22.585,11.098,22.035z"/>
	<path fill="none" stroke="#3C3C3B" stroke-width="0.085" stroke-miterlimit="10" d="M12.717,21.023
		c0.469,0,0.631,0.361,0.631,0.361h0.008c0,0-0.008-0.065-0.008-0.146v-0.627c0-0.054-0.031-0.085-0.085-0.085h-0.161v-0.227h0.272
		c0.165,0,0.235,0.069,0.235,0.234v2.157c0,0.058,0.029,0.085,0.084,0.085h0.162v0.227h-0.27c-0.162,0-0.23-0.073-0.23-0.215
		c0-0.073,0.008-0.123,0.008-0.123h-0.008c0,0-0.158,0.384-0.666,0.384c-0.519,0-0.842-0.415-0.842-1.015
		C11.848,21.424,12.209,21.023,12.717,21.023z M13.356,22.035c0-0.393-0.201-0.777-0.615-0.777c-0.343,0-0.624,0.289-0.624,0.777
		c0,0.477,0.25,0.78,0.612,0.78C13.051,22.815,13.356,22.585,13.356,22.035z"/>
	<path fill="none" stroke="#3C3C3B" stroke-width="0.085" stroke-miterlimit="10" d="M14.299,21.381
		c0-0.054-0.031-0.084-0.086-0.084h-0.16v-0.228h0.272c0.165,0,0.234,0.069,0.234,0.235v1.388c0,0.058,0.03,0.085,0.085,0.085h0.161
		v0.227h-0.272c-0.166,0-0.234-0.069-0.234-0.234V21.381z M14.292,20.301h0.254v0.331h-0.254V20.301z"/>
	<path fill="none" stroke="#3C3C3B" stroke-width="0.085" stroke-miterlimit="10" d="M15.243,21.381c0-0.054-0.03-0.084-0.084-0.084
		h-0.162v-0.228h0.27c0.162,0,0.234,0.069,0.234,0.216v0.088c0,0.077-0.008,0.139-0.008,0.139H15.5
		c0.07-0.177,0.316-0.488,0.77-0.488c0.48,0,0.65,0.273,0.65,0.75v0.919c0,0.058,0.03,0.085,0.084,0.085h0.162v0.227h-0.273
		c-0.166,0-0.234-0.069-0.234-0.234v-0.927c0-0.304-0.047-0.573-0.42-0.573c-0.33,0-0.615,0.227-0.703,0.546
		c-0.023,0.081-0.031,0.17-0.031,0.262v0.927h-0.262V21.381z"/>
	<path fill="none" stroke="#3C3C3B" stroke-width="0.085" stroke-miterlimit="10" d="M18.243,21.023c0.52,0,0.643,0.331,0.643,0.331
		h0.008c0,0,0-0.035,0-0.073c0-0.139,0.061-0.212,0.219-0.212h0.27v0.228h-0.158c-0.054,0-0.084,0.026-0.084,0.084v1.577
		c0,0.615-0.454,0.854-0.931,0.854c-0.22,0-0.442-0.058-0.631-0.154l0.101-0.219c0,0,0.238,0.135,0.522,0.135
		c0.377,0,0.677-0.177,0.677-0.607v-0.17c0-0.072,0.004-0.138,0.004-0.138h-0.008c-0.115,0.211-0.308,0.334-0.607,0.334
		c-0.52,0-0.861-0.411-0.861-0.992C17.405,21.42,17.723,21.023,18.243,21.023z M18.881,22c0-0.564-0.27-0.738-0.611-0.738
		c-0.377,0-0.596,0.273-0.596,0.734c0,0.462,0.25,0.762,0.631,0.762C18.612,22.758,18.881,22.569,18.881,22z"/>
</g>
</svg>
