<?xml version="1.0" encoding="utf-8"?>
<!-- Generator: Adobe Illustrator 16.0.0, SVG Export Plug-In . SVG Version: 6.00 Build 0)  -->
<!DOCTYPE svg PUBLIC "-//W3C//DTD SVG 1.1//EN" "http://www.w3.org/Graphics/SVG/1.1/DTD/svg11.dtd">
<svg version="1.1" id="Layer_1" xmlns="http://www.w3.org/2000/svg" xmlns:xlink="http://www.w3.org/1999/xlink" x="0px" y="0px"
	 width="24.009px" height="24.01px" viewBox="0 0 24.009 24.01" enable-background="new 0 0 24.009 24.01" xml:space="preserve">
<path d="M10.33,13.407c-0.261,0-0.452-0.187-0.465-0.448V9.536H9.265v3.312H9.262l0.002,0.093v0.045l0.002,0.052h0.003
	c0.057,0.548,0.457,0.886,1.054,0.886h0.103l0.009-0.517H10.33z"/>
<path d="M23.17,10.463c-0.287,0.005-0.498,0.09-0.678,0.274v-0.159h-0.527v3.334h0.557V11.83c0-0.547,0.184-0.775,0.653-0.816
	l0.642-0.002l0.002-0.549H23.17z"/>
<path d="M2.686,10.418c-0.442,0-0.85,0.15-1.148,0.425c-0.306,0.284-0.476,0.683-0.476,1.122c0,0.573,0.446,1.186,1.109,1.186
	c0.596,0,0.886-0.368,0.924-0.76c0.03,0.044,0.054,0.126,0.054,0.219c0,0.38-0.462,0.823-1.056,0.823
	c-0.924,0-1.544-0.892-1.544-1.726c0-0.696,0.364-1.247,0.581-1.512l-0.075-0.074c-0.385,0.326-0.843,0.896-0.843,1.766
	c0,0.511,0.203,1.025,0.557,1.409c0.373,0.405,0.871,0.629,1.401,0.629c0.443,0,0.851-0.151,1.147-0.426
	c0.308-0.282,0.477-0.681,0.477-1.122c0-0.573-0.446-1.186-1.109-1.186c-0.596,0-0.886,0.369-0.924,0.762
	c-0.029-0.046-0.053-0.126-0.053-0.22c0-0.381,0.46-0.824,1.055-0.824c0.924,0,1.544,0.893,1.544,1.726
	c0,0.697-0.364,1.247-0.58,1.513l0.075,0.073c0.384-0.325,0.843-0.896,0.843-1.766c0-0.511-0.204-1.023-0.558-1.409
	C3.714,10.641,3.216,10.418,2.686,10.418z"/>
<path d="M13.82,12.916c0,0,0-0.021,0-0.025v-1.325h-0.005V11.45l-0.001-0.044l-0.003-0.052h-0.003
	c-0.062-0.553-0.46-0.894-1.049-0.894h-2.163v0.516h2.156c0.264,0,0.463,0.205,0.464,0.477v1.166
	c-0.094,0.49-0.575,0.778-1.041,0.778c-0.649,0-1.068-0.303-1.068-0.77c0-0.69,0.676-0.653,1.08-0.653h0.276v-0.51h-0.265
	c-1.049,0-1.701,0.352-1.701,1.146c0,0.368,0.135,0.637,0.469,0.927c0.282,0.247,0.685,0.37,1.198,0.37
	c0.529,0,0.956-0.154,1.213-0.435c0.184,0.279,0.509,0.438,0.904,0.438h0.103v-0.514h-0.103
	C14.014,13.397,13.82,13.195,13.82,12.916z"/>
<path d="M8.449,12.916c0,0-0.001-0.021-0.001-0.025v-1.325H8.443V11.45l-0.001-0.044l-0.003-0.052H8.435
	c-0.062-0.553-0.458-0.894-1.049-0.894H5.223v0.516H7.38c0.264,0,0.462,0.205,0.463,0.477v1.166
	c-0.095,0.49-0.575,0.778-1.041,0.778c-0.649,0-1.069-0.303-1.069-0.77c0-0.69,0.677-0.653,1.081-0.653H7.09v-0.51H6.825
	c-1.049,0-1.702,0.352-1.702,1.146c0,0.368,0.136,0.637,0.47,0.927c0.282,0.247,0.685,0.37,1.198,0.37
	c0.528,0,0.957-0.154,1.214-0.435c0.184,0.279,0.509,0.438,0.904,0.438h0.103v-0.514H8.91C8.643,13.397,8.449,13.195,8.449,12.916z"
	/>
<path d="M15.755,12c-0.085-0.037-0.175-0.062-0.261-0.089c-0.13-0.036-0.254-0.073-0.366-0.145
	c-0.147-0.089-0.204-0.188-0.204-0.357c0-0.233,0.179-0.427,0.4-0.427h0.033l0.769,0.001v-0.547h-0.793l-0.05,0.002l-0.017,0.002
	l0,0c-0.516,0.043-0.917,0.476-0.917,0.994c0,0.612,0.357,0.787,0.903,0.981c0.401,0.146,0.537,0.288,0.537,0.564
	c0,0.249-0.192,0.41-0.49,0.41h-0.569v0.536l0.563-0.007c0.641,0,1.089-0.4,1.089-0.976C16.381,12.482,16.183,12.182,15.755,12z"/>
<g>
	<polygon points="17.556,9.531 17.04,9.531 17.04,10.454 16.442,10.454 16.442,10.967 18.162,10.967 18.162,10.454 17.556,10.454 	
		"/>
	<path d="M18.18,10.985h-1.755v-0.549h0.597V9.514h0.551v0.923h0.606V10.985z M16.459,10.949h1.685v-0.479h-0.606V9.549h-0.481
		v0.922h-0.597V10.949z"/>
</g>
<path d="M19.888,10.447c-0.388,0-0.77,0.146-1.076,0.41l-0.143,0.124h1.215c0.682,0,1.177,0.517,1.177,1.226
	c0,0.702-0.492,1.232-1.143,1.232c-0.659,0-1.156-0.527-1.156-1.227c0-0.308,0.093-0.588,0.272-0.812l0.059-0.073h-0.667
	c-0.152,0.269-0.233,0.578-0.233,0.892c0,0.458,0.173,0.894,0.487,1.224c0.323,0.341,0.763,0.529,1.237,0.529
	c0.462,0,0.895-0.188,1.217-0.529c0.318-0.339,0.494-0.789,0.494-1.266C21.63,11.224,20.849,10.447,19.888,10.447z"/>
<path d="M17.962,13.426c-0.017-0.004-0.034-0.009-0.049-0.018c-0.008-0.003-0.017-0.007-0.024-0.01
	c-0.195-0.094-0.316-0.313-0.316-0.572v-1.498h-0.551l0,1.5l0.001,0.07h0.004c0,0.005,0,0.009,0.001,0.016l0,0.006
	c0,0.011,0.002,0.021,0.003,0.031c0,0.009,0.001,0.018,0.003,0.026l0.001,0.009c0.001,0.009,0.002,0.018,0.003,0.027
	c0.001,0.007,0.002,0.014,0.004,0.021l0.002,0.014c0.001,0.008,0.002,0.018,0.004,0.026c0.001,0.007,0.002,0.014,0.004,0.021
	l0.001,0.006c0.001,0.011,0.004,0.021,0.006,0.03c0.002,0.009,0.004,0.018,0.007,0.026c0.002,0.01,0.004,0.021,0.007,0.03
	c0.001,0.006,0.003,0.014,0.005,0.021l0.001,0.006c0.003,0.009,0.005,0.019,0.008,0.028c0.002,0.006,0.005,0.014,0.007,0.021
	l0.001,0.004c0.003,0.009,0.006,0.018,0.01,0.027c0.003,0.008,0.005,0.016,0.01,0.024c0.003,0.009,0.006,0.018,0.01,0.026
	c0.003,0.008,0.007,0.018,0.01,0.024c0.004,0.009,0.008,0.018,0.012,0.026c0.004,0.007,0.007,0.014,0.011,0.022
	c0.004,0.008,0.009,0.016,0.013,0.024c0.004,0.008,0.008,0.014,0.012,0.023c0.004,0.007,0.009,0.016,0.014,0.022
	c0.004,0.008,0.008,0.015,0.012,0.021c0.005,0.009,0.01,0.017,0.015,0.023c0.004,0.008,0.008,0.014,0.013,0.02
	c0.006,0.009,0.011,0.017,0.017,0.023c0.005,0.005,0.009,0.012,0.015,0.02c0.005,0.006,0.01,0.013,0.016,0.021
	c0.005,0.007,0.011,0.012,0.015,0.018c0.006,0.007,0.012,0.014,0.018,0.021c0.005,0.005,0.01,0.012,0.016,0.018
	c0.006,0.006,0.012,0.012,0.019,0.019c0.005,0.005,0.011,0.011,0.017,0.016c0.007,0.007,0.013,0.014,0.021,0.02
	c0.005,0.005,0.011,0.01,0.016,0.015c0.006,0.006,0.014,0.011,0.021,0.017c0.006,0.006,0.012,0.01,0.019,0.015
	c0.007,0.005,0.014,0.011,0.021,0.015l0.002,0.003c0.005,0.004,0.01,0.007,0.016,0.012c0.008,0.004,0.016,0.011,0.022,0.015
	l0.004,0.002c0.006,0.004,0.011,0.006,0.017,0.01c0.007,0.005,0.015,0.009,0.022,0.012l0.004,0.004
	c0.005,0.002,0.011,0.006,0.017,0.009c0.006,0.004,0.014,0.007,0.021,0.012l0.007,0.002c0.005,0.005,0.011,0.007,0.018,0.01
	c0.006,0.002,0.013,0.006,0.02,0.008l0.011,0.005c0.005,0.002,0.011,0.004,0.016,0.007c0.007,0.003,0.013,0.006,0.021,0.007
	l0.012,0.006c0.005,0.001,0.011,0.004,0.017,0.006c0.007,0.002,0.013,0.006,0.021,0.006l0.012,0.005
	c0.005,0.001,0.011,0.003,0.016,0.005c0.007,0.001,0.014,0.004,0.022,0.006l0.014,0.003c0.005,0.002,0.01,0.003,0.016,0.004
	c0.007,0.002,0.015,0.004,0.021,0.004l0.015,0.003c0.005,0.002,0.011,0.003,0.016,0.004c0.008,0.002,0.016,0.003,0.025,0.004
	l0.013,0.001c0.005,0.003,0.011,0.005,0.016,0.005c0.008,0.001,0.018,0.002,0.026,0.002l0.014,0.003c0.005,0,0.01,0,0.015,0.001
	c0.011,0.001,0.023,0.001,0.035,0.003h0.011c0.003,0,0.007,0.001,0.011,0.001c0.02,0.001,0.039,0.001,0.059,0.001h0.068l0.008-0.527
	h-0.071C18.049,13.445,18.005,13.439,17.962,13.426z"/>
</svg>
