<?xml version="1.0" encoding="utf-8"?>
<!-- Generator: Adobe Illustrator 16.0.0, SVG Export Plug-In . SVG Version: 6.00 Build 0)  -->
<!DOCTYPE svg PUBLIC "-//W3C//DTD SVG 1.1//EN" "http://www.w3.org/Graphics/SVG/1.1/DTD/svg11.dtd">
<svg version="1.1"
	 id="svg2" xmlns:rdf="http://www.w3.org/1999/02/22-rdf-syntax-ns#" xmlns:dc="http://purl.org/dc/elements/1.1/" xmlns:cc="http://creativecommons.org/ns#" xmlns:svg="http://www.w3.org/2000/svg"
	 xmlns="http://www.w3.org/2000/svg" xmlns:xlink="http://www.w3.org/1999/xlink" x="0px" y="0px" width="24.008px"
	 height="24.01px" viewBox="0 0 24.008 24.01" enable-background="new 0 0 24.008 24.01" xml:space="preserve">
<path fill="#2E2014" d="M19.996,15.478c-0.412,0-0.609,0.344-0.558,0.672c0.031,0.195-0.02,0.637-0.231,0.883
	c-0.229,0.264-0.609,0.441-1.15,0.441c-0.773,0-1.563-0.393-2.7-1.652c-1.201-1.326-1.47-1.666-2.995-4.178
	c-0.156-0.26-0.116-0.278,0.164-0.524l2.104-1.918c1.648-1.474,2.486-2.014,2.914-2.194c0.396-0.167,0.807-0.245,1.104-0.297
	l0.344-0.064c0.15-0.065,0.167-0.33,0.016-0.409c-0.476,0.015-0.971,0.05-1.774,0.05c-0.708,0-1.267-0.018-1.812-0.05
	c-0.148,0.05-0.18,0.311-0.063,0.409l0.312,0.064c0.215,0.035,0.396,0.099,0.396,0.198c0,0.13-0.182,0.36-1.07,1.208L13.35,9.674
	c-0.604,0.572-1.173,1.049-1.543,1.303c-0.197-0.241-0.407-0.483-0.631-0.749c-0.105-0.124-0.214-0.233-0.322-0.345l1.489-4.672
	c0.47,0.089,0.761,0.284,0.906,0.491c0.23,0.328,0.198,0.904,0.166,1.349c0.064,0.097,0.262,0.115,0.378,0.048
	c0.247-0.756,0.394-1.233,0.445-1.727c-0.229-0.519-0.876-0.812-1.672-0.855l0.447-1.403c0.69-1.622,0.756-1.786,1.727-1.932
	l0.331-0.066c0.18-0.083,0.163-0.344,0.047-0.409c-0.739,0.032-1.25,0.05-1.957,0.05c-0.688,0-1.25-0.018-1.777-0.05
	c-0.181,0.065-0.197,0.278-0.099,0.409l0.379,0.066c0.808,0.132,0.773,0.393,0.28,1.932L11.43,4.596
	c-0.805,0.132-1.64,0.403-2.154,0.719c-0.712,0.438-1.6,1.2-1.525,2.643c0.036,0.675,0.728,1.389,1.674,2.408l-2.282,6.565
	c-0.906-0.188-1.616-0.551-1.969-0.857c-0.51-0.443-0.707-0.906-0.707-1.234c-0.034-0.707,0.542-0.92,0.954-0.855
	c0.198,0.035,0.279,0.018,0.345-0.064c0.066-0.051,0.214-0.199,0.214-0.395c0-0.348-0.247-0.773-0.789-0.773
	c-0.676,0-1.351,0.676-1.351,1.826c0,0.791,0.526,1.762,1.234,2.369c0.691,0.561,1.761,0.939,2.88,0.939
	c2.821,0,4.43-1.594,4.922-3.039c0.097,0.111,0.228,0.271,0.418,0.52c1.364,1.785,3.3,2.654,4.848,2.654
	c1.63,0,2.502-0.902,2.502-1.752C20.638,15.856,20.391,15.478,19.996,15.478z M8.749,7.218c0.006-1.091,1.407-1.778,2.453-1.986
	L9.905,8.967C9.25,8.355,8.748,7.842,8.749,7.218z M10.745,16.599c-0.56,0.32-1.297,0.449-2.365,0.459l1.81-4.908
	c0.097-0.293,0.212-0.424,0.393-0.424c0.018,0,0.036,0.012,0.053,0.012c1.118,1.356,1.359,1.989,1.359,2.903
	C11.996,15.413,11.437,16.204,10.745,16.599z"/>
<g>
	<path d="M1.289,21.932H1.08l-0.785-2.032h-0.19v-0.147h0.875v0.147H0.713l0.558,1.446l0.561-1.446H1.606v-0.147h0.655v0.147H2.075
		L1.289,21.932z"/>
	<path d="M2.937,21.729h0.241v-1.83H2.937v-0.147h0.9v0.147H3.599v1.83h0.238v0.147h-0.9V21.729z"/>
	<path d="M5.668,21.919c-0.146,0-0.282-0.029-0.41-0.087s-0.239-0.136-0.334-0.235c-0.095-0.099-0.17-0.216-0.225-0.351
		c-0.056-0.134-0.083-0.278-0.083-0.432s0.027-0.297,0.083-0.431c0.055-0.133,0.13-0.249,0.225-0.349
		c0.095-0.099,0.206-0.178,0.334-0.235s0.265-0.086,0.41-0.086c0.146,0,0.283,0.028,0.412,0.086s0.241,0.137,0.336,0.235
		c0.095,0.1,0.17,0.216,0.225,0.349c0.055,0.134,0.083,0.277,0.083,0.431s-0.028,0.298-0.083,0.432
		c-0.055,0.135-0.13,0.252-0.225,0.351c-0.095,0.1-0.207,0.178-0.336,0.235S5.814,21.919,5.668,21.919z M5.668,19.909
		c-0.078,0-0.152,0.024-0.223,0.073c-0.071,0.049-0.134,0.115-0.188,0.198c-0.056,0.083-0.1,0.18-0.132,0.288
		c-0.033,0.109-0.049,0.225-0.049,0.346c0,0.122,0.016,0.237,0.049,0.348c0.032,0.109,0.076,0.206,0.132,0.289
		c0.055,0.083,0.117,0.149,0.188,0.198c0.07,0.05,0.145,0.074,0.223,0.074s0.153-0.024,0.226-0.074
		c0.071-0.049,0.135-0.115,0.189-0.198s0.099-0.18,0.132-0.289c0.032-0.11,0.049-0.226,0.049-0.348c0-0.121-0.017-0.236-0.049-0.346
		c-0.033-0.108-0.077-0.205-0.132-0.288s-0.118-0.149-0.189-0.198C5.821,19.934,5.746,19.909,5.668,19.909z"/>
	<path d="M8.554,21.919c-0.146,0-0.282-0.029-0.41-0.087s-0.239-0.136-0.334-0.235c-0.095-0.099-0.17-0.216-0.225-0.351
		c-0.056-0.134-0.083-0.278-0.083-0.432s0.027-0.297,0.083-0.431c0.055-0.133,0.13-0.249,0.225-0.349
		c0.095-0.099,0.206-0.178,0.334-0.235s0.265-0.086,0.41-0.086c0.146,0,0.283,0.028,0.412,0.086s0.241,0.137,0.336,0.235
		c0.095,0.1,0.17,0.216,0.225,0.349c0.055,0.134,0.083,0.277,0.083,0.431s-0.028,0.298-0.083,0.432
		c-0.055,0.135-0.13,0.252-0.225,0.351c-0.095,0.1-0.207,0.178-0.336,0.235S8.7,21.919,8.554,21.919z M8.554,19.909
		c-0.078,0-0.152,0.024-0.223,0.073c-0.071,0.049-0.134,0.115-0.188,0.198c-0.056,0.083-0.1,0.18-0.132,0.288
		c-0.033,0.109-0.049,0.225-0.049,0.346c0,0.122,0.016,0.237,0.049,0.348c0.032,0.109,0.076,0.206,0.132,0.289
		c0.055,0.083,0.117,0.149,0.188,0.198c0.07,0.05,0.145,0.074,0.223,0.074s0.153-0.024,0.226-0.074
		c0.071-0.049,0.135-0.115,0.189-0.198s0.099-0.18,0.132-0.289c0.032-0.11,0.049-0.226,0.049-0.348c0-0.121-0.017-0.236-0.049-0.346
		c-0.033-0.108-0.077-0.205-0.132-0.288s-0.118-0.149-0.189-0.198C8.707,19.934,8.632,19.909,8.554,19.909z"/>
	<path d="M10.421,21.729h0.24v-1.83h-0.24v-0.147h0.899v0.147h-0.237v1.776h0.662v-0.237h0.184v0.438h-1.508V21.729z"/>
	<path d="M12.676,21.877v-0.147h0.24v-1.83h-0.24v-0.147h1.023c0.198,0,0.349,0.045,0.452,0.133
		c0.104,0.089,0.155,0.216,0.155,0.383c0,0.143-0.039,0.256-0.117,0.339s-0.19,0.134-0.339,0.15c0.18,0.02,0.318,0.076,0.415,0.171
		c0.098,0.096,0.146,0.224,0.146,0.386c0,0.182-0.056,0.321-0.169,0.418s-0.274,0.146-0.483,0.146H12.676z M13.338,19.941v0.738
		h0.219c0.044,0,0.086-0.009,0.125-0.028s0.072-0.046,0.102-0.08c0.028-0.034,0.05-0.074,0.066-0.12
		c0.016-0.046,0.023-0.096,0.023-0.148c0-0.111-0.028-0.199-0.086-0.265c-0.057-0.064-0.136-0.097-0.237-0.097H13.338z
		 M13.338,20.869v0.822h0.212c0.285,0,0.428-0.134,0.428-0.4c0-0.128-0.037-0.23-0.112-0.307c-0.075-0.077-0.176-0.115-0.303-0.115
		H13.338z"/>
	<path d="M16.246,21.919c-0.146,0-0.282-0.029-0.41-0.087s-0.239-0.136-0.334-0.235c-0.095-0.099-0.17-0.216-0.225-0.351
		c-0.056-0.134-0.083-0.278-0.083-0.432s0.027-0.297,0.083-0.431c0.055-0.133,0.13-0.249,0.225-0.349
		c0.095-0.099,0.206-0.178,0.334-0.235s0.265-0.086,0.41-0.086c0.146,0,0.283,0.028,0.412,0.086s0.241,0.137,0.336,0.235
		c0.095,0.1,0.17,0.216,0.225,0.349c0.055,0.134,0.083,0.277,0.083,0.431s-0.028,0.298-0.083,0.432
		c-0.055,0.135-0.13,0.252-0.225,0.351c-0.095,0.1-0.207,0.178-0.336,0.235S16.393,21.919,16.246,21.919z M16.246,19.909
		c-0.078,0-0.152,0.024-0.223,0.073c-0.071,0.049-0.134,0.115-0.188,0.198c-0.056,0.083-0.1,0.18-0.132,0.288
		c-0.033,0.109-0.049,0.225-0.049,0.346c0,0.122,0.016,0.237,0.049,0.348c0.032,0.109,0.076,0.206,0.132,0.289
		c0.055,0.083,0.117,0.149,0.188,0.198c0.07,0.05,0.145,0.074,0.223,0.074s0.153-0.024,0.226-0.074
		c0.071-0.049,0.135-0.115,0.189-0.198s0.099-0.18,0.132-0.289c0.032-0.11,0.049-0.226,0.049-0.348c0-0.121-0.017-0.236-0.049-0.346
		c-0.033-0.108-0.077-0.205-0.132-0.288s-0.118-0.149-0.189-0.198C16.399,19.934,16.324,19.909,16.246,19.909z"/>
	<path d="M20,21.096c0,0.187-0.031,0.337-0.095,0.451c-0.063,0.115-0.165,0.205-0.305,0.27c-0.071,0.032-0.146,0.057-0.222,0.075
		c-0.076,0.018-0.155,0.027-0.237,0.027c-0.129,0-0.245-0.018-0.35-0.052s-0.194-0.083-0.27-0.147
		c-0.075-0.063-0.133-0.141-0.173-0.229c-0.04-0.09-0.061-0.191-0.061-0.305v-1.286h-0.24v-0.147h0.899v0.147h-0.237v1.188
		c0,0.081,0.004,0.151,0.011,0.211c0.008,0.06,0.02,0.111,0.036,0.153c0.018,0.043,0.039,0.079,0.067,0.109
		c0.027,0.029,0.061,0.055,0.101,0.076c0.074,0.041,0.161,0.061,0.26,0.061c0.192,0,0.34-0.053,0.442-0.159
		c0.103-0.107,0.153-0.258,0.153-0.451v-1.185h-0.263v-0.15h0.748v0.147H20V21.096z"/>
	<path d="M23.032,19.752v0.147h-0.188l-0.253,0.64l0.339,0.832l0.563-1.472H23.27v-0.147h0.637v0.147h-0.168l-0.785,2.032h-0.209
		l-0.352-0.89l-0.353,0.89h-0.209l-0.785-2.032h-0.19v-0.147h0.779v0.147h-0.171l0.558,1.446l0.247-0.614l-0.329-0.832h-0.165
		v-0.147H23.032z M22.322,19.899l0.146,0.368l0.143-0.368H22.322z"/>
</g>
</svg>
