<?xml version="1.0" encoding="utf-8"?>
<!-- Generator: Adobe Illustrator 16.0.0, SVG Export Plug-In . SVG Version: 6.00 Build 0)  -->
<!DOCTYPE svg PUBLIC "-//W3C//DTD SVG 1.1//EN" "http://www.w3.org/Graphics/SVG/1.1/DTD/svg11.dtd">
<svg version="1.1" id="Layer_1" xmlns="http://www.w3.org/2000/svg" xmlns:xlink="http://www.w3.org/1999/xlink" x="0px" y="0px"
	 width="24.008px" height="24.01px" viewBox="0 0 24.008 24.01" enable-background="new 0 0 24.008 24.01" xml:space="preserve">
<path fill="#51A438" d="M10.465,11.31h1.48l0.334,2.208h7.007c-1.127-2.763-4.229-4.454-7.532-4.454c-3.3,0-6.403,1.691-7.53,4.454
	h5.906L10.465,11.31z"/>
<polygon fill="#808080" points="8.005,6.478 7.679,11.345 15.165,11.353 14.911,6.478 "/>
<path fill="#404040" d="M1.389,16.226c-0.008,0.094-0.008,0.137-0.015,0.217l-0.013,0.021c-0.506,0-0.549,0-1.083,0.01l-0.017-0.021
	c0.006-0.229,0.014-0.572,0.014-1.068c0-0.438-0.008-0.68-0.023-0.907l0.02-0.019c0.154-0.004,0.182-0.004,0.327-0.009l0.017,0.018
	c-0.029,0.531-0.029,1.215-0.029,1.28c0,0.22,0.003,0.335,0.006,0.469c0.314,0,0.4-0.004,0.778-0.014L1.389,16.226z"/>
<path fill="#404040" d="M3.133,16.229c-0.009,0.098-0.009,0.115-0.014,0.213l-0.02,0.021c-0.555,0-0.643,0.003-1.182,0.009
	l-0.015-0.02c0.009-0.225,0.018-0.377,0.018-0.898c0-0.477,0-0.748-0.02-1.076l0.017-0.02c0.56-0.004,0.67-0.004,1.193-0.009
	l0.017,0.021c-0.007,0.084-0.014,0.119-0.021,0.223L3.091,14.71c-0.366-0.01-0.489-0.01-0.85-0.014
	c-0.008,0.262-0.008,0.344-0.008,0.604c0.349,0.005,0.457,0,0.803-0.004l0.015,0.019c-0.012,0.1-0.012,0.127-0.015,0.22L3.02,15.556
	c-0.33-0.008-0.4-0.008-0.787-0.008c-0.006,0.328-0.003,0.406,0,0.68c0.427,0,0.516,0,0.883-0.017L3.133,16.229z"/>
<path fill="#404040" d="M4.542,16.463c-0.194,0-0.208,0.003-0.412,0.009l-0.02-0.02c-0.091-0.318-0.185-0.641-0.282-0.957
	c-0.047-0.163-0.298-0.969-0.311-1.02l0.013-0.019c0.159,0,0.185-0.004,0.327-0.009l0.02,0.021c0.051,0.195,0.068,0.267,0.239,0.897
	l0.247,0.895l0.253-0.893c0.082-0.294,0.165-0.594,0.244-0.893l0.017-0.02c0.137,0,0.151,0,0.284-0.01l0.015,0.021
	c-0.046,0.141-0.264,0.846-0.313,1.006c-0.091,0.283-0.188,0.567-0.269,0.854c-0.013,0.037-0.023,0.073-0.034,0.112L4.542,16.463z"
	/>
<path fill="#404040" d="M6.896,16.229c-0.009,0.098-0.009,0.115-0.014,0.213l-0.02,0.021c-0.554,0-0.642,0.003-1.182,0.009
	l-0.014-0.02c0.008-0.225,0.017-0.377,0.017-0.898c0-0.477,0-0.748-0.02-1.076l0.017-0.02c0.559-0.004,0.67-0.004,1.193-0.009
	L6.89,14.47c-0.008,0.084-0.013,0.119-0.019,0.223L6.854,14.71c-0.366-0.01-0.489-0.01-0.849-0.014
	c-0.009,0.262-0.009,0.344-0.009,0.604c0.35,0.005,0.458,0,0.804-0.004l0.014,0.019c-0.011,0.1-0.011,0.127-0.014,0.22l-0.017,0.021
	c-0.33-0.008-0.401-0.008-0.788-0.008c-0.005,0.328-0.002,0.406,0,0.68c0.429,0,0.518,0,0.883-0.017L6.896,16.229z"/>
<path fill="#404040" d="M9.083,16.442L9.07,16.463c-0.168,0-0.179,0-0.35,0.009l-0.023-0.02c-0.168-0.299-0.335-0.6-0.505-0.896
	l-0.45-0.801l0.028,0.975c0.002,0.119,0.009,0.236,0.011,0.354c0.009,0.235,0.009,0.242,0.015,0.356L7.78,16.463
	c-0.125,0-0.137,0-0.272,0.009l-0.018-0.02c0.012-0.271,0.015-0.543,0.015-0.812c0-0.388-0.002-0.774-0.018-1.162l0.016-0.02
	c0.175-0.004,0.204-0.004,0.365-0.009l0.03,0.021c0.192,0.346,0.391,0.707,0.578,1.036l0.353,0.623l-0.021-0.942
	c-0.012-0.446-0.015-0.512-0.026-0.709l0.018-0.02c0.126,0,0.156-0.004,0.269-0.009l0.017,0.021
	c-0.005,0.346-0.012,0.701-0.012,1.053c0,0.267,0.004,0.535,0.009,0.804V16.442z"/>
<path fill="#404040" d="M10.578,15.326c0.208,0.093,0.483,0.211,0.483,0.575c0,0.317-0.235,0.604-0.73,0.604
	c-0.301,0-0.493-0.092-0.562-0.125L9.757,16.36c0.012-0.101,0.014-0.153,0.023-0.262l0.028-0.014
	c0.071,0.049,0.237,0.169,0.501,0.169c0.292,0,0.415-0.151,0.415-0.321c0-0.197-0.166-0.274-0.35-0.346l-0.142-0.062
	c-0.203-0.096-0.472-0.219-0.472-0.563c0-0.104,0.029-0.213,0.088-0.298c0.131-0.188,0.367-0.249,0.596-0.249
	c0.225,0,0.361,0.042,0.512,0.09l0.014,0.022c-0.011,0.108-0.014,0.146-0.023,0.25l-0.021,0.013
	c-0.122-0.063-0.256-0.132-0.47-0.132c-0.235,0-0.383,0.111-0.383,0.277c0,0.129,0.085,0.188,0.145,0.226
	c0.037,0.022,0.049,0.028,0.219,0.103L10.578,15.326z"/>
<path fill="#404040" d="M13.465,16.463c-0.191,0-0.221,0-0.408,0.009l-0.02-0.02c-0.045-0.283-0.062-0.367-0.103-0.575l-0.233-1.224
	l-0.235,1.158c-0.014,0.078-0.029,0.157-0.045,0.232c-0.022,0.124-0.065,0.332-0.077,0.396l-0.017,0.021
	c-0.205,0-0.216,0.003-0.413,0.01l-0.019-0.021c-0.051-0.257-0.289-1.332-0.442-1.976l0.015-0.02c0.159,0,0.185-0.004,0.324-0.01
	l0.017,0.021c0.017,0.1,0.035,0.189,0.06,0.332c0.023,0.129,0.044,0.254,0.068,0.377l0.207,1.086l0.24-1.259
	c0.039-0.208,0.046-0.241,0.096-0.528l0.017-0.02c0.215-0.004,0.252-0.004,0.452-0.01l0.016,0.021
	c0.004,0.021,0.007,0.045,0.011,0.071c0.011,0.071,0.075,0.438,0.093,0.534l0.225,1.197l0.223-1.121
	c0.104-0.549,0.107-0.561,0.122-0.676l0.016-0.019c0.132,0,0.16-0.004,0.28-0.009l0.014,0.021c-0.064,0.224-0.082,0.3-0.238,0.987
	c-0.07,0.311-0.147,0.617-0.211,0.926c-0.002,0.021-0.008,0.041-0.011,0.061L13.465,16.463z"/>
<path fill="#404040" d="M15.668,16.229c-0.01,0.098-0.01,0.115-0.015,0.213l-0.019,0.021c-0.555,0-0.643,0.003-1.182,0.009
	l-0.015-0.02c0.007-0.225,0.017-0.377,0.017-0.898c0-0.477,0-0.748-0.02-1.076l0.018-0.02c0.56-0.004,0.67-0.004,1.192-0.009
	l0.017,0.021c-0.008,0.084-0.014,0.119-0.019,0.223l-0.019,0.019c-0.367-0.01-0.488-0.01-0.849-0.013
	c-0.009,0.261-0.009,0.343-0.009,0.604c0.35,0.004,0.457,0,0.803-0.004l0.016,0.02c-0.012,0.099-0.012,0.127-0.016,0.219
	l-0.017,0.02c-0.329-0.007-0.401-0.007-0.786-0.007c-0.006,0.328-0.003,0.406,0,0.679c0.429,0,0.518,0,0.883-0.016L15.668,16.229z"
	/>
<path fill="#404040" d="M16.602,16.463c-0.161,0-0.165,0-0.312,0.009l-0.017-0.02c0.009-0.275,0.011-0.555,0.011-0.83
	c0-0.637-0.011-0.861-0.027-1.146l0.017-0.019h0.071c0.051,0,0.189-0.004,0.287-0.004l0.173-0.001c0.155,0,0.306,0,0.444,0.047
	c0.219,0.072,0.359,0.23,0.359,0.503c0,0.228-0.123,0.457-0.486,0.558c0.047,0.066,0.27,0.39,0.32,0.463
	c0.088,0.125,0.129,0.183,0.305,0.414l-0.012,0.028c-0.056,0-0.115,0-0.172,0.004c-0.061,0.003-0.121,0.005-0.18,0.011l-0.02-0.015
	c-0.012-0.021-0.023-0.039-0.035-0.062c-0.082-0.144-0.179-0.28-0.27-0.418c-0.17-0.258-0.188-0.287-0.255-0.379
	c-0.089,0.002-0.106,0.006-0.205,0.002c0,0.158,0.002,0.596,0.021,0.832L16.602,16.463z M17.183,15.269
	c0.069-0.062,0.106-0.147,0.106-0.238c0-0.062-0.014-0.133-0.055-0.196c-0.09-0.14-0.242-0.147-0.456-0.147
	c-0.038,0-0.088,0-0.187,0.002c-0.002,0.33-0.002,0.375,0,0.69C16.81,15.381,17.045,15.386,17.183,15.269z"/>
<path fill="#404040" d="M19.721,14.472c-0.18,0.211-0.502,0.598-0.73,0.885c0.268,0.365,0.547,0.725,0.836,1.076l-0.018,0.03
	c-0.167,0-0.186,0-0.367,0.009l-0.025-0.016c-0.156-0.23-0.692-0.941-0.767-1.034c0,0.142,0.003,0.675,0.022,1.021l-0.016,0.021
	c-0.162,0-0.169,0-0.316,0.01l-0.014-0.021c0.012-0.313,0.012-0.376,0.012-1.159c0-0.424-0.006-0.591-0.022-0.816l0.017-0.019
	c0.153-0.004,0.176-0.004,0.318-0.009l0.016,0.021c-0.016,0.438-0.016,0.521-0.016,0.905c0.023-0.026,0.046-0.054,0.068-0.083
	c0.015-0.018,0.512-0.634,0.64-0.818l0.022-0.017c0.158,0,0.174-0.004,0.324-0.009L19.721,14.472z"/>
<path fill="#404040" d="M21.549,16.229c-0.008,0.098-0.008,0.115-0.014,0.213l-0.019,0.021c-0.554,0-0.642,0.003-1.183,0.009
	l-0.014-0.02c0.01-0.225,0.016-0.377,0.016-0.898c0-0.477,0-0.748-0.019-1.076l0.017-0.02c0.561-0.004,0.67-0.004,1.193-0.009
	l0.018,0.021c-0.01,0.084-0.014,0.119-0.021,0.223l-0.017,0.019c-0.368-0.01-0.489-0.01-0.85-0.013
	c-0.009,0.261-0.009,0.343-0.009,0.604c0.351,0.004,0.457,0,0.804-0.004l0.014,0.02c-0.01,0.099-0.01,0.127-0.014,0.219l-0.019,0.02
	c-0.329-0.007-0.399-0.007-0.786-0.007c-0.007,0.328-0.004,0.406,0,0.679c0.43,0,0.518,0,0.883-0.016L21.549,16.229z"/>
<path fill="#404040" d="M23.738,16.442l-0.014,0.021c-0.168,0-0.181,0-0.351,0.009l-0.021-0.02c-0.168-0.299-0.336-0.6-0.506-0.896
	l-0.448-0.801l0.028,0.975c0.002,0.119,0.008,0.236,0.011,0.354c0.008,0.235,0.008,0.242,0.015,0.356l-0.018,0.021
	c-0.125,0-0.137,0-0.271,0.01l-0.018-0.021c0.012-0.271,0.016-0.543,0.016-0.812c0-0.389-0.004-0.775-0.018-1.164l0.014-0.019
	c0.176-0.004,0.204-0.004,0.366-0.009l0.028,0.021c0.193,0.347,0.393,0.707,0.578,1.036l0.354,0.623l-0.023-0.943
	c-0.01-0.445-0.014-0.511-0.025-0.709l0.018-0.019c0.129,0,0.156-0.004,0.271-0.009l0.017,0.021
	c-0.005,0.347-0.011,0.701-0.011,1.052c0,0.268,0.001,0.535,0.008,0.805L23.738,16.442z"/>
<rect x="8.034" y="4.257" fill="#51A438" width="6.796" height="2.172"/>
<g>
	<path d="M8.479,3.074l0.266,0.184c0.188-0.267,0.522-0.435,0.872-0.435c0.343,0,0.64,0.155,0.836,0.435l0.266-0.184
		c-0.255-0.365-0.656-0.573-1.102-0.573C9.162,2.501,8.727,2.719,8.479,3.074z"/>
</g>
<g>
	<path d="M11.971,3.194l0.267,0.187c0.187-0.27,0.521-0.436,0.871-0.436c0.343,0,0.64,0.153,0.836,0.436l0.267-0.187
		c-0.256-0.365-0.656-0.575-1.103-0.575C12.655,2.619,12.219,2.839,11.971,3.194z"/>
</g>
<path d="M9.68,4.646c-0.174,0-0.315,0.141-0.315,0.315S9.506,5.275,9.68,5.275c0.174,0,0.316-0.141,0.316-0.314
	C9.997,4.787,9.854,4.646,9.68,4.646z M9.68,4.97L9.672,4.962c0-0.006,0.003-0.009,0.008-0.009C9.689,4.967,9.685,4.97,9.68,4.97z
	 M12.599,4.622c-0.175,0-0.316,0.142-0.316,0.315s0.141,0.315,0.316,0.315c0.173,0,0.313-0.143,0.313-0.315
	C12.915,4.764,12.772,4.622,12.599,4.622z M12.599,4.944l-0.011-0.007c0-0.005,0.004-0.009,0.011-0.009
	C12.606,4.942,12.603,4.944,12.599,4.944z"/>
<path d="M15.732,10.822L15.18,3.845h-3.938c0.057-0.529,0.096-0.894,0.096-0.894l-0.323-0.037l-0.098,0.931h-1.84L7.97,4.127H7.96
	l-0.453,7.379h7.832v-0.03L15.732,10.822z M8.134,6.57h2.489l-0.136,1.274l-0.019,0.179c0,0,0.884,0.007,1.098,0.011
	c0.01,0.085,0.05,0.448,0.102,0.898c-0.087,0.004-0.176,0.011-0.264,0.011c-1.344,0.005-2.547-0.562-3.32-1.56
	C8.103,7.106,8.119,6.833,8.134,6.57z M11.406,9.268c0.1-0.001,0.2-0.004,0.299-0.01c0.089,0.791,0.192,1.709,0.216,1.924h-1.449
	l0.208-1.967C10.917,9.248,11.159,9.268,11.406,9.268z M11.857,7.711c0,0-0.78-0.006-1.028-0.007
	c0.011-0.099,0.059-0.547,0.123-1.134h3.759c0.018,0.268,0.035,0.548,0.052,0.832c-0.63,0.808-1.651,1.353-2.771,1.499L11.857,7.711
	z M14.581,4.451c0.006,0.095,0.053,0.835,0.111,1.796h-3.707c0.062-0.571,0.131-1.223,0.192-1.796H14.581z M10.851,4.451
	l-0.192,1.796H8.155c0.059-0.961,0.104-1.701,0.109-1.796H10.851z M8.056,7.854c0.607,0.66,1.406,1.11,2.305,1.305l-0.215,2.022
	H7.852C7.862,11.023,7.959,9.443,8.056,7.854z M12.249,11.182l-0.22-1.959c1.079-0.138,2.075-0.626,2.763-1.354
	c0.098,1.586,0.193,3.155,0.205,3.313H12.249z"/>
<g enable-background="new    ">
	<path fill="#3D3732" d="M0.534,17.29H0.67l0.398,1.274H0.913l-0.121-0.44H0.413l-0.121,0.44H0.14L0.534,17.29z M0.6,17.445
		l-0.158,0.575h0.319L0.6,17.445z"/>
	<path fill="#3D3732" d="M1.716,17.29h0.129v1.274H1.716v-0.122c-0.032,0.047-0.069,0.083-0.109,0.106s-0.085,0.036-0.134,0.036
		c-0.103,0-0.186-0.045-0.25-0.136c-0.063-0.09-0.095-0.194-0.095-0.313c0-0.127,0.035-0.237,0.105-0.327
		c0.07-0.09,0.159-0.135,0.268-0.135c0.035,0,0.07,0.007,0.106,0.021c0.036,0.014,0.072,0.036,0.109,0.063V17.29z M1.716,17.869
		c-0.027-0.029-0.056-0.051-0.087-0.065c-0.031-0.014-0.065-0.021-0.102-0.021c-0.076,0-0.139,0.032-0.189,0.097
		c-0.051,0.065-0.076,0.15-0.076,0.256c0,0.1,0.022,0.183,0.066,0.247c0.044,0.065,0.101,0.098,0.17,0.098
		c0.061,0,0.112-0.023,0.155-0.072c0.042-0.049,0.063-0.108,0.063-0.183V17.869z"/>
	<path fill="#3D3732" d="M1.959,17.693H2.1l0.231,0.727l0.224-0.727h0.138L2.39,18.564H2.265L1.959,17.693z"/>
	<path fill="#3D3732" d="M2.88,17.309c0.051,0,0.076,0.034,0.076,0.103c0,0.071-0.026,0.108-0.078,0.108
		c-0.05,0-0.075-0.035-0.075-0.104C2.803,17.343,2.829,17.309,2.88,17.309z M2.814,17.693h0.129v0.871H2.814V17.693z"/>
	<path fill="#3D3732" d="M3.809,18.473c-0.104,0.074-0.206,0.112-0.305,0.112c-0.116,0-0.21-0.042-0.282-0.125
		s-0.108-0.191-0.108-0.325c0-0.138,0.037-0.248,0.111-0.334c0.074-0.084,0.167-0.127,0.281-0.127c0.101,0,0.181,0.034,0.242,0.103
		c0.061,0.068,0.091,0.155,0.091,0.26v0.057H3.248v0.045c0,0.113,0.026,0.199,0.079,0.257s0.115,0.087,0.186,0.087
		c0.098,0,0.197-0.049,0.296-0.146V18.473z M3.702,17.995c-0.003-0.072-0.024-0.126-0.062-0.162
		c-0.039-0.036-0.084-0.055-0.136-0.055c-0.053,0-0.102,0.019-0.146,0.055c-0.045,0.036-0.078,0.09-0.097,0.162H3.702z"/>
	<path fill="#3D3732" d="M3.972,18.375c0.095,0.07,0.187,0.104,0.273,0.104c0.067,0,0.123-0.016,0.166-0.046
		c0.044-0.029,0.065-0.067,0.065-0.115c0-0.033-0.014-0.061-0.043-0.083c-0.029-0.023-0.085-0.046-0.168-0.067
		c-0.102-0.027-0.177-0.059-0.224-0.094c-0.047-0.035-0.071-0.085-0.071-0.147c0-0.072,0.032-0.132,0.095-0.181
		c0.063-0.048,0.142-0.072,0.236-0.072c0.075,0,0.16,0.023,0.256,0.07v0.129c-0.082-0.062-0.165-0.095-0.25-0.095
		c-0.059,0-0.107,0.015-0.145,0.043c-0.038,0.027-0.057,0.062-0.057,0.102c0,0.033,0.017,0.062,0.051,0.082
		c0.034,0.022,0.089,0.043,0.167,0.062c0.191,0.047,0.287,0.128,0.287,0.243c0,0.077-0.035,0.143-0.105,0.194
		c-0.07,0.054-0.155,0.08-0.254,0.08c-0.092,0-0.185-0.026-0.278-0.08V18.375z"/>
</g>
<g enable-background="new    ">
	<path fill="none" stroke="#3D3732" stroke-width="0.0301" stroke-miterlimit="10" d="M0.534,17.29H0.67l0.398,1.274H0.913
		l-0.121-0.44H0.413l-0.121,0.44H0.14L0.534,17.29z M0.6,17.445l-0.158,0.575h0.319L0.6,17.445z"/>
	<path fill="none" stroke="#3D3732" stroke-width="0.0301" stroke-miterlimit="10" d="M1.716,17.29h0.129v1.274H1.716v-0.122
		c-0.032,0.047-0.069,0.083-0.109,0.106s-0.085,0.036-0.134,0.036c-0.103,0-0.186-0.045-0.25-0.136
		c-0.063-0.09-0.095-0.194-0.095-0.313c0-0.127,0.035-0.237,0.105-0.327c0.07-0.09,0.159-0.135,0.268-0.135
		c0.035,0,0.07,0.007,0.106,0.021c0.036,0.014,0.072,0.036,0.109,0.063V17.29z M1.716,17.869c-0.027-0.029-0.056-0.051-0.087-0.065
		c-0.031-0.014-0.065-0.021-0.102-0.021c-0.076,0-0.139,0.032-0.189,0.097c-0.051,0.065-0.076,0.15-0.076,0.256
		c0,0.1,0.022,0.183,0.066,0.247c0.044,0.065,0.101,0.098,0.17,0.098c0.061,0,0.112-0.023,0.155-0.072
		c0.042-0.049,0.063-0.108,0.063-0.183V17.869z"/>
	<path fill="none" stroke="#3D3732" stroke-width="0.0301" stroke-miterlimit="10" d="M1.959,17.693H2.1l0.231,0.727l0.224-0.727
		h0.138L2.39,18.564H2.265L1.959,17.693z"/>
	<path fill="none" stroke="#3D3732" stroke-width="0.0301" stroke-miterlimit="10" d="M2.88,17.309c0.051,0,0.076,0.034,0.076,0.103
		c0,0.071-0.026,0.108-0.078,0.108c-0.05,0-0.075-0.035-0.075-0.104C2.803,17.343,2.829,17.309,2.88,17.309z M2.814,17.693h0.129
		v0.871H2.814V17.693z"/>
	<path fill="none" stroke="#3D3732" stroke-width="0.0301" stroke-miterlimit="10" d="M3.809,18.473
		c-0.104,0.074-0.206,0.112-0.305,0.112c-0.116,0-0.21-0.042-0.282-0.125s-0.108-0.191-0.108-0.325c0-0.138,0.037-0.248,0.111-0.334
		c0.074-0.084,0.167-0.127,0.281-0.127c0.101,0,0.181,0.034,0.242,0.103c0.061,0.068,0.091,0.155,0.091,0.26v0.057H3.248v0.045
		c0,0.113,0.026,0.199,0.079,0.257s0.115,0.087,0.186,0.087c0.098,0,0.197-0.049,0.296-0.146V18.473z M3.702,17.995
		c-0.003-0.072-0.024-0.126-0.062-0.162c-0.039-0.036-0.084-0.055-0.136-0.055c-0.053,0-0.102,0.019-0.146,0.055
		c-0.045,0.036-0.078,0.09-0.097,0.162H3.702z"/>
	<path fill="none" stroke="#3D3732" stroke-width="0.0301" stroke-miterlimit="10" d="M3.972,18.375
		c0.095,0.07,0.187,0.104,0.273,0.104c0.067,0,0.123-0.016,0.166-0.046c0.044-0.029,0.065-0.067,0.065-0.115
		c0-0.033-0.014-0.061-0.043-0.083c-0.029-0.023-0.085-0.046-0.168-0.067c-0.102-0.027-0.177-0.059-0.224-0.094
		c-0.047-0.035-0.071-0.085-0.071-0.147c0-0.072,0.032-0.132,0.095-0.181c0.063-0.048,0.142-0.072,0.236-0.072
		c0.075,0,0.16,0.023,0.256,0.07v0.129c-0.082-0.062-0.165-0.095-0.25-0.095c-0.059,0-0.107,0.015-0.145,0.043
		c-0.038,0.027-0.057,0.062-0.057,0.102c0,0.033,0.017,0.062,0.051,0.082c0.034,0.022,0.089,0.043,0.167,0.062
		c0.191,0.047,0.287,0.128,0.287,0.243c0,0.077-0.035,0.143-0.105,0.194c-0.07,0.054-0.155,0.08-0.254,0.08
		c-0.092,0-0.185-0.026-0.278-0.08V18.375z"/>
</g>
<g enable-background="new    ">
	<path fill="#3D3732" d="M4.834,17.693h0.14l0.231,0.727l0.224-0.727h0.138l-0.302,0.871H5.14L4.834,17.693z"/>
	<path fill="#3D3732" d="M6.026,17.674c0.107,0,0.196,0.042,0.268,0.124c0.072,0.083,0.107,0.194,0.107,0.331
		c0,0.079-0.014,0.154-0.042,0.224c-0.028,0.07-0.072,0.127-0.131,0.169c-0.06,0.042-0.128,0.063-0.207,0.063
		c-0.117,0-0.208-0.043-0.276-0.129s-0.101-0.194-0.101-0.323c0-0.103,0.021-0.191,0.063-0.267c0.042-0.075,0.094-0.125,0.155-0.152
		S5.978,17.674,6.026,17.674z M6.034,17.781c-0.085,0-0.149,0.032-0.193,0.098c-0.043,0.064-0.064,0.152-0.064,0.264
		c0,0.095,0.021,0.175,0.063,0.24c0.042,0.064,0.102,0.097,0.179,0.097c0.072,0,0.132-0.03,0.179-0.09
		c0.047-0.061,0.07-0.147,0.07-0.263c0-0.11-0.023-0.194-0.068-0.256C6.154,17.812,6.099,17.781,6.034,17.781z"/>
	<path fill="#3D3732" d="M6.922,17.674c0.107,0,0.196,0.042,0.268,0.124c0.072,0.083,0.107,0.194,0.107,0.331
		c0,0.079-0.014,0.154-0.042,0.224c-0.028,0.07-0.072,0.127-0.131,0.169c-0.06,0.042-0.128,0.063-0.207,0.063
		c-0.117,0-0.208-0.043-0.276-0.129S6.54,18.262,6.54,18.133c0-0.103,0.021-0.191,0.063-0.267c0.042-0.075,0.094-0.125,0.155-0.152
		S6.874,17.674,6.922,17.674z M6.93,17.781c-0.085,0-0.149,0.032-0.193,0.098c-0.043,0.064-0.064,0.152-0.064,0.264
		c0,0.095,0.021,0.175,0.063,0.24c0.042,0.064,0.102,0.097,0.179,0.097c0.072,0,0.132-0.03,0.179-0.09
		c0.047-0.061,0.07-0.147,0.07-0.263c0-0.11-0.023-0.194-0.068-0.256C7.05,17.812,6.995,17.781,6.93,17.781z"/>
	<path fill="#3D3732" d="M7.617,17.822c0.03-0.049,0.065-0.087,0.103-0.112c0.038-0.024,0.08-0.036,0.125-0.036
		c0.033,0,0.067,0.007,0.102,0.02v0.108c-0.04-0.014-0.073-0.021-0.101-0.021c-0.065,0-0.119,0.027-0.163,0.081
		c-0.044,0.055-0.065,0.116-0.065,0.188v0.515H7.491v-0.871h0.115L7.617,17.822z"/>
</g>
<g enable-background="new    ">
	<path fill="none" stroke="#3D3732" stroke-width="0.0301" stroke-miterlimit="10" d="M4.834,17.693h0.14l0.231,0.727l0.224-0.727
		h0.138l-0.302,0.871H5.14L4.834,17.693z"/>
	<path fill="none" stroke="#3D3732" stroke-width="0.0301" stroke-miterlimit="10" d="M6.026,17.674
		c0.107,0,0.196,0.042,0.268,0.124c0.072,0.083,0.107,0.194,0.107,0.331c0,0.079-0.014,0.154-0.042,0.224
		c-0.028,0.07-0.072,0.127-0.131,0.169c-0.06,0.042-0.128,0.063-0.207,0.063c-0.117,0-0.208-0.043-0.276-0.129
		s-0.101-0.194-0.101-0.323c0-0.103,0.021-0.191,0.063-0.267c0.042-0.075,0.094-0.125,0.155-0.152S5.978,17.674,6.026,17.674z
		 M6.034,17.781c-0.085,0-0.149,0.032-0.193,0.098c-0.043,0.064-0.064,0.152-0.064,0.264c0,0.095,0.021,0.175,0.063,0.24
		c0.042,0.064,0.102,0.097,0.179,0.097c0.072,0,0.132-0.03,0.179-0.09c0.047-0.061,0.07-0.147,0.07-0.263
		c0-0.11-0.023-0.194-0.068-0.256C6.154,17.812,6.099,17.781,6.034,17.781z"/>
	<path fill="none" stroke="#3D3732" stroke-width="0.0301" stroke-miterlimit="10" d="M6.922,17.674
		c0.107,0,0.196,0.042,0.268,0.124c0.072,0.083,0.107,0.194,0.107,0.331c0,0.079-0.014,0.154-0.042,0.224
		c-0.028,0.07-0.072,0.127-0.131,0.169c-0.06,0.042-0.128,0.063-0.207,0.063c-0.117,0-0.208-0.043-0.276-0.129
		S6.54,18.262,6.54,18.133c0-0.103,0.021-0.191,0.063-0.267c0.042-0.075,0.094-0.125,0.155-0.152S6.874,17.674,6.922,17.674z
		 M6.93,17.781c-0.085,0-0.149,0.032-0.193,0.098c-0.043,0.064-0.064,0.152-0.064,0.264c0,0.095,0.021,0.175,0.063,0.24
		c0.042,0.064,0.102,0.097,0.179,0.097c0.072,0,0.132-0.03,0.179-0.09c0.047-0.061,0.07-0.147,0.07-0.263
		c0-0.11-0.023-0.194-0.068-0.256C7.05,17.812,6.995,17.781,6.93,17.781z"/>
	<path fill="none" stroke="#3D3732" stroke-width="0.0301" stroke-miterlimit="10" d="M7.617,17.822
		c0.03-0.049,0.065-0.087,0.103-0.112c0.038-0.024,0.08-0.036,0.125-0.036c0.033,0,0.067,0.007,0.102,0.02v0.108
		c-0.04-0.014-0.073-0.021-0.101-0.021c-0.065,0-0.119,0.027-0.163,0.081c-0.044,0.055-0.065,0.116-0.065,0.188v0.515H7.491v-0.871
		h0.115L7.617,17.822z"/>
</g>
<g enable-background="new    ">
	<path fill="#3D3732" d="M8.838,17.29h0.129v1.274H8.838v-0.122c-0.032,0.047-0.069,0.083-0.109,0.106s-0.085,0.036-0.134,0.036
		c-0.103,0-0.186-0.045-0.25-0.136c-0.063-0.09-0.095-0.194-0.095-0.313c0-0.127,0.035-0.237,0.105-0.327
		c0.07-0.09,0.159-0.135,0.268-0.135c0.035,0,0.07,0.007,0.106,0.021c0.036,0.014,0.072,0.036,0.109,0.063V17.29z M8.838,17.869
		c-0.027-0.029-0.056-0.051-0.087-0.065c-0.031-0.014-0.065-0.021-0.102-0.021c-0.076,0-0.139,0.032-0.189,0.097
		c-0.051,0.065-0.076,0.15-0.076,0.256c0,0.1,0.022,0.183,0.066,0.247c0.044,0.065,0.101,0.098,0.17,0.098
		c0.061,0,0.112-0.023,0.155-0.072c0.042-0.049,0.063-0.108,0.063-0.183V17.869z"/>
	<path fill="#3D3732" d="M9.839,18.473c-0.104,0.074-0.206,0.112-0.305,0.112c-0.116,0-0.21-0.042-0.282-0.125
		s-0.108-0.191-0.108-0.325c0-0.138,0.037-0.248,0.111-0.334c0.074-0.084,0.167-0.127,0.281-0.127c0.101,0,0.181,0.034,0.242,0.103
		c0.061,0.068,0.091,0.155,0.091,0.26v0.057H9.278v0.045c0,0.113,0.026,0.199,0.079,0.257s0.115,0.087,0.186,0.087
		c0.098,0,0.197-0.049,0.296-0.146V18.473z M9.732,17.995c-0.003-0.072-0.024-0.126-0.062-0.162
		c-0.039-0.036-0.084-0.055-0.136-0.055c-0.053,0-0.102,0.019-0.146,0.055c-0.045,0.036-0.078,0.09-0.097,0.162H9.732z"/>
</g>
<g enable-background="new    ">
	<path fill="none" stroke="#3D3732" stroke-width="0.0301" stroke-miterlimit="10" d="M8.838,17.29h0.129v1.274H8.838v-0.122
		c-0.032,0.047-0.069,0.083-0.109,0.106s-0.085,0.036-0.134,0.036c-0.103,0-0.186-0.045-0.25-0.136
		c-0.063-0.09-0.095-0.194-0.095-0.313c0-0.127,0.035-0.237,0.105-0.327c0.07-0.09,0.159-0.135,0.268-0.135
		c0.035,0,0.07,0.007,0.106,0.021c0.036,0.014,0.072,0.036,0.109,0.063V17.29z M8.838,17.869c-0.027-0.029-0.056-0.051-0.087-0.065
		c-0.031-0.014-0.065-0.021-0.102-0.021c-0.076,0-0.139,0.032-0.189,0.097c-0.051,0.065-0.076,0.15-0.076,0.256
		c0,0.1,0.022,0.183,0.066,0.247c0.044,0.065,0.101,0.098,0.17,0.098c0.061,0,0.112-0.023,0.155-0.072
		c0.042-0.049,0.063-0.108,0.063-0.183V17.869z"/>
	<path fill="none" stroke="#3D3732" stroke-width="0.0301" stroke-miterlimit="10" d="M9.839,18.473
		c-0.104,0.074-0.206,0.112-0.305,0.112c-0.116,0-0.21-0.042-0.282-0.125s-0.108-0.191-0.108-0.325c0-0.138,0.037-0.248,0.111-0.334
		c0.074-0.084,0.167-0.127,0.281-0.127c0.101,0,0.181,0.034,0.242,0.103c0.061,0.068,0.091,0.155,0.091,0.26v0.057H9.278v0.045
		c0,0.113,0.026,0.199,0.079,0.257s0.115,0.087,0.186,0.087c0.098,0,0.197-0.049,0.296-0.146V18.473z M9.732,17.995
		c-0.003-0.072-0.024-0.126-0.062-0.162c-0.039-0.036-0.084-0.055-0.136-0.055c-0.053,0-0.102,0.019-0.146,0.055
		c-0.045,0.036-0.078,0.09-0.097,0.162H9.732z"/>
</g>
<g enable-background="new    ">
	<path fill="#3D3732" d="M10.224,17.693h0.14l0.231,0.727l0.224-0.727h0.138l-0.302,0.871h-0.125L10.224,17.693z"/>
	<path fill="#3D3732" d="M11.145,17.309c0.051,0,0.076,0.034,0.076,0.103c0,0.071-0.026,0.108-0.078,0.108
		c-0.05,0-0.075-0.035-0.075-0.104C11.067,17.343,11.093,17.309,11.145,17.309z M11.079,17.693h0.129v0.871h-0.129V17.693z"/>
	<path fill="#3D3732" d="M11.473,17.434h0.116v0.26h0.185v0.1h-0.185v0.608c0,0.026,0.007,0.046,0.022,0.059s0.038,0.02,0.067,0.02
		c0.027,0,0.059-0.01,0.095-0.029v0.114c-0.045,0.013-0.089,0.021-0.132,0.021c-0.053,0-0.096-0.015-0.129-0.041
		c-0.034-0.028-0.05-0.069-0.05-0.125v-0.626h-0.134v-0.1h0.134L11.473,17.434z"/>
	<path fill="#3D3732" d="M11.958,17.752c0.104-0.052,0.192-0.078,0.263-0.078c0.103,0,0.18,0.026,0.232,0.079
		c0.052,0.054,0.08,0.126,0.08,0.216v0.461c0,0.033,0.018,0.05,0.053,0.05c0.018,0,0.037-0.005,0.055-0.014v0.099
		c-0.032,0.013-0.066,0.021-0.1,0.021c-0.089,0-0.135-0.047-0.138-0.14c-0.033,0.046-0.07,0.081-0.111,0.104
		s-0.085,0.035-0.133,0.035c-0.078,0-0.143-0.025-0.195-0.076s-0.079-0.112-0.079-0.186c0-0.077,0.033-0.142,0.098-0.192
		c0.065-0.052,0.206-0.086,0.421-0.104v-0.074c0-0.05-0.018-0.091-0.054-0.122c-0.036-0.032-0.08-0.049-0.133-0.049
		c-0.076,0-0.162,0.033-0.258,0.102V17.752z M12.404,18.114c-0.168,0.019-0.274,0.045-0.319,0.078s-0.067,0.076-0.067,0.127
		c0,0.047,0.016,0.085,0.049,0.114c0.033,0.03,0.074,0.046,0.124,0.046c0.062,0,0.113-0.023,0.153-0.069
		c0.04-0.047,0.06-0.106,0.06-0.179V18.114z"/>
	<path fill="#3D3732" d="M12.78,17.29h0.129v1.274H12.78V17.29z"/>
	<path fill="#3D3732" d="M13.776,18.473c-0.104,0.074-0.205,0.112-0.305,0.112c-0.115,0-0.209-0.042-0.281-0.125
		s-0.107-0.191-0.107-0.325c0-0.138,0.037-0.248,0.111-0.334c0.073-0.084,0.167-0.127,0.28-0.127c0.101,0,0.181,0.034,0.241,0.103
		s0.092,0.155,0.092,0.26v0.057h-0.592v0.045c0,0.113,0.026,0.199,0.079,0.257s0.114,0.087,0.187,0.087
		c0.098,0,0.196-0.049,0.295-0.146V18.473z M13.67,17.995c-0.004-0.072-0.024-0.126-0.062-0.162
		c-0.039-0.036-0.084-0.055-0.137-0.055s-0.102,0.019-0.146,0.055s-0.077,0.09-0.096,0.162H13.67z"/>
</g>
<g enable-background="new    ">
	<path fill="none" stroke="#3D3732" stroke-width="0.0301" stroke-miterlimit="10" d="M10.224,17.693h0.14l0.231,0.727l0.224-0.727
		h0.138l-0.302,0.871h-0.125L10.224,17.693z"/>
	<path fill="none" stroke="#3D3732" stroke-width="0.0301" stroke-miterlimit="10" d="M11.145,17.309
		c0.051,0,0.076,0.034,0.076,0.103c0,0.071-0.026,0.108-0.078,0.108c-0.05,0-0.075-0.035-0.075-0.104
		C11.067,17.343,11.093,17.309,11.145,17.309z M11.079,17.693h0.129v0.871h-0.129V17.693z"/>
	<path fill="none" stroke="#3D3732" stroke-width="0.0301" stroke-miterlimit="10" d="M11.473,17.434h0.116v0.26h0.185v0.1h-0.185
		v0.608c0,0.026,0.007,0.046,0.022,0.059s0.038,0.02,0.067,0.02c0.027,0,0.059-0.01,0.095-0.029v0.114
		c-0.045,0.013-0.089,0.021-0.132,0.021c-0.053,0-0.096-0.015-0.129-0.041c-0.034-0.028-0.05-0.069-0.05-0.125v-0.626h-0.134v-0.1
		h0.134L11.473,17.434z"/>
	<path fill="none" stroke="#3D3732" stroke-width="0.0301" stroke-miterlimit="10" d="M11.958,17.752
		c0.104-0.052,0.192-0.078,0.263-0.078c0.103,0,0.18,0.026,0.232,0.079c0.052,0.054,0.08,0.126,0.08,0.216v0.461
		c0,0.033,0.018,0.05,0.053,0.05c0.018,0,0.037-0.005,0.055-0.014v0.099c-0.032,0.013-0.066,0.021-0.1,0.021
		c-0.089,0-0.135-0.047-0.138-0.14c-0.033,0.046-0.07,0.081-0.111,0.104s-0.085,0.035-0.133,0.035c-0.078,0-0.143-0.025-0.195-0.076
		s-0.079-0.112-0.079-0.186c0-0.077,0.033-0.142,0.098-0.192c0.065-0.052,0.206-0.086,0.421-0.104v-0.074
		c0-0.05-0.018-0.091-0.054-0.122c-0.036-0.032-0.08-0.049-0.133-0.049c-0.076,0-0.162,0.033-0.258,0.102V17.752z M12.404,18.114
		c-0.168,0.019-0.274,0.045-0.319,0.078s-0.067,0.076-0.067,0.127c0,0.047,0.016,0.085,0.049,0.114
		c0.033,0.03,0.074,0.046,0.124,0.046c0.062,0,0.113-0.023,0.153-0.069c0.04-0.047,0.06-0.106,0.06-0.179V18.114z"/>
	<path fill="none" stroke="#3D3732" stroke-width="0.0301" stroke-miterlimit="10" d="M12.78,17.29h0.129v1.274H12.78V17.29z"/>
	<path fill="none" stroke="#3D3732" stroke-width="0.0301" stroke-miterlimit="10" d="M13.776,18.473
		c-0.104,0.074-0.205,0.112-0.305,0.112c-0.115,0-0.209-0.042-0.281-0.125s-0.107-0.191-0.107-0.325
		c0-0.138,0.037-0.248,0.111-0.334c0.073-0.084,0.167-0.127,0.28-0.127c0.101,0,0.181,0.034,0.241,0.103s0.092,0.155,0.092,0.26
		v0.057h-0.592v0.045c0,0.113,0.026,0.199,0.079,0.257s0.114,0.087,0.187,0.087c0.098,0,0.196-0.049,0.295-0.146V18.473z
		 M13.67,17.995c-0.004-0.072-0.024-0.126-0.062-0.162c-0.039-0.036-0.084-0.055-0.137-0.055s-0.102,0.019-0.146,0.055
		s-0.077,0.09-0.096,0.162H13.67z"/>
</g>
<g enable-background="new    ">
	<path fill="#3D3732" d="M14.933,17.693h0.127l-0.224,0.871h-0.117l-0.117-0.489c-0.002-0.006-0.005-0.018-0.01-0.035
		c-0.016-0.059-0.029-0.126-0.041-0.202c-0.008,0.07-0.021,0.146-0.039,0.225l-0.109,0.502h-0.121l-0.238-0.871h0.135l0.104,0.448
		l0.062,0.306c0.014-0.073,0.033-0.17,0.059-0.292l0.092-0.462h0.118l0.121,0.492c0.011,0.041,0.021,0.092,0.032,0.151
		c0.007,0.031,0.014,0.063,0.021,0.097c0.017-0.103,0.033-0.191,0.049-0.266L14.933,17.693z"/>
	<path fill="#3D3732" d="M15.822,18.473c-0.104,0.074-0.206,0.112-0.305,0.112c-0.116,0-0.21-0.042-0.282-0.125
		c-0.071-0.083-0.107-0.191-0.107-0.325c0-0.138,0.037-0.248,0.111-0.334c0.074-0.084,0.168-0.127,0.281-0.127
		c0.1,0,0.18,0.034,0.241,0.103c0.061,0.068,0.091,0.155,0.091,0.26v0.057H15.26v0.045c0,0.113,0.027,0.199,0.08,0.257
		s0.114,0.087,0.186,0.087c0.098,0,0.197-0.049,0.296-0.146V18.473z M15.715,17.995c-0.003-0.072-0.023-0.126-0.062-0.162
		s-0.084-0.055-0.136-0.055c-0.053,0-0.102,0.019-0.146,0.055c-0.046,0.036-0.077,0.09-0.097,0.162H15.715z"/>
	<path fill="#3D3732" d="M16.165,17.822c0.03-0.049,0.064-0.087,0.103-0.112c0.038-0.024,0.079-0.036,0.124-0.036
		c0.033,0,0.068,0.007,0.102,0.02v0.108c-0.039-0.014-0.072-0.021-0.1-0.021c-0.065,0-0.119,0.027-0.163,0.081
		c-0.044,0.055-0.065,0.116-0.065,0.188v0.515h-0.126v-0.871h0.114L16.165,17.822z"/>
	<path fill="#3D3732" d="M16.693,17.29h0.129v0.786l0.346-0.383h0.15l-0.304,0.32l0.35,0.551h-0.154l-0.274-0.467l-0.113,0.119
		v0.348h-0.129V17.29z"/>
	<path fill="#3D3732" d="M17.803,17.674c0.107,0,0.197,0.042,0.269,0.124c0.071,0.083,0.107,0.194,0.107,0.331
		c0,0.079-0.015,0.154-0.042,0.224c-0.029,0.07-0.072,0.127-0.132,0.169s-0.128,0.063-0.207,0.063c-0.116,0-0.208-0.043-0.276-0.129
		c-0.066-0.086-0.101-0.194-0.101-0.323c0-0.103,0.021-0.191,0.063-0.267c0.043-0.075,0.094-0.125,0.155-0.152
		S17.756,17.674,17.803,17.674z M17.812,17.781c-0.085,0-0.149,0.032-0.192,0.098c-0.043,0.064-0.064,0.152-0.064,0.264
		c0,0.095,0.021,0.175,0.062,0.24c0.043,0.064,0.103,0.097,0.18,0.097c0.072,0,0.132-0.03,0.178-0.09
		c0.047-0.061,0.07-0.147,0.07-0.263c0-0.11-0.022-0.194-0.068-0.256C17.932,17.812,17.876,17.781,17.812,17.781z"/>
	<path fill="#3D3732" d="M18.931,17.819c0.026-0.049,0.06-0.086,0.099-0.11c0.039-0.023,0.084-0.035,0.134-0.035
		c0.075,0,0.132,0.021,0.174,0.066c0.041,0.044,0.062,0.102,0.062,0.175v0.649H19.27v-0.65c0-0.042-0.012-0.075-0.037-0.1
		s-0.057-0.036-0.094-0.036c-0.054,0-0.1,0.023-0.139,0.069c-0.039,0.047-0.059,0.1-0.059,0.158v0.559h-0.129v-0.649
		c0-0.044-0.01-0.078-0.031-0.101c-0.02-0.022-0.052-0.033-0.094-0.033c-0.059,0-0.105,0.023-0.144,0.069s-0.056,0.104-0.056,0.173
		v0.541h-0.127v-0.871h0.113l0.014,0.112c0.027-0.044,0.061-0.077,0.098-0.099c0.039-0.023,0.082-0.033,0.13-0.033
		c0.054,0,0.099,0.012,0.135,0.035C18.887,17.733,18.914,17.771,18.931,17.819z"/>
	<path fill="#3D3732" d="M20.202,17.693h0.095v0.922c0,0.117-0.036,0.209-0.107,0.275s-0.157,0.101-0.259,0.101
		c-0.088,0-0.182-0.032-0.284-0.094v-0.137c0.099,0.085,0.192,0.127,0.28,0.127c0.072,0,0.13-0.025,0.174-0.075
		c0.045-0.051,0.067-0.116,0.067-0.197v-0.188c-0.034,0.045-0.071,0.079-0.112,0.103c-0.039,0.022-0.083,0.034-0.129,0.034
		c-0.1,0-0.182-0.043-0.248-0.128c-0.064-0.086-0.098-0.188-0.098-0.306c0-0.129,0.037-0.236,0.109-0.325
		c0.073-0.088,0.16-0.132,0.26-0.132c0.043,0,0.083,0.009,0.119,0.025s0.068,0.042,0.099,0.074L20.202,17.693z M20.167,17.88
		c-0.03-0.032-0.06-0.057-0.093-0.072c-0.031-0.016-0.065-0.023-0.102-0.023c-0.074,0-0.137,0.032-0.185,0.098
		s-0.073,0.148-0.073,0.249c0,0.093,0.021,0.171,0.064,0.235c0.042,0.065,0.099,0.098,0.17,0.098c0.062,0,0.114-0.025,0.156-0.076
		c0.041-0.051,0.062-0.117,0.062-0.197V17.88z"/>
	<path fill="#3D3732" d="M21.149,18.473c-0.104,0.074-0.205,0.112-0.305,0.112c-0.116,0-0.21-0.042-0.281-0.125
		c-0.072-0.083-0.108-0.191-0.108-0.325c0-0.138,0.037-0.248,0.111-0.334c0.073-0.084,0.167-0.127,0.28-0.127
		c0.102,0,0.182,0.034,0.242,0.103s0.091,0.155,0.091,0.26v0.057h-0.591v0.045c0,0.113,0.025,0.199,0.078,0.257
		s0.115,0.087,0.187,0.087c0.099,0,0.196-0.049,0.296-0.146V18.473z M21.042,17.995c-0.003-0.072-0.024-0.126-0.062-0.162
		c-0.039-0.036-0.084-0.055-0.136-0.055c-0.053,0-0.102,0.019-0.146,0.055s-0.078,0.09-0.097,0.162H21.042z"/>
	<path fill="#3D3732" d="M21.264,17.693h0.14l0.231,0.727l0.223-0.727h0.139l-0.303,0.871h-0.125L21.264,17.693z"/>
	<path fill="#3D3732" d="M22.184,17.309c0.051,0,0.076,0.034,0.076,0.103c0,0.071-0.025,0.108-0.078,0.108
		c-0.05,0-0.074-0.035-0.074-0.104C22.108,17.343,22.133,17.309,22.184,17.309z M22.119,17.693h0.129v0.871h-0.129V17.693z"/>
	<path fill="#3D3732" d="M22.467,17.693h0.117l0.012,0.125c0.034-0.049,0.073-0.085,0.116-0.109
		c0.044-0.023,0.091-0.035,0.144-0.035c0.084,0,0.148,0.025,0.194,0.075c0.046,0.049,0.069,0.116,0.069,0.199v0.616h-0.129v-0.616
		c0-0.051-0.016-0.092-0.045-0.122c-0.03-0.03-0.068-0.045-0.117-0.045c-0.064,0-0.119,0.024-0.164,0.075s-0.068,0.11-0.068,0.177
		v0.531h-0.129V17.693z"/>
	<path fill="#3D3732" d="M23.913,17.693h0.096v0.922c0,0.117-0.036,0.209-0.107,0.275c-0.072,0.066-0.158,0.101-0.258,0.101
		c-0.088,0-0.184-0.032-0.285-0.094v-0.137c0.1,0.085,0.192,0.127,0.279,0.127c0.072,0,0.131-0.025,0.176-0.075
		c0.044-0.051,0.066-0.116,0.066-0.197v-0.188c-0.034,0.045-0.072,0.079-0.111,0.103c-0.041,0.022-0.084,0.034-0.131,0.034
		c-0.099,0-0.181-0.043-0.246-0.128c-0.066-0.086-0.099-0.188-0.099-0.306c0-0.129,0.036-0.236,0.11-0.325
		c0.072-0.088,0.159-0.132,0.26-0.132c0.043,0,0.082,0.009,0.118,0.025s0.069,0.042,0.099,0.074L23.913,17.693z M23.879,17.88
		c-0.029-0.032-0.061-0.057-0.092-0.072c-0.033-0.016-0.066-0.023-0.102-0.023c-0.075,0-0.137,0.032-0.186,0.098
		s-0.072,0.148-0.072,0.249c0,0.093,0.021,0.171,0.062,0.235c0.043,0.065,0.1,0.098,0.172,0.098c0.062,0,0.113-0.025,0.154-0.076
		s0.062-0.117,0.062-0.197V17.88z"/>
</g>
<g enable-background="new    ">
	<path fill="none" stroke="#3D3732" stroke-width="0.0301" stroke-miterlimit="10" d="M14.933,17.693h0.127l-0.224,0.871h-0.117
		l-0.117-0.489c-0.002-0.006-0.005-0.018-0.01-0.035c-0.016-0.059-0.029-0.126-0.041-0.202c-0.008,0.07-0.021,0.146-0.039,0.225
		l-0.109,0.502h-0.121l-0.238-0.871h0.135l0.104,0.448l0.062,0.306c0.014-0.073,0.033-0.17,0.059-0.292l0.092-0.462h0.118
		l0.121,0.492c0.011,0.041,0.021,0.092,0.032,0.151c0.007,0.031,0.014,0.063,0.021,0.097c0.017-0.103,0.033-0.191,0.049-0.266
		L14.933,17.693z"/>
	<path fill="none" stroke="#3D3732" stroke-width="0.0301" stroke-miterlimit="10" d="M15.822,18.473
		c-0.104,0.074-0.206,0.112-0.305,0.112c-0.116,0-0.21-0.042-0.282-0.125c-0.071-0.083-0.107-0.191-0.107-0.325
		c0-0.138,0.037-0.248,0.111-0.334c0.074-0.084,0.168-0.127,0.281-0.127c0.1,0,0.18,0.034,0.241,0.103
		c0.061,0.068,0.091,0.155,0.091,0.26v0.057H15.26v0.045c0,0.113,0.027,0.199,0.08,0.257s0.114,0.087,0.186,0.087
		c0.098,0,0.197-0.049,0.296-0.146V18.473z M15.715,17.995c-0.003-0.072-0.023-0.126-0.062-0.162s-0.084-0.055-0.136-0.055
		c-0.053,0-0.102,0.019-0.146,0.055c-0.046,0.036-0.077,0.09-0.097,0.162H15.715z"/>
	<path fill="none" stroke="#3D3732" stroke-width="0.0301" stroke-miterlimit="10" d="M16.165,17.822
		c0.03-0.049,0.064-0.087,0.103-0.112c0.038-0.024,0.079-0.036,0.124-0.036c0.033,0,0.068,0.007,0.102,0.02v0.108
		c-0.039-0.014-0.072-0.021-0.1-0.021c-0.065,0-0.119,0.027-0.163,0.081c-0.044,0.055-0.065,0.116-0.065,0.188v0.515h-0.126v-0.871
		h0.114L16.165,17.822z"/>
	<path fill="none" stroke="#3D3732" stroke-width="0.0301" stroke-miterlimit="10" d="M16.693,17.29h0.129v0.786l0.346-0.383h0.15
		l-0.304,0.32l0.35,0.551h-0.154l-0.274-0.467l-0.113,0.119v0.348h-0.129V17.29z"/>
	<path fill="none" stroke="#3D3732" stroke-width="0.0301" stroke-miterlimit="10" d="M17.803,17.674
		c0.107,0,0.197,0.042,0.269,0.124c0.071,0.083,0.107,0.194,0.107,0.331c0,0.079-0.015,0.154-0.042,0.224
		c-0.029,0.07-0.072,0.127-0.132,0.169s-0.128,0.063-0.207,0.063c-0.116,0-0.208-0.043-0.276-0.129
		c-0.066-0.086-0.101-0.194-0.101-0.323c0-0.103,0.021-0.191,0.063-0.267c0.043-0.075,0.094-0.125,0.155-0.152
		S17.756,17.674,17.803,17.674z M17.812,17.781c-0.085,0-0.149,0.032-0.192,0.098c-0.043,0.064-0.064,0.152-0.064,0.264
		c0,0.095,0.021,0.175,0.062,0.24c0.043,0.064,0.103,0.097,0.18,0.097c0.072,0,0.132-0.03,0.178-0.09
		c0.047-0.061,0.07-0.147,0.07-0.263c0-0.11-0.022-0.194-0.068-0.256C17.932,17.812,17.876,17.781,17.812,17.781z"/>
	<path fill="none" stroke="#3D3732" stroke-width="0.0301" stroke-miterlimit="10" d="M18.931,17.819
		c0.026-0.049,0.06-0.086,0.099-0.11c0.039-0.023,0.084-0.035,0.134-0.035c0.075,0,0.132,0.021,0.174,0.066
		c0.041,0.044,0.062,0.102,0.062,0.175v0.649H19.27v-0.65c0-0.042-0.012-0.075-0.037-0.1s-0.057-0.036-0.094-0.036
		c-0.054,0-0.1,0.023-0.139,0.069c-0.039,0.047-0.059,0.1-0.059,0.158v0.559h-0.129v-0.649c0-0.044-0.01-0.078-0.031-0.101
		c-0.02-0.022-0.052-0.033-0.094-0.033c-0.059,0-0.105,0.023-0.144,0.069s-0.056,0.104-0.056,0.173v0.541h-0.127v-0.871h0.113
		l0.014,0.112c0.027-0.044,0.061-0.077,0.098-0.099c0.039-0.023,0.082-0.033,0.13-0.033c0.054,0,0.099,0.012,0.135,0.035
		C18.887,17.733,18.914,17.771,18.931,17.819z"/>
	<path fill="none" stroke="#3D3732" stroke-width="0.0301" stroke-miterlimit="10" d="M20.202,17.693h0.095v0.922
		c0,0.117-0.036,0.209-0.107,0.275s-0.157,0.101-0.259,0.101c-0.088,0-0.182-0.032-0.284-0.094v-0.137
		c0.099,0.085,0.192,0.127,0.28,0.127c0.072,0,0.13-0.025,0.174-0.075c0.045-0.051,0.067-0.116,0.067-0.197v-0.188
		c-0.034,0.045-0.071,0.079-0.112,0.103c-0.039,0.022-0.083,0.034-0.129,0.034c-0.1,0-0.182-0.043-0.248-0.128
		c-0.064-0.086-0.098-0.188-0.098-0.306c0-0.129,0.037-0.236,0.109-0.325c0.073-0.088,0.16-0.132,0.26-0.132
		c0.043,0,0.083,0.009,0.119,0.025s0.068,0.042,0.099,0.074L20.202,17.693z M20.167,17.88c-0.03-0.032-0.06-0.057-0.093-0.072
		c-0.031-0.016-0.065-0.023-0.102-0.023c-0.074,0-0.137,0.032-0.185,0.098s-0.073,0.148-0.073,0.249
		c0,0.093,0.021,0.171,0.064,0.235c0.042,0.065,0.099,0.098,0.17,0.098c0.062,0,0.114-0.025,0.156-0.076
		c0.041-0.051,0.062-0.117,0.062-0.197V17.88z"/>
	<path fill="none" stroke="#3D3732" stroke-width="0.0301" stroke-miterlimit="10" d="M21.149,18.473
		c-0.104,0.074-0.205,0.112-0.305,0.112c-0.116,0-0.21-0.042-0.281-0.125c-0.072-0.083-0.108-0.191-0.108-0.325
		c0-0.138,0.037-0.248,0.111-0.334c0.073-0.084,0.167-0.127,0.28-0.127c0.102,0,0.182,0.034,0.242,0.103s0.091,0.155,0.091,0.26
		v0.057h-0.591v0.045c0,0.113,0.025,0.199,0.078,0.257s0.115,0.087,0.187,0.087c0.099,0,0.196-0.049,0.296-0.146V18.473z
		 M21.042,17.995c-0.003-0.072-0.024-0.126-0.062-0.162c-0.039-0.036-0.084-0.055-0.136-0.055c-0.053,0-0.102,0.019-0.146,0.055
		s-0.078,0.09-0.097,0.162H21.042z"/>
	<path fill="none" stroke="#3D3732" stroke-width="0.0301" stroke-miterlimit="10" d="M21.264,17.693h0.14l0.231,0.727l0.223-0.727
		h0.139l-0.303,0.871h-0.125L21.264,17.693z"/>
	<path fill="none" stroke="#3D3732" stroke-width="0.0301" stroke-miterlimit="10" d="M22.184,17.309
		c0.051,0,0.076,0.034,0.076,0.103c0,0.071-0.025,0.108-0.078,0.108c-0.05,0-0.074-0.035-0.074-0.104
		C22.108,17.343,22.133,17.309,22.184,17.309z M22.119,17.693h0.129v0.871h-0.129V17.693z"/>
	<path fill="none" stroke="#3D3732" stroke-width="0.0301" stroke-miterlimit="10" d="M22.467,17.693h0.117l0.012,0.125
		c0.034-0.049,0.073-0.085,0.116-0.109c0.044-0.023,0.091-0.035,0.144-0.035c0.084,0,0.148,0.025,0.194,0.075
		c0.046,0.049,0.069,0.116,0.069,0.199v0.616h-0.129v-0.616c0-0.051-0.016-0.092-0.045-0.122c-0.03-0.03-0.068-0.045-0.117-0.045
		c-0.064,0-0.119,0.024-0.164,0.075s-0.068,0.11-0.068,0.177v0.531h-0.129V17.693z"/>
	<path fill="none" stroke="#3D3732" stroke-width="0.0301" stroke-miterlimit="10" d="M23.913,17.693h0.096v0.922
		c0,0.117-0.036,0.209-0.107,0.275c-0.072,0.066-0.158,0.101-0.258,0.101c-0.088,0-0.184-0.032-0.285-0.094v-0.137
		c0.1,0.085,0.192,0.127,0.279,0.127c0.072,0,0.131-0.025,0.176-0.075c0.044-0.051,0.066-0.116,0.066-0.197v-0.188
		c-0.034,0.045-0.072,0.079-0.111,0.103c-0.041,0.022-0.084,0.034-0.131,0.034c-0.099,0-0.181-0.043-0.246-0.128
		c-0.066-0.086-0.099-0.188-0.099-0.306c0-0.129,0.036-0.236,0.11-0.325c0.072-0.088,0.159-0.132,0.26-0.132
		c0.043,0,0.082,0.009,0.118,0.025s0.069,0.042,0.099,0.074L23.913,17.693z M23.879,17.88c-0.029-0.032-0.061-0.057-0.092-0.072
		c-0.033-0.016-0.066-0.023-0.102-0.023c-0.075,0-0.137,0.032-0.186,0.098s-0.072,0.148-0.072,0.249
		c0,0.093,0.021,0.171,0.062,0.235c0.043,0.065,0.1,0.098,0.172,0.098c0.062,0,0.113-0.025,0.154-0.076s0.062-0.117,0.062-0.197
		V17.88z"/>
</g>
</svg>
