<?xml version="1.0" encoding="utf-8"?>
<!-- Generator: Adobe Illustrator 16.0.0, SVG Export Plug-In . SVG Version: 6.00 Build 0)  -->
<!DOCTYPE svg PUBLIC "-//W3C//DTD SVG 1.1//EN" "http://www.w3.org/Graphics/SVG/1.1/DTD/svg11.dtd">
<svg version="1.1" id="Layer_1" xmlns="http://www.w3.org/2000/svg" xmlns:xlink="http://www.w3.org/1999/xlink" x="0px" y="0px"
	 width="24.01px" height="24.009px" viewBox="0 0 24.01 24.009" enable-background="new 0 0 24.01 24.009" xml:space="preserve">
<g>
	<path d="M0.752,2.508c0-1.072,0-1.27-0.013-1.496C0.728,0.772,0.677,0.66,0.467,0.61C0.416,0.596,0.308,0.589,0.219,0.589
		c-0.07,0-0.108-0.015-0.108-0.064s0.044-0.063,0.14-0.063c0.336,0,0.737,0.021,0.915,0.021c0.26,0,0.628-0.021,0.921-0.021
		c0.793,0,1.08,0.297,1.181,0.402c0.14,0.148,0.318,0.466,0.318,0.84c0,1.002-0.66,1.708-1.562,1.708c-0.032,0-0.102,0-0.133-0.007
		S1.812,3.391,1.812,3.341c0-0.057,0.045-0.078,0.178-0.078c0.356,0,0.851-0.445,0.851-1.164c0-0.233-0.018-0.706-0.374-1.059
		C2.238,0.808,1.978,0.766,1.832,0.766c-0.095,0-0.19,0.007-0.247,0.028C1.552,0.808,1.533,0.851,1.533,0.928V3.75
		c0,0.649,0,1.207,0.033,1.51c0.019,0.198,0.056,0.354,0.247,0.381C1.902,5.656,2.042,5.67,2.137,5.67
		c0.07,0,0.101,0.021,0.101,0.057c0,0.049-0.05,0.07-0.12,0.07c-0.419,0-0.819-0.021-0.985-0.021c-0.146,0-0.546,0.021-0.8,0.021
		c-0.082,0-0.126-0.021-0.126-0.07c0-0.036,0.025-0.057,0.102-0.057c0.095,0,0.171-0.014,0.229-0.028
		c0.126-0.028,0.158-0.184,0.184-0.388C0.752,4.957,0.752,4.399,0.752,3.75V2.508z"/>
	<path d="M4.22,3.129c0-1.207,0.718-2.766,2.623-2.766c1.581,0,2.566,1.023,2.566,2.639c0,1.616-1.017,2.894-2.63,2.894
		C4.957,5.896,4.22,4.378,4.22,3.129z M8.52,3.264c0-1.581-0.819-2.562-1.861-2.562c-0.73,0-1.562,0.452-1.562,2.209
		c0,1.467,0.73,2.632,1.95,2.632C7.491,5.543,8.52,5.303,8.52,3.264z"/>
	<path d="M11.091,4.837c0.013,0.55,0.095,0.733,0.222,0.783c0.108,0.043,0.229,0.05,0.33,0.05c0.07,0,0.108,0.014,0.108,0.057
		c0,0.057-0.058,0.07-0.146,0.07c-0.413,0-0.666-0.021-0.788-0.021c-0.057,0-0.355,0.021-0.685,0.021c-0.083,0-0.14-0.007-0.14-0.07
		c0-0.042,0.039-0.057,0.102-0.057c0.083,0,0.197-0.007,0.286-0.035c0.165-0.057,0.19-0.261,0.196-0.875l0.058-4.177
		c0-0.141,0.019-0.24,0.082-0.24c0.07,0,0.127,0.092,0.235,0.219c0.076,0.092,1.042,1.242,1.969,2.265
		c0.432,0.48,1.289,1.496,1.397,1.609h0.031l-0.063-3.168c-0.007-0.431-0.064-0.564-0.216-0.635
		c-0.095-0.042-0.248-0.042-0.337-0.042c-0.076,0-0.102-0.021-0.102-0.064c0-0.056,0.07-0.063,0.166-0.063
		c0.331,0,0.635,0.021,0.769,0.021c0.07,0,0.311-0.021,0.623-0.021c0.082,0,0.146,0.007,0.146,0.063
		c0,0.043-0.039,0.064-0.115,0.064c-0.062,0-0.113,0-0.19,0.021c-0.178,0.056-0.229,0.205-0.234,0.6l-0.071,4.453
		c0,0.155-0.025,0.218-0.083,0.218c-0.07,0-0.146-0.077-0.215-0.155c-0.4-0.423-1.213-1.348-1.874-2.075
		c-0.692-0.762-1.397-1.645-1.511-1.778h-0.02L11.091,4.837z"/>
	<path d="M17.594,0.857l-0.946,0.028C16.279,0.9,16.127,0.935,16.031,1.09c-0.062,0.105-0.095,0.19-0.107,0.247
		c-0.014,0.057-0.032,0.085-0.07,0.085c-0.045,0-0.057-0.036-0.057-0.113c0-0.113,0.121-0.755,0.133-0.812
		c0.02-0.092,0.039-0.134,0.076-0.134c0.051,0,0.114,0.071,0.273,0.085c0.184,0.021,0.425,0.035,0.635,0.035h2.515
		c0.204,0,0.344-0.021,0.438-0.035c0.096-0.021,0.146-0.036,0.172-0.036c0.045,0,0.051,0.042,0.051,0.148
		c0,0.148-0.02,0.635-0.02,0.819c-0.006,0.07-0.019,0.113-0.057,0.113c-0.051,0-0.063-0.036-0.07-0.141l-0.006-0.078
		c-0.014-0.183-0.185-0.381-0.75-0.395l-0.8-0.022V3.75c0,0.649,0,1.207,0.031,1.51c0.019,0.198,0.058,0.354,0.248,0.381
		c0.089,0.014,0.229,0.028,0.324,0.028c0.069,0,0.102,0.021,0.102,0.057c0,0.049-0.051,0.07-0.12,0.07
		c-0.42,0-0.82-0.021-0.998-0.021c-0.146,0-0.546,0.021-0.8,0.021c-0.083,0-0.127-0.021-0.127-0.07c0-0.036,0.024-0.057,0.101-0.057
		c0.096,0,0.172-0.014,0.229-0.028c0.127-0.028,0.165-0.184,0.184-0.388c0.032-0.297,0.032-0.854,0.032-1.503V0.857z"/>
	<path d="M21.258,2.508c0-1.072,0-1.27-0.013-1.496c-0.013-0.24-0.063-0.353-0.272-0.402c-0.052-0.014-0.159-0.021-0.248-0.021
		c-0.07,0-0.108-0.015-0.108-0.064s0.044-0.063,0.14-0.063c0.172,0,0.356,0.007,0.514,0.007c0.166,0.007,0.312,0.014,0.4,0.014
		c0.204,0,1.467,0,1.588-0.007c0.121-0.014,0.223-0.028,0.273-0.042c0.031-0.007,0.07-0.029,0.102-0.029s0.039,0.029,0.039,0.064
		c0,0.049-0.032,0.134-0.051,0.458c-0.008,0.071-0.02,0.381-0.032,0.466c-0.007,0.036-0.019,0.078-0.063,0.078
		s-0.059-0.035-0.059-0.099c0-0.049-0.006-0.169-0.037-0.254c-0.045-0.127-0.107-0.212-0.426-0.254
		c-0.107-0.014-0.775-0.028-0.901-0.028c-0.031,0-0.045,0.021-0.045,0.071v1.785c0,0.05,0.007,0.078,0.045,0.078
		c0.14,0,0.87,0,1.016-0.015c0.153-0.014,0.247-0.035,0.306-0.105c0.043-0.057,0.069-0.092,0.102-0.092
		c0.025,0,0.045,0.015,0.045,0.057c0,0.042-0.026,0.156-0.053,0.515c-0.006,0.142-0.024,0.424-0.024,0.473
		c0,0.056,0,0.134-0.058,0.134c-0.044,0-0.057-0.028-0.057-0.063c-0.006-0.07-0.006-0.162-0.025-0.254
		c-0.031-0.141-0.121-0.247-0.355-0.275c-0.121-0.014-0.75-0.021-0.902-0.021c-0.031,0-0.038,0.028-0.038,0.071V3.75
		c0,0.24-0.006,0.889,0,1.094c0.014,0.487,0.114,0.593,0.762,0.593c0.165,0,0.433,0,0.597-0.084
		c0.166-0.085,0.242-0.233,0.287-0.522c0.012-0.077,0.025-0.105,0.069-0.105c0.051,0,0.051,0.056,0.051,0.127
		c0,0.162-0.051,0.642-0.082,0.783c-0.045,0.183-0.102,0.183-0.344,0.183c-0.476,0-0.825-0.014-1.099-0.021
		c-0.273-0.014-0.47-0.021-0.66-0.021c-0.07,0-0.21,0-0.361,0.007c-0.146,0-0.312,0.014-0.439,0.014
		c-0.082,0-0.127-0.021-0.127-0.07c0-0.036,0.025-0.057,0.103-0.057c0.095,0,0.171-0.014,0.228-0.028
		c0.127-0.028,0.159-0.184,0.186-0.388c0.031-0.297,0.031-0.854,0.031-1.503V2.508z"/>
</g>
<g>
	<path d="M21.527,10.423c-0.865-1.393-1.899-2.428-3.031-3.061c-1.572-0.694-3.692-0.398-5.831,3.002
		c1.608,2.109,2.641,5.35,2.641,8.977h8.523C23.83,15.98,23.014,12.812,21.527,10.423z"/>
	<path d="M11.326,10.317c1.235-2.119,2.497-3.169,3.722-3.678c-1.881,0-5.615,0-6.762,0c-2.17,0-4.201,1.344-5.718,3.785
		c-1.485,2.389-2.304,5.557-2.304,8.918h8.523c0-3.123,0.766-5.959,2.004-8.031C10.96,10.968,11.138,10.636,11.326,10.317z"/>
</g>
<g>
	<path d="M0.654,21.996c0,0.218,0.016,0.232,0.196,0.244v0.064H0.233V22.24c0.149-0.012,0.166-0.026,0.166-0.244v-0.692
		c0-0.218-0.017-0.231-0.155-0.244v-0.064h0.542c0.157,0,0.276,0.022,0.36,0.081c0.091,0.062,0.141,0.159,0.141,0.292
		c0,0.256-0.193,0.379-0.405,0.404c-0.032,0.005-0.067,0.005-0.089,0.005l-0.139-0.03V21.996z M0.654,21.658
		c0.035,0.012,0.077,0.022,0.119,0.022c0.056,0,0.233-0.037,0.233-0.318c0-0.216-0.115-0.28-0.26-0.28
		c-0.088,0-0.093,0.015-0.093,0.072V21.658z"/>
	<path d="M1.491,21.917c0.034,0.11,0.149,0.326,0.348,0.326c0.133,0,0.208-0.099,0.208-0.214c0-0.137-0.074-0.203-0.228-0.27
		l-0.04-0.018c-0.169-0.075-0.312-0.191-0.312-0.383c0-0.216,0.167-0.396,0.447-0.396c0.061,0,0.125,0.009,0.186,0.028
		c0.032,0.011,0.062,0.019,0.086,0.026c0.008,0.072,0.022,0.163,0.042,0.284l-0.073,0.014c-0.04-0.118-0.101-0.262-0.272-0.262
		c-0.123,0-0.195,0.089-0.195,0.201c0,0.104,0.075,0.176,0.22,0.238l0.064,0.028c0.161,0.068,0.31,0.175,0.31,0.393
		c0,0.237-0.188,0.419-0.478,0.419c-0.074,0-0.149-0.014-0.203-0.032c-0.057-0.019-0.095-0.034-0.121-0.046
		c-0.016-0.053-0.04-0.191-0.062-0.312L1.491,21.917z"/>
	<path d="M3.098,21.996c0,0.218,0.017,0.232,0.193,0.244v0.064h-0.64V22.24c0.169-0.012,0.185-0.026,0.185-0.244v-0.183
		c0-0.055-0.008-0.07-0.028-0.115c-0.054-0.116-0.129-0.243-0.258-0.473c-0.084-0.151-0.099-0.153-0.201-0.166v-0.064h0.554v0.064
		L2.82,21.072c-0.05,0.008-0.054,0.021-0.022,0.086c0.079,0.153,0.159,0.309,0.24,0.456c0.062-0.117,0.153-0.312,0.211-0.445
		c0.034-0.077,0.024-0.093-0.048-0.101l-0.077-0.009v-0.064h0.469v0.064c-0.125,0.013-0.143,0.03-0.228,0.17
		c-0.072,0.118-0.141,0.221-0.228,0.398c-0.034,0.07-0.041,0.078-0.041,0.163V21.996z"/>
	<path d="M4.66,21.356c-0.064-0.236-0.189-0.301-0.36-0.301c-0.311,0-0.456,0.276-0.456,0.566c0,0.372,0.184,0.622,0.451,0.622
		c0.202,0,0.304-0.11,0.409-0.326l0.072,0.014c-0.026,0.109-0.07,0.271-0.103,0.347c-0.057,0.015-0.238,0.057-0.377,0.057
		c-0.538,0-0.751-0.343-0.751-0.667c0-0.396,0.312-0.703,0.788-0.703c0.171,0,0.306,0.041,0.362,0.053
		c0.016,0.11,0.024,0.199,0.037,0.326L4.66,21.356z"/>
	<path d="M5.855,21.559v-0.256c0-0.218-0.016-0.231-0.167-0.244v-0.064h0.604v0.064c-0.159,0.013-0.175,0.026-0.175,0.244v0.692
		c0,0.218,0.016,0.232,0.171,0.244v0.064H5.672V22.24c0.167-0.012,0.183-0.026,0.183-0.244v-0.33H5.297v0.33
		c0,0.218,0.016,0.232,0.171,0.244v0.064H4.864V22.24c0.155-0.012,0.171-0.026,0.171-0.244v-0.692c0-0.218-0.016-0.231-0.179-0.244
		v-0.064H5.46v0.064c-0.147,0.013-0.163,0.026-0.163,0.244v0.256H5.855z"/>
	<path d="M7.14,20.964c0.36,0,0.645,0.274,0.645,0.665c0,0.425-0.294,0.705-0.693,0.705c-0.397,0-0.659-0.296-0.659-0.665
		C6.433,21.345,6.652,20.964,7.14,20.964z M7.138,22.244c0.207,0,0.348-0.177,0.348-0.55c0-0.4-0.141-0.639-0.399-0.639
		c-0.209,0-0.356,0.208-0.356,0.559C6.73,21.963,6.87,22.244,7.138,22.244z"/>
	<path d="M8.362,21.988c0,0.147,0.008,0.191,0.05,0.21c0.034,0.014,0.088,0.016,0.151,0.016c0.079,0,0.171-0.012,0.218-0.062
		c0.032-0.038,0.064-0.103,0.097-0.199l0.072,0.014c-0.012,0.079-0.052,0.284-0.07,0.339H7.918V22.24
		C8.084,22.228,8.1,22.213,8.1,21.996v-0.692c0-0.218-0.016-0.231-0.169-0.244v-0.064h0.604v0.064
		c-0.157,0.013-0.173,0.026-0.173,0.244V21.988z"/>
	<path d="M9.7,20.964c0.36,0,0.645,0.274,0.645,0.665c0,0.425-0.294,0.705-0.693,0.705c-0.397,0-0.659-0.296-0.659-0.665
		C8.993,21.345,9.212,20.964,9.7,20.964z M9.698,22.244c0.208,0,0.348-0.177,0.348-0.55c0-0.4-0.141-0.639-0.398-0.639
		c-0.21,0-0.357,0.208-0.357,0.559C9.291,21.963,9.43,22.244,9.698,22.244z"/>
	<path d="M11.648,21.358c-0.054-0.252-0.219-0.303-0.378-0.303c-0.256,0-0.441,0.212-0.441,0.57c0,0.314,0.129,0.618,0.474,0.618
		c0.083,0,0.151-0.016,0.151-0.129v-0.181c0-0.136-0.008-0.149-0.22-0.166v-0.072h0.592v0.072c-0.103,0.019-0.111,0.024-0.111,0.166
		v0.137c0,0.072,0.002,0.137,0.012,0.183c-0.121,0.034-0.284,0.081-0.439,0.081c-0.457,0-0.757-0.262-0.757-0.671
		c0-0.461,0.367-0.699,0.773-0.699c0.167,0,0.314,0.034,0.385,0.053c0.006,0.068,0.016,0.173,0.032,0.334L11.648,21.358z"/>
	<path d="M12.367,21.996c0,0.218,0.016,0.232,0.165,0.244v0.064H11.94V22.24c0.149-0.012,0.166-0.026,0.166-0.244v-0.692
		c0-0.218-0.017-0.231-0.166-0.244v-0.064h0.592v0.064c-0.149,0.013-0.165,0.026-0.165,0.244V21.996z"/>
	<path d="M12.745,21.917c0.034,0.11,0.149,0.326,0.349,0.326c0.133,0,0.207-0.099,0.207-0.214c0-0.137-0.074-0.203-0.228-0.27
		l-0.04-0.018c-0.169-0.075-0.312-0.191-0.312-0.383c0-0.216,0.167-0.396,0.447-0.396c0.061,0,0.125,0.009,0.186,0.028
		c0.032,0.011,0.062,0.019,0.086,0.026c0.008,0.072,0.022,0.163,0.042,0.284l-0.073,0.014c-0.04-0.118-0.101-0.262-0.272-0.262
		c-0.123,0-0.195,0.089-0.195,0.201c0,0.104,0.075,0.176,0.22,0.238l0.064,0.028c0.161,0.068,0.31,0.175,0.31,0.393
		c0,0.237-0.188,0.419-0.478,0.419c-0.074,0-0.149-0.014-0.203-0.032c-0.057-0.019-0.095-0.034-0.121-0.046
		c-0.016-0.053-0.04-0.191-0.062-0.312L12.745,21.917z"/>
	<path d="M14.796,21.356c-0.064-0.236-0.189-0.301-0.36-0.301c-0.311,0-0.456,0.276-0.456,0.566c0,0.372,0.184,0.622,0.451,0.622
		c0.202,0,0.304-0.11,0.409-0.326l0.073,0.014c-0.026,0.109-0.071,0.271-0.103,0.347c-0.057,0.015-0.238,0.057-0.376,0.057
		c-0.538,0-0.751-0.343-0.751-0.667c0-0.396,0.312-0.703,0.788-0.703c0.171,0,0.306,0.041,0.362,0.053
		c0.016,0.11,0.024,0.199,0.036,0.326L14.796,21.356z"/>
	<path d="M15.991,21.559v-0.256c0-0.218-0.017-0.231-0.167-0.244v-0.064h0.604v0.064c-0.159,0.013-0.175,0.026-0.175,0.244v0.692
		c0,0.218,0.016,0.232,0.171,0.244v0.064h-0.616V22.24c0.167-0.012,0.184-0.026,0.184-0.244v-0.33h-0.559v0.33
		c0,0.218,0.017,0.232,0.172,0.244v0.064H15V22.24c0.155-0.012,0.171-0.026,0.171-0.244v-0.692c0-0.218-0.016-0.231-0.179-0.244
		v-0.064h0.604v0.064c-0.146,0.013-0.163,0.026-0.163,0.244v0.256H15.991z"/>
	<path d="M17.618,22.24l0.052-0.008c0.075-0.011,0.085-0.032,0.051-0.119c-0.026-0.066-0.064-0.171-0.095-0.246H17.27
		c-0.024,0.059-0.051,0.147-0.076,0.234c-0.03,0.101-0.026,0.122,0.066,0.133l0.05,0.006v0.064h-0.455V22.24
		c0.121-0.014,0.147-0.024,0.218-0.205l0.406-1.036l0.099-0.027l0.134,0.374c0.084,0.24,0.173,0.479,0.249,0.683
		c0.071,0.189,0.103,0.2,0.21,0.212v0.064h-0.552V22.24z M17.298,21.764h0.294l-0.146-0.415H17.44L17.298,21.764z"/>
	<path d="M18.852,20.995c0.231,0,0.438,0.051,0.572,0.18c0.095,0.091,0.173,0.239,0.173,0.419c0,0.495-0.381,0.711-0.854,0.711
		h-0.51V22.24c0.157-0.012,0.173-0.026,0.173-0.244v-0.692c0-0.218-0.016-0.231-0.157-0.244v-0.064H18.852z M18.668,21.984
		c0,0.186,0.021,0.229,0.166,0.229c0.289,0,0.469-0.226,0.469-0.563c0-0.434-0.22-0.568-0.506-0.568
		c-0.058,0-0.103,0.006-0.114,0.015c-0.013,0.008-0.015,0.05-0.015,0.104V21.984z"/>
	<path d="M20.254,22.318c-0.141-0.362-0.332-0.859-0.404-1.049c-0.071-0.186-0.107-0.197-0.214-0.21v-0.064h0.58v0.064l-0.068,0.009
		c-0.074,0.01-0.081,0.028-0.053,0.11c0.038,0.113,0.195,0.51,0.303,0.785c0.068-0.177,0.222-0.634,0.253-0.729
		c0.047-0.137,0.03-0.159-0.06-0.169l-0.061-0.007v-0.064h0.476v0.064c-0.125,0.015-0.147,0.024-0.232,0.222
		c-0.012,0.028-0.262,0.627-0.412,1.037H20.254z"/>
	<path d="M21.504,21.996c0,0.218,0.017,0.232,0.166,0.244v0.064h-0.593V22.24c0.149-0.012,0.165-0.026,0.165-0.244v-0.692
		c0-0.218-0.016-0.231-0.165-0.244v-0.064h0.593v0.064c-0.149,0.013-0.166,0.026-0.166,0.244V21.996z"/>
	<path d="M21.973,21.303c0-0.218-0.016-0.231-0.161-0.244v-0.064h0.925c0.002,0.034,0.012,0.182,0.022,0.314l-0.073,0.006
		c-0.02-0.095-0.042-0.15-0.074-0.183c-0.032-0.034-0.099-0.047-0.218-0.047h-0.078c-0.077,0-0.081,0-0.081,0.07v0.413h0.147
		c0.173,0,0.179-0.01,0.199-0.169h0.072v0.441h-0.072c-0.021-0.159-0.026-0.17-0.199-0.17h-0.147v0.316
		c0,0.147,0.009,0.189,0.051,0.21c0.034,0.016,0.089,0.016,0.171,0.016c0.093,0,0.186-0.012,0.229-0.061
		c0.034-0.036,0.066-0.104,0.099-0.201l0.073,0.014c-0.013,0.079-0.053,0.284-0.07,0.339h-0.995V22.24
		c0.165-0.012,0.181-0.026,0.181-0.244V21.303z"/>
	<path d="M23.017,21.917c0.034,0.11,0.149,0.326,0.349,0.326c0.133,0,0.208-0.099,0.208-0.214c0-0.137-0.075-0.203-0.228-0.27
		l-0.041-0.018c-0.169-0.075-0.312-0.191-0.312-0.383c0-0.216,0.167-0.396,0.447-0.396c0.06,0,0.124,0.009,0.185,0.028
		c0.032,0.011,0.062,0.019,0.087,0.026c0.008,0.072,0.022,0.163,0.042,0.284l-0.072,0.014c-0.04-0.118-0.101-0.262-0.271-0.262
		c-0.123,0-0.195,0.089-0.195,0.201c0,0.104,0.074,0.176,0.219,0.238l0.064,0.028c0.161,0.068,0.311,0.175,0.311,0.393
		c0,0.237-0.188,0.419-0.478,0.419c-0.074,0-0.148-0.014-0.203-0.032c-0.057-0.019-0.095-0.034-0.121-0.046
		c-0.016-0.053-0.04-0.191-0.062-0.312L23.017,21.917z"/>
</g>
</svg>
