<?xml version="1.0" encoding="utf-8"?>
<!-- Generator: Adobe Illustrator 16.0.0, SVG Export Plug-In . SVG Version: 6.00 Build 0)  -->
<!DOCTYPE svg PUBLIC "-//W3C//DTD SVG 1.1//EN" "http://www.w3.org/Graphics/SVG/1.1/DTD/svg11.dtd">
<svg version="1.1" id="Layer_1" xmlns="http://www.w3.org/2000/svg" xmlns:xlink="http://www.w3.org/1999/xlink" x="0px" y="0px"
	 width="24.009px" height="24.01px" viewBox="0 0 24.009 24.01" enable-background="new 0 0 24.009 24.01" xml:space="preserve">
<path d="M15.149,6.611c0,0.056-0.016,0.111-0.195,0.111h-0.111V6.488h0.106C15.115,6.488,15.149,6.535,15.149,6.611z"/>
<path d="M15.2,6.863c0.124-0.041,0.192-0.139,0.192-0.27c0-0.133-0.071-0.287-0.412-0.287h-0.377v0.984h0.239V6.902h0.114
	l0.184,0.389h0.219c-0.118,0.098-0.257,0.15-0.406,0.15c-0.157,0-0.315-0.068-0.432-0.186c-0.118-0.122-0.183-0.279-0.183-0.441
	c0-0.164,0.066-0.323,0.189-0.449c0.112-0.115,0.266-0.178,0.431-0.178c0.17,0,0.322,0.064,0.443,0.187
	c0.115,0.117,0.175,0.272,0.175,0.448c0,0.166-0.063,0.32-0.179,0.436c-0.001,0.002-0.003,0.002-0.005,0.004L15.2,6.863z"/>
<g>
	<path d="M2.914,16.373c0.165,0.053,0.351,0.115,0.457,0.232c0.147,0.16,0.097,0.369,0.065,0.461
		c-0.053,0.147-0.149,0.251-0.236,0.305c-0.225,0.135-0.488,0.047-0.733-0.036c-0.077,0.218-0.096,0.271-0.169,0.505l-0.016,0.008
		c-0.175-0.059-0.211-0.068-0.375-0.114l-0.008-0.017c0.098-0.258,0.196-0.514,0.289-0.771c0.086-0.244,0.146-0.432,0.235-0.711
		l0.018-0.008l0.28,0.088L2.914,16.373z M2.559,17.074c0.132,0.044,0.214,0.066,0.285,0.053c0.138-0.023,0.182-0.146,0.193-0.176
		c0.043-0.123,0.025-0.234-0.167-0.303c-0.048-0.017-0.095-0.032-0.144-0.045L2.559,17.074z"/>
	<path d="M4.879,18.267l-0.09,0.269l-0.015,0.012c-0.405-0.1-0.486-0.119-0.929-0.221l-0.008-0.016
		c0.091-0.343,0.184-0.687,0.275-1.029c0.069-0.26,0.081-0.312,0.117-0.488l0.017-0.01c0.154,0.039,0.207,0.053,0.403,0.092
		l0.009,0.016c-0.155,0.515-0.197,0.662-0.346,1.244l0.045,0.012c0.068,0.017,0.265,0.061,0.513,0.105L4.879,18.267z"/>
	<path d="M7.065,17.353l-0.124,0.655l-0.041,0.227c-0.054,0.28-0.086,0.406-0.23,0.512c-0.199,0.145-0.451,0.104-0.534,0.09
		c-0.306-0.049-0.463-0.188-0.529-0.323c-0.061-0.118-0.053-0.239-0.018-0.479l0.029-0.164c0.059-0.346,0.07-0.408,0.117-0.726
		l0.016-0.012c0.155,0.029,0.208,0.036,0.404,0.062l0.009,0.014c-0.043,0.218-0.076,0.389-0.108,0.567
		C6.038,17.892,6.017,18.008,6,18.126c-0.02,0.141-0.02,0.22,0.004,0.284c0.037,0.085,0.119,0.14,0.212,0.154
		c0.076,0.014,0.156,0.001,0.216-0.047c0.074-0.061,0.101-0.166,0.142-0.398c0.048-0.272,0.085-0.545,0.122-0.819l0.016-0.011
		c0.131,0.023,0.176,0.03,0.345,0.049L7.065,17.353z"/>
	<path d="M9.131,17.533c-0.193,0.182-0.264,0.258-0.579,0.63c0.121,0.243,0.34,0.638,0.533,0.909l-0.011,0.023L8.603,19.08
		l-0.016-0.012c-0.076-0.164-0.118-0.257-0.295-0.584c-0.078-0.143-0.091-0.162-0.14-0.245c-0.027,0.39-0.031,0.47-0.042,0.784
		l-0.012,0.014c-0.165-0.012-0.221-0.016-0.402-0.021l-0.01-0.014c0.021-0.219,0.035-0.34,0.053-0.575
		c0.044-0.575,0.047-0.741,0.052-0.986l0.013-0.013c0.189,0.016,0.222,0.016,0.405,0.021l0.011,0.014L8.157,18.15
		c0.176-0.2,0.233-0.275,0.514-0.65l0.019-0.012c0.204,0.018,0.244,0.018,0.436,0.023L9.131,17.533z"/>
	<path d="M10.686,19.096l-0.015-0.008c-0.008-0.186-0.015-0.316-0.03-0.535c-0.043-0.62-0.065-0.809-0.089-1.022l0.013-0.015
		l0.246-0.018c0.106-0.012,0.212-0.023,0.318-0.031c0.265-0.019,0.564-0.029,0.741,0.236c0.065,0.098,0.125,0.254,0.139,0.465
		c0.007,0.102,0.006,0.281-0.047,0.435c-0.141,0.409-0.56,0.445-0.82,0.464c-0.06,0.004-0.123,0.009-0.183,0.011L10.686,19.096z
		 M11.45,18.67c0.052-0.049,0.153-0.182,0.133-0.461c-0.033-0.477-0.309-0.457-0.45-0.449c-0.046,0.004-0.095,0.01-0.141,0.015
		c0.006,0.122,0.015,0.243,0.023,0.364c0.015,0.213,0.032,0.422,0.051,0.641C11.192,18.771,11.352,18.761,11.45,18.67z"/>
	<path d="M13.896,18.441l0.03,0.271l-0.016,0.018l-1.008,0.164l-0.013-0.008c-0.033-0.233-0.052-0.374-0.1-0.652
		c-0.102-0.594-0.12-0.674-0.17-0.885l0.012-0.016l1.006-0.166l0.012,0.009l0.028,0.259l-0.009,0.015
		c-0.279,0.038-0.332,0.048-0.59,0.091l0.061,0.351l0.553-0.1l0.013,0.011l0.03,0.253l-0.014,0.017l-0.537,0.088l0.071,0.385
		c0.293-0.048,0.356-0.061,0.625-0.117L13.896,18.441z"/>
	<path d="M16.473,16.428c0.076,0.241,0.15,0.479,0.228,0.717c0.083,0.258,0.153,0.467,0.256,0.775l-0.008,0.015
		c-0.118,0.036-0.158,0.05-0.291,0.097l-0.019-0.008l-0.288-0.217l-0.324-0.246c-0.219-0.166-0.273-0.211-0.431-0.346l0.106,0.283
		l0.091,0.261l0.174,0.462l-0.007,0.016c-0.128,0.039-0.175,0.053-0.321,0.105l-0.015-0.01c-0.065-0.207-0.128-0.418-0.197-0.629
		c-0.093-0.286-0.18-0.529-0.298-0.858l0.007-0.015c0.162-0.049,0.191-0.058,0.364-0.119l0.019,0.006
		c0.083,0.068,0.132,0.105,0.377,0.299l0.294,0.223c0.166,0.127,0.182,0.142,0.28,0.227l-0.124-0.35l-0.104-0.293l-0.11-0.284
		l0.007-0.017c0.138-0.039,0.174-0.053,0.312-0.102L16.473,16.428z"/>
	<path d="M17.99,15.826c0.327,0.4,0.4,0.483,1.058,1.25l-0.003,0.021c-0.173,0.072-0.215,0.094-0.367,0.166l-0.021-0.006
		l-0.264-0.342l-0.459,0.197L18,17.53l-0.009,0.019l-0.333,0.143l-0.015-0.01c-0.082-1-0.109-1.235-0.155-1.633l0.009-0.018
		c0.228-0.1,0.271-0.117,0.472-0.209L17.99,15.826z M18.217,16.695l-0.224-0.287l-0.185-0.238l0.035,0.271l0.052,0.392
		L18.217,16.695z"/>
	<path d="M20.556,15.9l0.149,0.301l-0.004,0.018c-0.051,0.059-0.14,0.162-0.311,0.252c-0.499,0.261-0.924,0.053-1.135-0.326
		c-0.192-0.346-0.229-0.836,0.301-1.112c0.181-0.095,0.33-0.114,0.419-0.124l0.014,0.004l0.133,0.281l-0.017,0.015
		c-0.071-0.011-0.188-0.022-0.34,0.056c-0.334,0.175-0.229,0.506-0.135,0.674c0.156,0.279,0.413,0.362,0.646,0.24
		c0.169-0.088,0.232-0.217,0.259-0.277H20.556z"/>
	<path d="M21.709,13.732c0.101,0.143,0.161,0.23,0.255,0.357c0.224,0.309,0.453,0.61,0.692,0.908l-0.002,0.017
		c-0.163,0.108-0.199,0.136-0.338,0.239l-0.017-0.004c-0.179-0.266-0.223-0.326-0.406-0.57c-0.078,0.049-0.155,0.1-0.231,0.151
		c-0.075,0.05-0.144,0.101-0.224,0.163c0.195,0.262,0.245,0.326,0.422,0.547l-0.001,0.018c-0.169,0.111-0.202,0.137-0.336,0.236
		l-0.018-0.005c-0.108-0.155-0.17-0.248-0.29-0.412c-0.331-0.454-0.507-0.673-0.654-0.854l0.004-0.019
		c0.165-0.112,0.194-0.132,0.336-0.237l0.017,0.004l0.349,0.486c0.066-0.045,0.136-0.09,0.203-0.135
		c0.085-0.059,0.167-0.118,0.25-0.176c-0.16-0.216-0.198-0.27-0.362-0.467l0.001-0.018c0.16-0.108,0.184-0.126,0.333-0.234
		L21.709,13.732z"/>
	<path d="M22.989,13.019c0.098,0.108,0.145,0.16,0.231,0.251c0.222,0.23,0.446,0.459,0.675,0.68l0,0.019
		c-0.141,0.128-0.174,0.16-0.295,0.278l-0.019-0.002c-0.377-0.418-0.477-0.521-0.892-0.95l-0.272,0.256L22.4,13.547l-0.182-0.212
		l0.001-0.021l0.844-0.758l0.014-0.001l0.186,0.214l-0.002,0.018L22.989,13.019z"/>
</g>
<path d="M0.206,9.812c-0.017-1.562,0-3.062,0-3.062S5.058,4.873,10.79,4.873c5.733,0,10.609,1.877,10.609,1.877s0.009,1.499,0,3.091
	c-0.009,1.59,0,2.261,0,2.261s-4.875,1.869-10.609,1.869c-5.735,0-10.584-1.869-10.584-1.869S0.224,11.373,0.206,9.812z
	 M2.809,9.093c0,0-0.492-0.263-0.492-0.263L2.103,8.715C1.94,8.634,1.807,8.545,1.706,8.448C1.624,8.37,1.585,8.281,1.585,8.164
	c0-0.07,0.017-0.176,0.163-0.287c0.122-0.096,0.29-0.145,0.497-0.145c0.282,0,0.577,0.052,0.875,0.152L3.29,7.943V7.215L3.191,7.186
	C2.898,7.104,2.589,7.063,2.275,7.063c-0.501,0-0.88,0.11-1.126,0.327C0.895,7.616,0.766,7.898,0.766,8.232
	c0,0.456,0.278,0.83,0.827,1.117c0,0,0.561,0.291,0.561,0.291c0.31,0.164,0.444,0.281,0.503,0.352
	c0.074,0.09,0.111,0.182,0.111,0.278c0,0.081-0.025,0.155-0.078,0.227c-0.055,0.075-0.14,0.136-0.252,0.179
	c-0.123,0.049-0.253,0.07-0.389,0.07c-0.34,0-0.726-0.092-1.148-0.275l-0.179-0.078v0.789l0.093,0.031
	c0.254,0.082,0.463,0.138,0.622,0.165c0.16,0.026,0.329,0.038,0.503,0.038c0.566,0,0.97-0.111,1.237-0.35
	c0.272-0.24,0.409-0.534,0.409-0.875C3.586,9.746,3.325,9.375,2.809,9.093z M5.061,8.259h-0.13H3.429v0.669c0,0,0.668,0,0.856,0
	c0,0.254,0,2.369,0,2.369h1.631v-0.668c0,0-0.668,0-0.855,0C5.061,10.374,5.061,8.259,5.061,8.259z M4.388,7.757
	C4.486,7.82,4.583,7.852,4.675,7.852c0.094,0,0.192-0.031,0.291-0.095C5.085,7.68,5.148,7.559,5.148,7.402
	c0-0.154-0.063-0.277-0.182-0.354C4.868,6.983,4.77,6.951,4.675,6.951c-0.093,0-0.189,0.032-0.289,0.098
	c-0.118,0.076-0.18,0.199-0.18,0.354C4.206,7.559,4.269,7.68,4.388,7.757z M7.167,7.031H7.037H5.472v0.671c0,0,0.728,0,0.92,0
	c0,0.263,0,3.595,0,3.595h1.74v-0.668c0,0-0.769,0-0.964,0C7.167,10.363,7.167,7.031,7.167,7.031z M11.097,8.259h-0.591
	c0,0-0.811,1.647-0.995,2.022C9.329,9.904,8.53,8.259,8.53,8.259H7.675l1.475,3.038h0.68l1.485-3.038H11.097z M16.918,8.326
	c-0.167-0.098-0.355-0.146-0.557-0.146c-0.228,0-0.458,0.066-0.685,0.195c-0.122,0.073-0.235,0.161-0.338,0.264
	c0-0.113,0-0.38,0-0.38h-0.777v3.038h0.777c0,0,0-1.614,0-1.699c0.121-0.2,0.271-0.369,0.452-0.504
	c0.183-0.137,0.353-0.205,0.505-0.205c0.065,0,0.123,0.02,0.178,0.059c0.052,0.038,0.087,0.082,0.105,0.139
	c0.013,0.039,0.035,0.15,0.035,0.473v1.738h0.775v-1.68c0-0.437-0.033-0.726-0.102-0.887C17.215,8.563,17.092,8.428,16.918,8.326z
	 M20.735,11.1c-0.069-0.188-0.104-0.441-0.104-0.754V8.25c0,0-0.631,0-0.641,0c-0.006,0-0.121-0.01-0.121-0.01
	c-0.207-0.02-0.354-0.029-0.457-0.029c-0.358,0-0.666,0.08-0.912,0.24c-0.246,0.156-0.444,0.375-0.592,0.646
	c-0.147,0.271-0.222,0.585-0.222,0.928c0,0.448,0.118,0.791,0.351,1.018c0.229,0.223,0.49,0.335,0.779,0.335
	c0.203,0,0.426-0.065,0.663-0.192c0.055-0.029,0.108-0.062,0.161-0.1l0.194-1.078c-0.01,0.375,0.026,0.725,0.044,0.871
	c0.004-0.006,0.008-0.01,0.013-0.014c0.018,0.127,0.038,0.238,0.063,0.329l0.027,0.103h0.826L20.735,11.1z M14.199,11.1
	c-0.069-0.188-0.105-0.441-0.105-0.754V8.25c0,0-0.63,0-0.64,0c-0.006,0-0.12-0.01-0.12-0.01c-0.208-0.02-0.356-0.029-0.458-0.029
	c-0.358,0-0.666,0.08-0.912,0.24c-0.246,0.156-0.444,0.375-0.591,0.646c-0.148,0.271-0.223,0.585-0.223,0.928
	c0,0.448,0.118,0.791,0.351,1.018c0.229,0.223,0.491,0.335,0.78,0.335c0.203,0,0.425-0.065,0.662-0.192
	c0.057-0.029,0.109-0.062,0.161-0.1l0.195-1.078c-0.01,0.375,0.026,0.725,0.044,0.871c0.004-0.006,0.008-0.01,0.013-0.014
	c0.018,0.127,0.039,0.238,0.062,0.329l0.028,0.103h0.826L14.199,11.1z M19.855,8.924c-0.132-0.026-0.26-0.044-0.375-0.044
	c-0.284,0-0.512,0.095-0.699,0.29c-0.185,0.194-0.275,0.455-0.275,0.795c0,0.236,0.047,0.412,0.139,0.524
	c0.089,0.108,0.186,0.163,0.295,0.163c0.132,0,0.284-0.067,0.454-0.193v-0.002c0.169-0.128,0.324-0.302,0.461-0.516
	C19.855,9.864,19.855,9.111,19.855,8.924z M13.319,8.924c-0.133-0.026-0.26-0.044-0.376-0.044c-0.284,0-0.511,0.095-0.699,0.29
	C12.06,9.364,11.97,9.625,11.97,9.965c0,0.236,0.047,0.412,0.139,0.524c0.09,0.108,0.186,0.163,0.295,0.163
	c0.132,0,0.284-0.067,0.454-0.193v-0.002c0.169-0.128,0.323-0.302,0.461-0.516C13.319,9.864,13.319,9.111,13.319,8.924z
	 M14.973,5.967c-0.473,0-0.856,0.384-0.856,0.856c0,0.474,0.383,0.856,0.856,0.856c0.472,0,0.855-0.383,0.855-0.856
	C15.828,6.351,15.444,5.967,14.973,5.967z"/>
</svg>
