<?xml version="1.0" encoding="utf-8"?>
<!-- Generator: Adobe Illustrator 16.0.0, SVG Export Plug-In . SVG Version: 6.00 Build 0)  -->
<!DOCTYPE svg PUBLIC "-//W3C//DTD SVG 1.1//EN" "http://www.w3.org/Graphics/SVG/1.1/DTD/svg11.dtd">
<svg version="1.1" id="Layer_1" xmlns="http://www.w3.org/2000/svg" xmlns:xlink="http://www.w3.org/1999/xlink" x="0px" y="0px"
	 width="24.009px" height="24.01px" viewBox="0 0 24.009 24.01" enable-background="new 0 0 24.009 24.01" xml:space="preserve">
<path d="M22.443,9.407h-2.916c-0.571,0-0.867,0.062-1.101,0.235c-0.357,0.275-0.571,0.724-0.571,1.214
	c0,0.509,0.213,0.978,0.561,1.244c0.294,0.233,0.602,0.304,1.253,0.304h0.836c0.336,0,0.479,0.011,0.571,0.062
	c0.163,0.062,0.255,0.224,0.255,0.429c0,0.224-0.122,0.367-0.337,0.398c-0.111,0.01-0.305,0.02-0.642,0.02h-2.426v1.062h2.824
	c0.561,0,0.918-0.042,1.111-0.133c0.469-0.205,0.806-0.816,0.806-1.427c0-0.909-0.622-1.419-1.713-1.419h-0.806
	c-0.397,0-0.56-0.021-0.652-0.071c-0.153-0.092-0.235-0.234-0.235-0.418c0-0.357,0.144-0.438,0.755-0.438h2.426V9.407z"/>
<path d="M14.471,10.387c0.825,0,1.244,0.5,1.244,1.488c0,1.02-0.408,1.52-1.213,1.52c-0.816,0-1.245-0.51-1.245-1.478
	C13.256,10.896,13.654,10.387,14.471,10.387z M14.511,9.336c-1.621,0-2.651,0.979-2.651,2.539c0,1.621,0.969,2.57,2.6,2.57
	c1.632,0,2.651-0.959,2.651-2.498c0-0.715-0.184-1.286-0.571-1.774C16.112,9.621,15.408,9.336,14.511,9.336z"/>
<path d="M9.523,13.312H8.402c-0.581,0-0.714-0.234-0.714-1.264V9.407H6.322v2.773c0,0.959,0.091,1.295,0.449,1.683
	c0.357,0.378,0.765,0.511,1.54,0.511h1.213l-0.01,0.182c-0.021,0.276-0.082,0.388-0.246,0.45c-0.102,0.04-0.336,0.07-0.51,0.07
	H6.322v1.061h2.437c0.612,0,1.041-0.082,1.336-0.245c0.541-0.305,0.795-0.824,0.795-1.62V9.407H9.523V13.312z"/>
<path d="M1.707,10.468h1.01c0.866,0,1.294,0.459,1.294,1.397c0,0.897-0.489,1.447-1.294,1.447h-1.01V10.468z M1.707,9.407V7.571
	H0.34v6.803h2.224c0.897,0,1.294-0.082,1.753-0.367c0.703-0.439,1.091-1.204,1.091-2.183c0-0.652-0.183-1.234-0.53-1.642
	C4.439,9.652,3.828,9.407,2.92,9.407H1.707z"/>
<g>
	<path d="M23.659,9.587c0.089,0.092,0.138,0.213,0.138,0.343c0,0.134-0.051,0.255-0.144,0.345c-0.095,0.092-0.218,0.142-0.344,0.142
		c-0.13,0-0.252-0.053-0.346-0.147c-0.091-0.092-0.14-0.213-0.14-0.339c0-0.088,0.023-0.172,0.071-0.254
		c0.087-0.147,0.239-0.234,0.415-0.234C23.443,9.441,23.565,9.492,23.659,9.587z M23.028,9.637c-0.08,0.079-0.124,0.184-0.124,0.291
		s0.04,0.209,0.117,0.285c0.078,0.078,0.181,0.123,0.289,0.123c0.105,0,0.208-0.043,0.288-0.12c0.077-0.073,0.12-0.175,0.12-0.278
		c0-0.118-0.039-0.217-0.115-0.293c-0.08-0.081-0.179-0.122-0.291-0.122C23.201,9.522,23.104,9.561,23.028,9.637z M23.319,9.65
		c0.154,0,0.23,0.052,0.23,0.154c0,0.07-0.043,0.125-0.118,0.144l0.121,0.242h-0.146l-0.104-0.223h-0.064v0.223h-0.131V9.65H23.319z
		 M23.239,9.89h0.064c0.076,0,0.112-0.023,0.112-0.077c0-0.057-0.039-0.08-0.118-0.08h-0.058V9.89z"/>
</g>
</svg>
