<?xml version="1.0" encoding="utf-8"?>
<!-- Generator: Adobe Illustrator 16.0.0, SVG Export Plug-In . SVG Version: 6.00 Build 0)  -->
<!DOCTYPE svg PUBLIC "-//W3C//DTD SVG 1.1//EN" "http://www.w3.org/Graphics/SVG/1.1/DTD/svg11.dtd">
<svg version="1.1" id="Layer_1" xmlns="http://www.w3.org/2000/svg" xmlns:xlink="http://www.w3.org/1999/xlink" x="0px" y="0px"
	 width="24.01px" height="24.009px" viewBox="0 0 24.01 24.009" enable-background="new 0 0 24.01 24.009" xml:space="preserve">
<g>
	<polygon fill="#2E2014" points="7.957,8.259 5.524,8.259 5.524,4.414 5.263,4.414 5.263,8.521 7.957,8.521 	"/>
	<path fill="#2E2014" d="M10.418,8.601c1.117,0,1.983-0.875,2.107-2.127l0.004-0.034h-2.58v0.233h2.279
		c-0.185,0.985-0.94,1.695-1.811,1.695c-0.466,0-0.959-0.216-1.285-0.564C8.805,7.458,8.618,6.964,8.618,6.447
		c0-0.542,0.262-1.099,0.684-1.455c0.319-0.271,0.707-0.408,1.151-0.408c0.641,0,1.119,0.277,1.55,0.897l0.008,0.013h0.321
		l-0.027-0.047c-0.421-0.739-1.039-1.113-1.835-1.113c-0.6,0-1.089,0.194-1.496,0.594c-0.419,0.414-0.64,0.936-0.64,1.512
		C8.333,7.672,9.229,8.601,10.418,8.601z"/>
	<polygon fill="#2E2014" points="13.293,6.655 15.426,6.655 15.426,8.521 15.688,8.521 15.688,4.414 15.426,4.414 15.426,6.423 
		13.293,6.423 13.293,4.414 13.031,4.414 13.031,8.521 13.293,8.521 	"/>
	<polygon fill="#2E2014" points="17.244,8.521 17.511,8.521 17.511,4.682 18.45,4.682 18.45,4.414 16.305,4.414 16.305,4.682 
		17.244,4.682 	"/>
	<polygon fill="#2E2014" points="5.392,13.103 3.751,9.385 3.416,9.385 3.416,13.49 3.677,13.49 3.677,9.85 5.266,13.472 
		5.275,13.49 5.508,13.49 7.1,9.85 7.1,13.49 7.362,13.49 7.362,9.385 7.032,9.385 	"/>
	<polygon fill="#2E2014" points="8.012,13.49 10.122,13.49 10.122,13.23 8.273,13.23 8.273,9.646 10.18,9.646 10.18,9.385 
		8.012,9.385 	"/>
	<polygon fill="#2E2014" points="10.427,9.652 11.365,9.652 11.365,13.49 11.632,13.49 11.632,9.652 12.571,9.652 12.571,9.385 
		10.427,9.385 	"/>
	<path fill="#2E2014" d="M15.715,13.49h0.279l-1.693-4.105h-0.322l-1.684,4.105h0.277l1.571-3.827"/>
	<polygon fill="#2E2014" points="16.582,9.385 16.582,13.49 18.682,13.49 18.682,13.23 16.844,13.23 16.844,9.385 	"/>
	<path fill="#2E2014" d="M19.036,11.336c0.067,0.022,0.132,0.046,0.193,0.065c0.61,0.209,0.946,0.323,0.946,0.896
		c0,0.574-0.361,0.933-0.941,0.933h-0.27v0.262h0.315c0.685,0,1.163-0.494,1.163-1.2c0-0.55-0.283-0.771-0.771-0.964
		c-0.1-0.043-0.198-0.079-0.293-0.115c-0.251-0.096-0.467-0.176-0.634-0.289c-0.222-0.149-0.293-0.279-0.293-0.54
		c0-0.501,0.353-0.851,0.856-0.851c0.449,0,0.715,0.288,0.771,0.833l0.002,0.026h0.269l-0.004-0.032
		c-0.039-0.66-0.432-1.055-1.049-1.055c-0.645,0-1.111,0.452-1.111,1.071C18.186,10.776,18.33,11.091,19.036,11.336z"/>
	<path fill="#2E2014" d="M4.039,14.939c0.32-0.27,0.717-0.414,1.146-0.414c0.648,0,1.146,0.293,1.565,0.925l0.011,0.014h0.302
		l-0.026-0.046c-0.429-0.758-1.059-1.143-1.875-1.143c-0.568,0-1.056,0.199-1.45,0.594c-0.419,0.416-0.64,0.938-0.64,1.516
		c0,1.25,0.905,2.156,2.152,2.156c0.78,0,1.317-0.328,1.795-1.094l0.03-0.049H6.73l-0.009,0.016
		c-0.381,0.609-0.879,0.895-1.566,0.895c-0.461,0-0.953-0.217-1.285-0.565c-0.328-0.345-0.515-0.839-0.515-1.354
		C3.355,15.851,3.616,15.298,4.039,14.939z"/>
	<polygon fill="#2E2014" points="7.507,18.46 9.617,18.46 9.617,18.199 7.769,18.199 7.769,14.617 9.674,14.617 9.674,14.355 
		7.507,14.355 	"/>
	<polygon fill="#2E2014" points="10.251,14.355 10.251,18.46 10.514,18.46 10.514,14.763 12.928,18.447 12.938,18.46 13.265,18.46 
		10.55,14.355 	"/>
	<polygon fill="#2E2014" points="12.677,14.623 13.615,14.623 13.615,18.46 13.881,18.46 13.881,14.623 14.82,14.623 14.82,14.355 
		12.677,14.355 	"/>
	<path fill="#2E2014" d="M17.785,15.689c0-0.449-0.2-0.859-0.537-1.095c-0.284-0.199-0.592-0.239-0.995-0.239h-1.118v4.105h0.262
		v-3.844h0.914c0.771,0,1.213,0.389,1.213,1.066c0,0.6-0.416,1.004-1.032,1.004h-0.526l1.25,1.76l0.012,0.014h0.311l-1.087-1.529
		h0.041C17.277,16.931,17.785,16.443,17.785,15.689z"/>
	<polygon fill="#2E2014" points="18.161,18.46 20.272,18.46 20.272,18.199 18.424,18.199 18.424,14.617 20.33,14.617 20.33,14.355 
		18.161,14.355 	"/>
</g>
<circle fill="#2E2014" cx="7.543" cy="4.75" r="0.313"/>
<circle fill="#2E2014" cx="9.844" cy="11.34" r="0.313"/>
<circle fill="#2E2014" cx="9.328" cy="16.345" r="0.313"/>
<circle fill="#2E2014" cx="20.004" cy="16.345" r="0.313"/>
<path fill="#2E2014" d="M12.034,23.708C5.565,23.708,0.3,18.445,0.3,11.974c0-6.47,5.265-11.735,11.734-11.735
	c6.471,0,11.736,5.265,11.736,11.735C23.771,18.445,18.505,23.708,12.034,23.708z M12.034,0.553
	c-6.297,0-11.421,5.123-11.421,11.421c0,6.297,5.124,11.421,11.421,11.421c6.3,0,11.421-5.124,11.421-11.421
	C23.455,5.676,18.334,0.553,12.034,0.553z"/>
</svg>
