<?xml version="1.0" encoding="utf-8"?>
<!-- Generator: Adobe Illustrator 16.0.0, SVG Export Plug-In . SVG Version: 6.00 Build 0)  -->
<!DOCTYPE svg PUBLIC "-//W3C//DTD SVG 1.1//EN" "http://www.w3.org/Graphics/SVG/1.1/DTD/svg11.dtd">
<svg version="1.1" id="Layer_1" xmlns="http://www.w3.org/2000/svg" xmlns:xlink="http://www.w3.org/1999/xlink" x="0px" y="0px"
	 width="24.009px" height="24.01px" viewBox="0 0 24.009 24.01" enable-background="new 0 0 24.009 24.01" xml:space="preserve">
<g>
	<path d="M1.757,9.095c0-0.021-0.012-0.033-0.033-0.033H1.659v-0.23H1.92c0.078,0,0.112,0.034,0.112,0.112v0.721
		c0,0.02,0.012,0.033,0.033,0.033H2.21c0.021,0,0.034-0.014,0.034-0.033v-0.06h0.244v0.21c0,0.078-0.032,0.113-0.111,0.113H1.871
		c-0.079,0-0.113-0.035-0.113-0.113V9.095z"/>
	<path d="M2.707,9.394c0-0.021-0.013-0.032-0.034-0.032H2.615V9.138H2.86c0.078,0,0.112,0.034,0.112,0.111v0.423
		c0,0.021,0.012,0.033,0.033,0.033h0.06v0.223H2.819c-0.079,0-0.112-0.035-0.112-0.113V9.394z M2.726,8.831h0.223v0.214H2.726V8.831
		z"/>
	<path d="M3.18,10.022c0.052,0,0.143-0.013,0.143-0.101V9.394c0-0.021-0.013-0.032-0.034-0.032H3.231V9.138h0.245
		c0.078,0,0.111,0.034,0.111,0.111v0.698c0,0.266-0.248,0.299-0.371,0.299c-0.042,0-0.069-0.005-0.069-0.005v-0.22
		C3.147,10.021,3.161,10.022,3.18,10.022z M3.339,8.831h0.222v0.214H3.339V8.831z"/>
	<path d="M3.884,9.394c0-0.021-0.014-0.032-0.034-0.032H3.792V9.138h0.235c0.071,0,0.11,0.036,0.11,0.089v0.01
		c0,0.01-0.001,0.02-0.001,0.02H4.14c0.036-0.061,0.11-0.137,0.249-0.137c0.16,0,0.284,0.074,0.284,0.295v0.258
		c0,0.021,0.012,0.033,0.034,0.033h0.058v0.223H4.52c-0.078,0-0.112-0.035-0.112-0.113V9.464c0-0.074-0.028-0.103-0.088-0.103
		c-0.082,0-0.133,0.045-0.155,0.113C4.153,9.504,4.149,9.54,4.149,9.577v0.351H3.884V9.394z"/>
	<path d="M5.39,9.697h0.114V9.062H5.39v-0.23h0.489v0.23H5.763v0.636h0.116v0.23H5.39V9.697z"/>
	<path d="M6.125,9.394c0-0.021-0.012-0.032-0.034-0.032H6.032V9.138h0.236c0.072,0,0.11,0.036,0.11,0.089v0.01
		c0,0.01-0.002,0.02-0.002,0.02H6.38C6.417,9.195,6.49,9.119,6.629,9.119c0.16,0,0.283,0.074,0.283,0.295v0.258
		c0,0.021,0.014,0.033,0.035,0.033h0.058v0.223H6.76c-0.079,0-0.111-0.035-0.111-0.113V9.464c0-0.074-0.029-0.103-0.089-0.103
		c-0.082,0-0.133,0.045-0.155,0.113C6.394,9.504,6.389,9.54,6.389,9.577v0.351H6.125V9.394z"/>
	<path d="M7.229,9.344H7.132V9.138h0.097V9.119c0-0.258,0.234-0.295,0.361-0.295c0.048,0,0.08,0.004,0.08,0.004v0.225
		c0,0-0.019-0.002-0.043-0.002c-0.052,0-0.133,0.01-0.133,0.076v0.011h0.145v0.206H7.495v0.584H7.229V9.344z"/>
	<path d="M8.213,9.119c0.249,0,0.447,0.168,0.447,0.415S8.462,9.945,8.214,9.945c-0.249,0-0.445-0.164-0.445-0.411
		S7.965,9.119,8.213,9.119z M8.214,9.726c0.097,0,0.179-0.073,0.179-0.191c0-0.12-0.082-0.194-0.179-0.194S8.036,9.414,8.036,9.534
		C8.036,9.652,8.118,9.726,8.214,9.726z"/>
	<path d="M8.897,9.394c0-0.021-0.014-0.032-0.035-0.032H8.804V9.138H9.04c0.071,0,0.111,0.028,0.111,0.101V9.28
		c0,0.025-0.003,0.039-0.003,0.039h0.003c0.033-0.106,0.133-0.196,0.251-0.196c0.017,0,0.031,0.004,0.031,0.004v0.262
		c0,0-0.021-0.006-0.055-0.006c-0.062,0-0.165,0.021-0.203,0.139c-0.01,0.029-0.015,0.064-0.015,0.107v0.299H8.897V9.394z"/>
	<path d="M9.672,9.394c0-0.021-0.013-0.032-0.034-0.032H9.58V9.138h0.237c0.072,0,0.111,0.036,0.111,0.089v0.01
		c0,0.01-0.002,0.02-0.002,0.02h0.003c0.036-0.057,0.107-0.137,0.231-0.137c0.1,0,0.18,0.046,0.221,0.135h0.003
		c0.042-0.066,0.136-0.135,0.253-0.135c0.144,0,0.257,0.078,0.257,0.295v0.258c0,0.021,0.012,0.033,0.033,0.033h0.059v0.223H10.74
		c-0.078,0-0.111-0.035-0.111-0.113V9.46c0-0.058-0.012-0.099-0.062-0.099c-0.08,0-0.126,0.062-0.143,0.151
		c-0.006,0.027-0.01,0.056-0.01,0.087v0.328H10.15V9.46c0-0.058-0.011-0.099-0.061-0.099c-0.079,0-0.124,0.061-0.142,0.145
		C9.941,9.534,9.937,9.566,9.937,9.6v0.328H9.672V9.394z"/>
	<path d="M11.537,9.119c0.233,0,0.366,0.163,0.366,0.383c0,0.025-0.007,0.079-0.007,0.079h-0.499c0.021,0.1,0.101,0.145,0.184,0.145
		c0.113,0,0.21-0.085,0.21-0.085l0.107,0.181c0,0-0.128,0.124-0.339,0.124c-0.281,0-0.433-0.203-0.433-0.413
		C11.126,9.301,11.282,9.119,11.537,9.119z M11.63,9.421c0-0.05-0.038-0.103-0.094-0.103c-0.076,0-0.115,0.043-0.132,0.103H11.63z"
		/>
	<path d="M12.143,9.088c0-0.022-0.012-0.035-0.033-0.035h-0.058V8.831h0.245c0.077,0,0.112,0.034,0.112,0.112v0.729
		c0,0.021,0.011,0.033,0.032,0.033H12.5v0.223h-0.245c-0.078,0-0.112-0.035-0.112-0.113V9.088z"/>
	<path d="M13.057,9.119c0.232,0,0.365,0.163,0.365,0.383c0,0.025-0.007,0.079-0.007,0.079h-0.498c0.02,0.1,0.1,0.145,0.184,0.145
		c0.114,0,0.21-0.085,0.21-0.085l0.107,0.181c0,0-0.129,0.124-0.339,0.124c-0.282,0-0.433-0.203-0.433-0.413
		C12.647,9.301,12.802,9.119,13.057,9.119z M13.15,9.421c0-0.05-0.037-0.103-0.093-0.103c-0.076,0-0.115,0.043-0.132,0.103H13.15z"
		/>
	<path d="M14.049,9.76l0.418-0.602c0.048-0.066,0.084-0.098,0.084-0.098V9.059c0,0-0.035,0.003-0.084,0.003h-0.136
		c-0.021,0-0.033,0.013-0.033,0.033v0.06h-0.245V8.943c0-0.078,0.033-0.112,0.112-0.112h0.728v0.166L14.473,9.6
		c-0.047,0.066-0.085,0.1-0.085,0.1v0.003c0,0,0.036-0.005,0.085-0.005h0.166c0.021,0,0.033-0.014,0.033-0.033v-0.06h0.245v0.21
		c0,0.078-0.034,0.113-0.111,0.113h-0.757V9.76z"/>
	<path d="M15.501,9.119c0.25,0,0.447,0.168,0.447,0.415s-0.197,0.411-0.445,0.411c-0.249,0-0.446-0.164-0.446-0.411
		S15.254,9.119,15.501,9.119z M15.503,9.726c0.097,0,0.179-0.073,0.179-0.191c0-0.12-0.082-0.194-0.179-0.194
		s-0.18,0.074-0.18,0.194C15.324,9.652,15.407,9.726,15.503,9.726z"/>
	<path d="M16.185,9.394c0-0.021-0.013-0.032-0.034-0.032h-0.059V9.138h0.235c0.072,0,0.111,0.028,0.111,0.101V9.28
		c0,0.025-0.003,0.039-0.003,0.039h0.003c0.034-0.106,0.133-0.196,0.251-0.196c0.017,0,0.031,0.004,0.031,0.004v0.262
		c0,0-0.021-0.006-0.054-0.006c-0.062,0-0.165,0.021-0.204,0.139c-0.009,0.029-0.014,0.064-0.014,0.107v0.299h-0.265V9.394z"/>
	<path d="M17.197,9.119c0.161,0,0.229,0.093,0.229,0.093h0.003c0,0,0-0.005,0-0.013c0-0.021,0.024-0.062,0.084-0.062h0.239v0.224
		h-0.056c-0.02,0-0.033,0.01-0.033,0.028v0.466c0,0.288-0.23,0.395-0.446,0.395c-0.106,0-0.223-0.031-0.299-0.07l0.076-0.209
		c0,0,0.097,0.052,0.221,0.052c0.096,0,0.183-0.034,0.183-0.153V9.857c0-0.008,0.002-0.029,0.002-0.029h-0.003
		c-0.047,0.051-0.105,0.076-0.197,0.076c-0.238,0-0.356-0.195-0.356-0.397C16.842,9.307,16.958,9.119,17.197,9.119z M17.404,9.512
		c0-0.141-0.074-0.172-0.154-0.172c-0.093,0-0.142,0.068-0.142,0.158c0,0.098,0.047,0.186,0.152,0.186
		C17.33,9.684,17.404,9.648,17.404,9.512z"/>
	<path d="M18.642,8.779h0.219c-0.12,0.198-0.177,0.416-0.177,0.637c0,0.225,0.061,0.452,0.177,0.657h-0.219
		c-0.131-0.175-0.191-0.405-0.191-0.638C18.451,9.197,18.512,8.959,18.642,8.779z"/>
	<path d="M19.141,9.095c0-0.021-0.013-0.033-0.034-0.033h-0.066v-0.23h0.263c0.078,0,0.112,0.034,0.112,0.112v0.721
		c0,0.02,0.012,0.033,0.034,0.033h0.144c0.021,0,0.033-0.014,0.033-0.033v-0.06h0.245v0.21c0,0.078-0.033,0.113-0.111,0.113h-0.508
		c-0.078,0-0.111-0.035-0.111-0.113V9.095z"/>
	<path d="M20.011,9.697h0.116V9.062h-0.116v-0.23H20.5v0.23h-0.114v0.636H20.5v0.23h-0.489V9.697z"/>
	<path d="M20.649,9.76l0.418-0.602c0.048-0.066,0.084-0.098,0.084-0.098V9.059c0,0-0.034,0.003-0.084,0.003h-0.135
		c-0.021,0-0.033,0.013-0.033,0.033v0.06h-0.245V8.943c0-0.078,0.034-0.112,0.111-0.112h0.729v0.166L21.074,9.6
		c-0.048,0.066-0.084,0.1-0.084,0.1v0.003c0,0,0.034-0.005,0.084-0.005h0.165c0.021,0,0.035-0.014,0.035-0.033v-0.06h0.244v0.21
		c0,0.078-0.033,0.113-0.112,0.113h-0.757V9.76z"/>
	<path d="M21.857,9.416c0-0.221-0.058-0.438-0.177-0.637h0.22c0.128,0.18,0.191,0.418,0.191,0.656c0,0.232-0.062,0.463-0.191,0.638
		h-0.22C21.796,9.868,21.857,9.641,21.857,9.416z"/>
</g>
<g>
	<g>
		<path d="M3.906,6.463c0-0.725,0.187-1.303,0.761-1.303c0.576,0,0.763,0.578,0.763,1.303c0,0.726-0.187,1.313-0.763,1.313
			C4.092,7.776,3.906,7.188,3.906,6.463z M4.918,6.463c0-0.41-0.056-0.736-0.252-0.736c-0.194,0-0.251,0.326-0.251,0.736
			c0,0.414,0.057,0.746,0.251,0.746C4.863,7.209,4.918,6.877,4.918,6.463z"/>
		<path d="M5.826,6.947c0,0,0.194,0.246,0.473,0.246c0.175,0,0.269-0.143,0.269-0.295c0-0.229-0.181-0.309-0.371-0.309
			c-0.216,0-0.373,0.098-0.373,0.098L5.668,6.58l0.063-1.118c0.011-0.181,0.062-0.259,0.207-0.259h0.809
			c0.145,0,0.208,0.078,0.208,0.259v0.487H6.501V5.812c0-0.051-0.022-0.079-0.062-0.079H6.242c-0.04,0-0.06,0.028-0.062,0.079
			L6.17,5.986C6.168,6.035,6.162,6.084,6.162,6.084h0.007c0,0,0.069-0.013,0.144-0.013c0.507,0,0.768,0.371,0.768,0.838
			c0,0.435-0.258,0.871-0.781,0.871c-0.447,0-0.705-0.345-0.705-0.345L5.826,6.947z"/>
		<path d="M7.965,5.961c0.077-0.17,0.131-0.23,0.131-0.23V5.723c0,0-0.028,0.011-0.131,0.011H7.663C7.624,5.733,7.6,5.762,7.6,5.812
			v0.137H7.147V5.462c0-0.181,0.037-0.259,0.182-0.259h1.319v0.432l-0.935,2.1H7.165L7.965,5.961z"/>
		<path d="M8.676,6.463c0-0.725,0.187-1.303,0.762-1.303c0.574,0,0.762,0.578,0.762,1.303c0,0.726-0.188,1.313-0.762,1.313
			C8.863,7.776,8.676,7.188,8.676,6.463z M9.69,6.463c0-0.41-0.057-0.736-0.252-0.736S9.185,6.053,9.185,6.463
			c0,0.414,0.058,0.746,0.253,0.746S9.69,6.877,9.69,6.463z"/>
	</g>
	<g>
		<path d="M11.504,5.201c0.111-0.242,0.189-0.328,0.189-0.328v-0.01c0,0-0.041,0.014-0.189,0.014H11.06
			c-0.058,0-0.091,0.041-0.091,0.111v0.197h-0.663V4.488c0-0.26,0.054-0.368,0.265-0.368h1.933v0.616l-1.369,2.998h-0.803
			L11.504,5.201z"/>
		<path d="M12.938,5.813V5.803c0,0-0.265-0.244-0.265-0.703c0-0.53,0.349-1.041,0.989-1.041c0.594,0,0.991,0.455,0.991,1.035
			c0,0.471-0.265,0.765-0.265,0.765v0.011c0.244,0.205,0.361,0.516,0.361,0.822c0,0.553-0.403,1.104-1.108,1.104
			c-0.646,0-1.098-0.5-1.098-1.127C12.544,6.157,12.938,5.813,12.938,5.813z M13.642,6.986c0.216,0,0.361-0.142,0.361-0.34
			c0-0.161-0.137-0.262-0.319-0.363c-0.124-0.07-0.17-0.101-0.207-0.101c-0.088,0-0.194,0.212-0.194,0.425
			C13.283,6.83,13.424,6.986,13.642,6.986z M13.796,5.514c0.083,0,0.153-0.171,0.153-0.354c0-0.182-0.116-0.293-0.287-0.293
			c-0.177,0-0.281,0.121-0.281,0.254c0,0.146,0.112,0.247,0.27,0.333C13.684,5.475,13.759,5.514,13.796,5.514z"/>
		<path d="M15.053,6.976h0.621V5.469c0-0.137,0.004-0.277,0.004-0.277h-0.007c0,0-0.039,0.1-0.116,0.191l-0.18,0.197l-0.419-0.547
			l0.801-0.913h0.659v2.855h0.626v0.759h-1.989V6.976z"/>
		<path d="M18.306,5.201c0.112-0.242,0.191-0.328,0.191-0.328v-0.01c0,0-0.041,0.014-0.191,0.014h-0.442
			c-0.058,0-0.092,0.041-0.092,0.111v0.197h-0.664V4.488c0-0.26,0.056-0.368,0.267-0.368h1.933v0.616l-1.368,2.998h-0.805
			L18.306,5.201z"/>
		<path d="M19.742,5.813V5.803c0,0-0.266-0.244-0.266-0.703c0-0.53,0.349-1.041,0.991-1.041c0.594,0,0.991,0.455,0.991,1.035
			c0,0.471-0.267,0.765-0.267,0.765v0.011c0.246,0.205,0.362,0.516,0.362,0.822c0,0.553-0.403,1.104-1.107,1.104
			c-0.646,0-1.099-0.5-1.099-1.127C19.348,6.157,19.742,5.813,19.742,5.813z M20.447,6.986c0.216,0,0.361-0.142,0.361-0.34
			c0-0.161-0.139-0.262-0.32-0.363c-0.124-0.07-0.17-0.101-0.207-0.101c-0.086,0-0.195,0.212-0.195,0.425
			C20.085,6.83,20.227,6.986,20.447,6.986z M20.6,5.514c0.083,0,0.153-0.171,0.153-0.354c0-0.182-0.116-0.293-0.286-0.293
			c-0.178,0-0.282,0.121-0.282,0.254c0,0.146,0.112,0.247,0.271,0.333C20.488,5.475,20.562,5.514,20.6,5.514z"/>
		<path d="M21.856,6.976h0.622V5.469c0-0.137,0.005-0.277,0.005-0.277h-0.01c0,0-0.036,0.1-0.115,0.191L22.179,5.58l-0.418-0.547
			l0.8-0.913h0.66v2.855h0.625v0.759h-1.99V6.976z"/>
	</g>
	<path d="M0.712,4.545c0.023-0.012,0.047-0.027,0.073-0.031c0.149-0.035,0.312-0.012,0.466-0.021
		C1.45,4.482,1.667,5.426,1.417,5.461C1.324,5.473,1.038,5.465,0.956,5.507C0.88,5.545,0.89,5.672,0.942,5.759
		C1.076,5.988,1.287,6.257,1.45,6.487C1.456,6.493,1.459,6.5,1.463,6.506c0.006,0.007,0.01,0.012,0.015,0.02
		c0.159,0.232,0.339,0.521,0.51,0.729c0.064,0.077,0.18,0.13,0.24,0.072c0.068-0.062,0.159-0.334,0.203-0.418
		c0.118-0.223,0.93,0.303,0.852,0.484C3.222,7.537,3.188,7.697,3.105,7.826C3.09,7.849,3.069,7.865,3.051,7.885
		C2.644,8.328,1.863,8.258,1.375,7.668C1.188,7.441,1.009,7.209,0.837,6.973L0.836,6.975C0.832,6.969,0.828,6.96,0.823,6.955
		c-0.005-0.008-0.009-0.014-0.014-0.02h0.002C0.647,6.691,0.49,6.444,0.342,6.193C-0.045,5.533,0.157,4.773,0.712,4.545L0.712,4.545
		z"/>
	<path d="M3.47,6.531L3.233,6.489C3.371,5.717,2.852,4.975,2.078,4.84L2.12,4.604C3.024,4.762,3.629,5.627,3.47,6.531L3.47,6.531z"
		/>
	<path d="M2.046,5.011L2.005,5.248c0.547,0.098,0.915,0.621,0.819,1.17l0.236,0.041C3.181,5.78,2.725,5.131,2.046,5.011L2.046,5.011
		z"/>
	<path d="M1.972,5.434L1.93,5.671c0.316,0.056,0.527,0.356,0.472,0.672l0.236,0.042C2.716,5.939,2.418,5.512,1.972,5.434
		L1.972,5.434z"/>
</g>
<circle cx="14.467" cy="12.284" r="1.231"/>
<circle cx="9.921" cy="12.231" r="1.231"/>
<path d="M6.454,16.086l0.564-0.392l-0.03,2.093l-0.771,3.461l-0.384,0.69h1.455l0.057-0.079l0.86-2.23l1.068,2.31h1.302
	l-1.213-4.095c0,0,0.207-0.754,0.238-1.172c0.029-0.42,0.088-1.004,0.088-1.004l2.613,1.869l0.016-0.014l0.015,0.014l2.613-1.869
	c0,0,0.059,0.584,0.088,1.004c0.029,0.418,0.237,1.172,0.237,1.172l-1.212,4.095h1.301l0.341-0.736l1.588,0.657l0.057,0.079h1.457
	l-0.386-0.69l-0.771-3.461l-0.029-2.093l0.564,0.392l0.414,2.037l0.619-0.062l-0.173-2.422c0,0-1.899-1.924-2.256-2.064
	c-0.357-0.139-0.949,0.051-1.217,0.162c-0.209,0.088-2.329,2.111-3.255,2.998c-0.928-0.877-3.039-2.857-3.246-2.943
	c-0.268-0.112-0.861-0.355-1.218-0.217c-0.355,0.141-2.255,2.064-2.255,2.064l-0.175,2.422l0.62,0.062L6.454,16.086z"/>
</svg>
