<?xml version="1.0" encoding="utf-8"?>
<!-- Generator: Adobe Illustrator 23.0.3, SVG Export Plug-In . SVG Version: 6.00 Build 0)  -->
<svg version="1.1" id="Layer_1" xmlns="http://www.w3.org/2000/svg" xmlns:xlink="http://www.w3.org/1999/xlink" x="0px" y="0px"
	 viewBox="0 0 204.51 199.77" style="enable-background:new 0 0 204.51 199.77;" xml:space="preserve">
<style type="text/css">
	.st0{fill:none;stroke:#1E2983;stroke-width:18;stroke-miterlimit:10;}
	.st1{fill:none;stroke:#0094D8;stroke-width:18;stroke-miterlimit:10;}
	.st2{fill:none;stroke:#4EA025;stroke-width:18;stroke-miterlimit:10;}
	.st3{fill:none;stroke:#D20072;stroke-width:18;stroke-miterlimit:10;}
	.st4{fill:none;stroke:#E66307;stroke-width:18;stroke-miterlimit:10;}
</style>
<path class="st0" d="M85.94,50.47c0,8.37,7.6,19.52,17.05,19.58c7.85,0.05,18-7.74,18-18.95"/>
<path class="st1" d="M126.68,9.11c-23.37,0-40.74,20.21-40.74,41.37"/>
<path class="st2" d="M195.52,78.58c0-36.63-29.68-69.47-68.84-69.47"/>
<path class="st3" d="M77.94,190.68c0.25,0,0.49,0,0.74,0c14.68,0,42.78-3.48,69.76-23.41c7-5.17,47.08-39.13,47.08-88.7"/>
<path class="st4" d="M4.06,177.11c13.07,5.96,39.58,13.47,73.88,13.58"/>
</svg>
