<?xml version="1.0" encoding="utf-8"?>
<!-- Generator: Adobe Illustrator 16.0.0, SVG Export Plug-In . SVG Version: 6.00 Build 0)  -->
<!DOCTYPE svg PUBLIC "-//W3C//DTD SVG 1.1//EN" "http://www.w3.org/Graphics/SVG/1.1/DTD/svg11.dtd">
<svg version="1.1" id="Layer_1" xmlns="http://www.w3.org/2000/svg" xmlns:xlink="http://www.w3.org/1999/xlink" x="0px" y="0px"
	 width="55.701px" height="24.008px" viewBox="-15.944 0 55.701 24.008" enable-background="new -15.944 0 55.701 24.008"
	 xml:space="preserve">
<g>
	<path fill="#343F89" d="M13.709,13.953l-0.019-1.017c0.409-0.008,0.438-0.483,0.438-0.631h1.016
		C15.145,13.089,14.698,13.936,13.709,13.953z"/>
	<path fill="#E96C25" d="M7.55,18.795c1.436,0.699,3.068,1.057,4.799,1.057c0.015,0,0.034,0,0.047,0l0.005,1.02
		c-0.018,0-0.033,0-0.05,0c-1.712,0-3.337-0.334-4.798-0.961v-1.115H7.55z"/>
	<path fill="#D12F7D" d="M12.262,20.872v-1.02c3.29,0,6.17-2.807,6.17-5.999h1.02C19.45,17.587,16.091,20.872,12.262,20.872z"/>
	<path fill="#489734" d="M19.45,13.94h-1.018c0-1.673-1.059-3.482-3.385-3.482V9.445C17.936,9.445,19.45,11.706,19.45,13.94z"/>
	<path fill="#0093D4" d="M13.194,12.305h-1.019c0-1.629,1.234-2.857,2.872-2.857v1.014C13.952,10.462,13.194,11.222,13.194,12.305z"
		/>
	<path fill="#343F89" d="M13.777,13.953c-0.896,0-1.602-0.731-1.602-1.666h1.019c0,0.368,0.25,0.651,0.587,0.651v1.015H13.777z"/>
	<g>
		<path fill="#4D4641" d="M-14.542,16.006c-0.014,0.129-0.018,0.144-0.028,0.26l-0.018,0.025c-0.087,0.037-0.199,0.096-0.403,0.096
			c-0.438,0-0.719-0.323-0.719-0.771c0-0.459,0.278-0.808,0.727-0.808c0.187,0,0.319,0.063,0.396,0.096l0.011,0.02
			c-0.011,0.104-0.013,0.144-0.019,0.224l-0.023,0.016c-0.094-0.067-0.207-0.115-0.325-0.115c-0.238,0-0.451,0.188-0.451,0.555
			c0,0.4,0.224,0.539,0.449,0.539c0.195,0,0.32-0.1,0.372-0.148L-14.542,16.006z"/>
		<path fill="#4D4641" d="M-13.048,16.351c-0.139,0.006-0.155,0.006-0.289,0.013l-0.021-0.017l0.005-0.102
			c0.005-0.151,0.005-0.306,0.005-0.456l-0.005-0.31c0-0.062,0-0.134-0.015-0.195c-0.032-0.138-0.112-0.218-0.26-0.218
			c-0.167,0-0.294,0.09-0.391,0.158c-0.005,0.506,0.005,0.768,0.022,1.112l-0.017,0.014c-0.131,0.006-0.165,0.006-0.305,0.013
			l-0.02-0.017c0.01-0.212,0.02-0.469,0.02-1.03c0-0.242-0.005-0.486-0.01-0.729c-0.005-0.253-0.012-0.341-0.024-0.469l0.014-0.018
			c0.141-0.023,0.189-0.035,0.315-0.062l0.018,0.022c-0.018,0.311-0.018,0.625-0.018,0.934c0.095-0.061,0.28-0.175,0.525-0.175
			c0.065,0,0.13,0.004,0.192,0.036c0.129,0.052,0.209,0.151,0.238,0.271c0.014,0.059,0.014,0.092,0.023,0.289v0.338v0.141
			c0.007,0.244,0.007,0.283,0.02,0.442L-13.048,16.351z"/>
		<path fill="#4D4641" d="M-11.995,15.147c-0.03-0.008-0.063-0.023-0.113-0.023c-0.054,0-0.099,0.02-0.122,0.035
			c-0.116,0.086-0.116,0.213-0.116,0.513c0,0.335,0.009,0.501,0.019,0.666l-0.017,0.02c-0.133,0-0.167,0.003-0.308,0.007
			l-0.012-0.017c0-0.226,0.003-0.423,0.003-0.694c0-0.46-0.007-0.578-0.027-0.743l0.02-0.022c0.11-0.021,0.18-0.039,0.301-0.062
			l0.021,0.019l-0.019,0.249c0.038-0.097,0.106-0.281,0.353-0.281c0.037,0,0.059,0.006,0.085,0.01l0.012,0.019
			c-0.032,0.141-0.036,0.169-0.057,0.293L-11.995,15.147z"/>
		<path fill="#4D4641" d="M-10.395,15.859c-0.031,0.147-0.092,0.253-0.191,0.351c-0.128,0.128-0.296,0.178-0.499,0.178
			c-0.26,0-0.428-0.1-0.524-0.197c-0.195-0.201-0.2-0.496-0.2-0.592c0-0.11,0.006-0.396,0.2-0.589
			c0.085-0.086,0.252-0.206,0.541-0.206c0.197,0,0.392,0.066,0.522,0.212c0.132,0.151,0.167,0.354,0.174,0.561
			C-10.371,15.675-10.379,15.773-10.395,15.859z M-10.771,15.199c-0.052-0.092-0.146-0.167-0.308-0.167
			c-0.054,0-0.218,0.006-0.32,0.167c-0.077,0.118-0.089,0.281-0.089,0.403c0,0.119,0.005,0.414,0.235,0.531
			c0.049,0.028,0.108,0.035,0.168,0.035c0.108,0,0.245-0.029,0.332-0.194c0.065-0.126,0.068-0.323,0.065-0.385
			C-10.687,15.514-10.696,15.323-10.771,15.199z"/>
		<path fill="#4D4641" d="M-10.068,14.887c0.148-0.023,0.225-0.043,0.308-0.062l0.018,0.022l-0.009,0.148
			c0.099-0.07,0.267-0.185,0.492-0.185c0.247,0,0.334,0.146,0.372,0.212c0.07-0.053,0.283-0.212,0.557-0.212
			c0.105,0,0.231,0.036,0.311,0.114c0.136,0.137,0.138,0.24,0.138,0.492v0.244c0,0.334,0.006,0.409,0.02,0.675l-0.02,0.02
			c-0.138,0-0.157,0.003-0.292,0.007l-0.019-0.017c0.002-0.239,0.01-0.505,0.01-0.741c0-0.178,0-0.24-0.019-0.306
			c-0.026-0.132-0.092-0.229-0.251-0.229c-0.077,0-0.215,0.022-0.375,0.145c0.011,0.064,0.014,0.269,0.014,0.352v0.164
			c0,0.299,0.002,0.396,0.018,0.605l-0.016,0.017c-0.15,0-0.167,0.006-0.303,0.009l-0.018-0.017
			c0.011-0.261,0.016-0.593,0.016-0.778c0-0.145,0-0.215-0.021-0.293c-0.024-0.094-0.076-0.209-0.244-0.209
			c-0.104,0-0.229,0.042-0.368,0.146v0.492c0,0.326,0.013,0.464,0.026,0.633l-0.021,0.017c-0.151,0-0.16,0-0.301,0.009l-0.016-0.017
			c0.004-0.122,0.009-0.281,0.009-0.58c0-0.544-0.011-0.728-0.031-0.855L-10.068,14.887z"/>
		<path fill="#4D4641" d="M-6.389,15.754c0,0.363,0,0.396,0.016,0.583l-0.016,0.014c-0.137,0.006-0.155,0.009-0.292,0.013
			l-0.011-0.017l0.005-0.105c-0.055,0.046-0.189,0.146-0.408,0.146c-0.288,0-0.489-0.197-0.489-0.482
			c0-0.391,0.323-0.517,0.842-0.574l0.05-0.004c0-0.078,0-0.136-0.029-0.184s-0.094-0.105-0.24-0.105
			c-0.19,0-0.319,0.058-0.442,0.109l-0.02-0.014c0.007-0.132,0.007-0.148,0.009-0.21l0.018-0.02c0.164-0.06,0.332-0.096,0.502-0.096
			c0.215,0,0.425,0.073,0.483,0.303c0.024,0.077,0.024,0.235,0.024,0.356v0.287H-6.389z M-6.714,15.545
			c-0.294,0.044-0.564,0.084-0.564,0.342c0,0.018,0,0.267,0.272,0.267c0.18,0,0.287-0.096,0.319-0.134v-0.482L-6.714,15.545z"/>
		<path fill="#4D4641" d="M-4.896,16.006c0.074,0.02,0.447,0.102,0.527,0.133c0.082,0.026,0.352,0.108,0.352,0.42
			c0,0.257-0.208,0.574-0.672,0.574c-0.433,0-0.657-0.264-0.657-0.509c0-0.214,0.147-0.333,0.261-0.421
			c-0.062-0.027-0.08-0.031-0.138-0.061l-0.004-0.035c0.091-0.131,0.126-0.184,0.198-0.295c-0.193-0.082-0.278-0.256-0.278-0.433
			c0-0.086,0.014-0.172,0.057-0.257c0.144-0.266,0.429-0.283,0.592-0.283c0.045,0,0.099,0.004,0.16,0.004h0.074
			c0.164,0.004,0.23,0.004,0.438,0l0.016,0.021c-0.01,0.096-0.01,0.096-0.016,0.193l-0.019,0.018l-0.241-0.018
			c0.103,0.084,0.135,0.211,0.135,0.323c0,0.269-0.207,0.499-0.57,0.499c-0.045,0-0.083,0-0.125-0.005L-4.896,16.006z
			 M-4.886,16.282c-0.102,0.102-0.17,0.189-0.17,0.312c0,0.111,0.087,0.285,0.384,0.285c0.237,0,0.351-0.121,0.351-0.262
			c0-0.189-0.171-0.23-0.354-0.28L-4.886,16.282z M-4.704,15.038c-0.188,0-0.308,0.139-0.308,0.328c0,0.145,0.076,0.319,0.308,0.319
			c0.24,0,0.298-0.179,0.296-0.319C-4.409,15.211-4.484,15.038-4.704,15.038z"/>
		<path fill="#4D4641" d="M-3.021,15.147c-0.032-0.008-0.069-0.023-0.118-0.023c-0.054,0-0.095,0.02-0.12,0.035
			c-0.119,0.086-0.119,0.213-0.119,0.513c0,0.335,0.008,0.501,0.025,0.666l-0.02,0.02c-0.135,0-0.167,0.003-0.307,0.007l-0.01-0.017
			c0-0.226,0.002-0.423,0.002-0.694c0-0.46-0.008-0.578-0.029-0.743l0.021-0.022c0.108-0.021,0.18-0.039,0.3-0.062l0.018,0.019
			l-0.015,0.249c0.035-0.097,0.105-0.281,0.354-0.281c0.037,0,0.057,0.006,0.083,0.01l0.011,0.019
			C-2.978,14.981-2.982,15.009-3,15.133L-3.021,15.147z"/>
		<path fill="#4D4641" d="M-1.65,15.754c0,0.363,0.003,0.396,0.014,0.583l-0.011,0.014c-0.14,0.006-0.164,0.009-0.295,0.013
			l-0.012-0.017l0.003-0.102c-0.055,0.042-0.183,0.147-0.405,0.147c-0.289,0-0.491-0.203-0.491-0.482
			c0-0.387,0.324-0.515,0.844-0.574l0.049-0.006c0-0.08,0-0.132-0.028-0.184c-0.029-0.046-0.096-0.105-0.239-0.105
			c-0.191,0-0.321,0.056-0.44,0.111l-0.027-0.014c0.011-0.134,0.011-0.152,0.014-0.213l0.015-0.017
			c0.163-0.062,0.332-0.098,0.501-0.098c0.216,0,0.426,0.075,0.486,0.299c0.022,0.08,0.022,0.239,0.022,0.364V15.754z
			 M-1.977,15.545c-0.289,0.044-0.563,0.084-0.563,0.342c0,0.018,0,0.267,0.274,0.267c0.179,0,0.284-0.096,0.315-0.134v-0.482
			L-1.977,15.545z"/>
		<path fill="#4D4641" d="M-0.931,16.357c-0.136,0-0.159,0-0.314,0.007l-0.014-0.017c0.014-0.31,0.014-0.62,0.014-0.933
			c0-0.152,0-0.203-0.003-0.33c-0.074,0.004-0.144,0.004-0.202,0.004l-0.02-0.018c0.007-0.084,0.009-0.113,0.015-0.213l0.018-0.018
			c0.088,0.004,0.144,0.004,0.182,0.004v-0.188c-0.004-0.199-0.017-0.562,0.515-0.562c0.042,0,0.076,0.002,0.11,0.006l0.013,0.02
			c-0.005,0.082-0.013,0.114-0.019,0.207l-0.021,0.013c-0.029-0.004-0.047-0.01-0.079-0.01c-0.13,0-0.186,0.069-0.207,0.169
			c-0.013,0.057-0.013,0.086-0.013,0.264v0.086c0.007,0,0.258-0.008,0.287-0.008l0.016,0.02c-0.009,0.09-0.009,0.119-0.014,0.207
			l-0.017,0.02c-0.124-0.004-0.152-0.004-0.267-0.004c0,0.387,0.002,0.773,0.025,1.159c0,0.026,0.003,0.06,0.005,0.093
			L-0.931,16.357z M-0.112,16.357c-0.15,0-0.172,0.003-0.312,0.007l-0.018-0.017c0.009-0.161,0.02-0.289,0.02-0.616
			c0-0.551-0.011-0.652-0.031-0.827l0.015-0.021c0.124-0.02,0.166-0.029,0.312-0.058l0.03,0.019c-0.01,0.148-0.016,0.303-0.016,0.68
			c0,0.538,0.005,0.611,0.016,0.813L-0.112,16.357z M-0.11,14.427c-0.147,0.004-0.179,0.008-0.32,0.022l-0.021-0.019
			c0.002-0.042,0.002-0.079,0.002-0.114c0-0.051-0.002-0.096-0.004-0.158l0.023-0.017c0.151-0.013,0.174-0.019,0.32-0.032
			l0.016,0.02c0,0.122,0,0.15,0,0.275L-0.11,14.427z"/>
		<path fill="#4D4641" d="M0.88,15.478c0.116,0.032,0.379,0.12,0.379,0.427c0,0.121-0.04,0.249-0.158,0.345
			c-0.155,0.13-0.36,0.138-0.466,0.138c-0.155,0-0.284-0.027-0.397-0.068c-0.016-0.008-0.031-0.014-0.042-0.023L0.18,16.268
			c0.008-0.114,0.008-0.127,0.016-0.242l0.032-0.01c0.05,0.042,0.18,0.138,0.4,0.138c0.23,0,0.316-0.124,0.316-0.214
			c0-0.135-0.125-0.177-0.307-0.236l-0.09-0.032c-0.12-0.042-0.378-0.122-0.378-0.415c0-0.301,0.258-0.448,0.585-0.448
			c0.214,0,0.365,0.062,0.417,0.081l0.015,0.021c-0.013,0.105-0.015,0.118-0.025,0.229l-0.028,0.014
			c-0.07-0.046-0.185-0.115-0.374-0.115c-0.042,0-0.082,0-0.125,0.01c-0.085,0.027-0.157,0.086-0.157,0.174
			c0,0.125,0.117,0.159,0.299,0.221L0.88,15.478z"/>
		<path fill="#4D4641" d="M2.599,16.006c-0.013,0.129-0.016,0.144-0.027,0.26l-0.015,0.025c-0.086,0.037-0.198,0.096-0.402,0.096
			c-0.44,0-0.723-0.323-0.723-0.771c0-0.459,0.278-0.808,0.729-0.808c0.188,0,0.32,0.063,0.397,0.096l0.011,0.02
			c-0.011,0.104-0.013,0.144-0.018,0.224l-0.027,0.016c-0.094-0.067-0.204-0.115-0.323-0.115c-0.24,0-0.452,0.188-0.452,0.555
			c0,0.4,0.224,0.539,0.45,0.539c0.197,0,0.32-0.1,0.372-0.148L2.599,16.006z"/>
		<path fill="#4D4641" d="M4.093,16.351c-0.139,0.006-0.157,0.006-0.289,0.013L3.78,16.347l0.005-0.102
			c0.003-0.151,0.003-0.306,0.003-0.456l-0.003-0.31c0-0.062,0-0.134-0.015-0.195c-0.031-0.138-0.112-0.218-0.26-0.218
			c-0.167,0-0.293,0.09-0.388,0.158c-0.002,0.506,0,0.768,0.018,1.112l-0.012,0.014c-0.136,0.006-0.168,0.006-0.314,0.013
			l-0.013-0.017c0.003-0.212,0.013-0.469,0.013-1.03c0-0.242-0.002-0.486-0.002-0.729c-0.011-0.253-0.02-0.341-0.024-0.469
			l0.013-0.018c0.14-0.023,0.187-0.035,0.319-0.062l0.016,0.022C3.12,14.374,3.12,14.688,3.12,14.997
			c0.094-0.061,0.275-0.175,0.517-0.175c0.066,0,0.134,0.004,0.195,0.036c0.129,0.052,0.208,0.151,0.232,0.271
			c0.02,0.059,0.02,0.092,0.027,0.289v0.338l0.002,0.141c0.008,0.244,0.008,0.283,0.019,0.442L4.093,16.351z"/>
		<path fill="#4D4641" d="M6.607,15.859c-0.036,0.147-0.094,0.253-0.188,0.351c-0.128,0.128-0.301,0.178-0.498,0.178
			c-0.263,0-0.434-0.1-0.525-0.197c-0.195-0.201-0.197-0.496-0.197-0.592c0-0.11,0.005-0.396,0.197-0.589
			c0.085-0.086,0.25-0.206,0.541-0.206c0.195,0,0.391,0.066,0.519,0.212c0.134,0.151,0.17,0.354,0.179,0.561
			C6.634,15.675,6.629,15.773,6.607,15.859z M6.237,15.199c-0.057-0.092-0.149-0.167-0.314-0.167c-0.053,0-0.216,0.006-0.314,0.167
			c-0.081,0.118-0.089,0.281-0.089,0.403c0,0.119,0.002,0.414,0.233,0.531c0.05,0.028,0.11,0.035,0.171,0.035
			c0.104,0,0.245-0.029,0.328-0.194c0.068-0.126,0.07-0.323,0.068-0.385C6.318,15.514,6.309,15.323,6.237,15.199z"/>
		<path fill="#4D4641" d="M8.25,16.351c-0.141,0.006-0.156,0.006-0.292,0.013l-0.021-0.017c0-0.036,0.004-0.065,0.004-0.102
			c0.003-0.142,0.003-0.283,0.003-0.427c0-0.443-0.003-0.473-0.018-0.535c-0.055-0.219-0.218-0.219-0.261-0.219
			c-0.177,0-0.309,0.098-0.386,0.156c-0.005,0.506,0.002,0.771,0.023,1.115l-0.018,0.013c-0.142,0.004-0.165,0.004-0.304,0.013
			l-0.015-0.017c0.005-0.165,0.013-0.325,0.013-0.536c0-0.463-0.026-0.712-0.038-0.905l0.018-0.022
			c0.146-0.027,0.17-0.033,0.304-0.056l0.024,0.019L7.28,14.997c0.075-0.051,0.256-0.179,0.515-0.179
			c0.071,0,0.156,0.013,0.235,0.054c0.079,0.042,0.142,0.109,0.172,0.191c0.04,0.08,0.04,0.168,0.042,0.352v0.336
			c0.008,0.338,0.012,0.473,0.021,0.584L8.25,16.351z"/>
		<path fill="#4D4641" d="M9.317,16.122c-0.01,0.098-0.01,0.12-0.012,0.207l-0.013,0.019C9.23,16.36,9.181,16.374,9.07,16.374
			c-0.068,0-0.252,0-0.339-0.154c-0.054-0.08-0.054-0.149-0.054-0.498l0.004-0.635c-0.099,0-0.099,0.007-0.207,0.009l-0.012-0.021
			c0.005-0.092,0.005-0.117,0.005-0.209l0.015-0.021c0.069,0,0.106,0.004,0.197,0c0-0.055,0-0.118,0-0.182
			c-0.005-0.051-0.006-0.107-0.009-0.164l0.017-0.021c0.129-0.032,0.163-0.042,0.295-0.082l0.02,0.018
			c-0.009,0.191-0.012,0.225-0.012,0.436c0.122,0,0.158,0,0.322-0.004l0.017,0.016c-0.01,0.076-0.014,0.107-0.014,0.211
			l-0.012,0.016c-0.146-0.004-0.163-0.008-0.315-0.008l-0.006,0.537c0.002,0.037,0.002,0.207,0.002,0.243
			c0,0.213,0.027,0.282,0.173,0.282c0.059,0,0.104-0.014,0.139-0.029L9.317,16.122z"/>
		<path fill="#4D4641" d="M11.215,16.351c-0.191,0.006-0.218,0.006-0.395,0.013l-0.018-0.017c-0.037-0.184-0.092-0.413-0.142-0.62
			l-0.166-0.699l-0.171,0.713c-0.089,0.348-0.115,0.463-0.144,0.597l-0.019,0.014c-0.2,0.006-0.219,0.006-0.397,0.013l-0.019-0.017
			c-0.125-0.524-0.344-1.28-0.405-1.472l0.009-0.021c0.141-0.01,0.174-0.01,0.315-0.028l0.019,0.019
			c0.021,0.096,0.039,0.188,0.16,0.725l0.141,0.595l0.191-0.779c0.087-0.383,0.092-0.423,0.107-0.513l0.019-0.023
			c0.172,0,0.219,0,0.412-0.008l0.019,0.02c0.038,0.203,0.111,0.477,0.163,0.699l0.153,0.613l0.157-0.672
			c0.028-0.101,0.05-0.206,0.07-0.308c0.052-0.196,0.057-0.218,0.074-0.327l0.021-0.021c0.049,0,0.094,0.004,0.144,0.004
			c0.042,0,0.089-0.004,0.132-0.004l0.016,0.021c-0.054,0.162-0.31,0.971-0.431,1.469L11.215,16.351z"/>
		<path fill="#4D4641" d="M13.053,16.006c-0.012,0.111-0.018,0.14-0.023,0.253l-0.021,0.022c-0.046,0.029-0.202,0.111-0.459,0.111
			c-0.474,0-0.772-0.275-0.772-0.781c0-0.537,0.323-0.8,0.704-0.8c0.229,0,0.391,0.098,0.473,0.203
			c0.161,0.193,0.155,0.482,0.151,0.606l-0.013,0.014c-0.454-0.006-0.533-0.006-1.009,0c0.003,0.102,0.014,0.246,0.108,0.371
			c0.121,0.137,0.285,0.147,0.377,0.147c0.082,0,0.169-0.013,0.253-0.042c0.104-0.048,0.169-0.096,0.205-0.129L13.053,16.006z
			 M12.784,15.245c-0.056-0.158-0.184-0.226-0.312-0.226c-0.163,0-0.352,0.11-0.386,0.399c0.348,0.004,0.459,0,0.729-0.004
			C12.813,15.375,12.809,15.313,12.784,15.245z"/>
		<path fill="#4D4641" d="M14.1,15.147c-0.036-0.008-0.07-0.023-0.12-0.023s-0.092,0.02-0.116,0.035
			c-0.121,0.086-0.121,0.213-0.121,0.513c0,0.335,0.008,0.501,0.023,0.666l-0.02,0.02c-0.139,0-0.17,0.003-0.307,0.007l-0.016-0.017
			c0.004-0.226,0.01-0.423,0.01-0.694c0-0.46-0.01-0.578-0.026-0.743l0.017-0.022c0.105-0.021,0.175-0.039,0.299-0.062l0.02,0.019
			l-0.016,0.249c0.039-0.097,0.102-0.281,0.349-0.281c0.042,0,0.06,0.006,0.082,0.01l0.014,0.019
			c-0.026,0.141-0.036,0.169-0.054,0.293L14.1,15.147z"/>
		<path fill="#4D4641" d="M14.698,14.967c0.052-0.05,0.193-0.155,0.425-0.155c0.37,0,0.626,0.304,0.626,0.712
			c0,0.444-0.305,0.836-0.909,0.836c-0.056,0-0.096-0.003-0.138-0.009c0.01,0.351,0.018,0.423,0.03,0.698l-0.021,0.014
			c-0.102,0.006-0.207,0.01-0.303,0.01l-0.02,0.004c0.01-0.168,0.014-0.375,0.014-0.674c0-0.176-0.004-0.345-0.004-0.516
			c0-0.449,0-0.652-0.034-0.978l0.021-0.021c0.135-0.023,0.165-0.031,0.299-0.059l0.018,0.018L14.698,14.967z M14.826,16.141
			c0.381,0,0.599-0.244,0.599-0.604c0-0.299-0.152-0.482-0.385-0.482c-0.158,0-0.27,0.074-0.338,0.123
			c-0.004,0.148-0.004,0.3-0.004,0.443c0,0.168,0,0.341,0.004,0.51C14.744,16.135,14.77,16.141,14.826,16.141z"/>
	</g>
	<g>
		<path fill="#6B6764" d="M17.513,0.346h1.138l-3.27,8.77h-1.034l-3.24-8.77h1.113l2.077,5.677c0.239,0.65,0.433,1.284,0.574,1.9
			c0.146-0.646,0.337-1.293,0.572-1.937L17.513,0.346z"/>
		<path fill="#6B6764" d="M25.273,5.821c0,1.075-0.276,1.91-0.837,2.509c-0.551,0.603-1.328,0.906-2.311,0.906
			c-0.597,0-1.137-0.139-1.607-0.414c-0.475-0.277-0.832-0.672-1.089-1.188c-0.259-0.515-0.387-1.12-0.387-1.813
			c0-1.073,0.278-1.907,0.827-2.504c0.557-0.595,1.322-0.896,2.305-0.896c0.947,0,1.705,0.308,2.264,0.92
			C24.992,3.952,25.273,4.78,25.273,5.821z M20.107,5.821c0,0.842,0.172,1.479,0.519,1.922c0.343,0.439,0.854,0.659,1.523,0.659
			c0.674,0,1.191-0.22,1.529-0.657c0.349-0.438,0.528-1.076,0.528-1.924c0-0.833-0.178-1.47-0.528-1.905
			c-0.338-0.431-0.855-0.649-1.545-0.649c-0.67,0-1.175,0.214-1.516,0.64C20.279,4.338,20.107,4.977,20.107,5.821z"/>
		<path fill="#6B6764" d="M32.608,5.821c0,1.075-0.275,1.91-0.833,2.509c-0.56,0.603-1.33,0.906-2.309,0.906
			c-0.61,0-1.145-0.139-1.615-0.414c-0.469-0.277-0.833-0.672-1.095-1.188c-0.251-0.515-0.375-1.12-0.375-1.813
			c0-1.073,0.273-1.907,0.828-2.504c0.546-0.595,1.319-0.896,2.297-0.896c0.951,0,1.707,0.308,2.261,0.92
			C32.329,3.952,32.608,4.78,32.608,5.821z M27.44,5.821c0,0.842,0.17,1.479,0.52,1.922c0.35,0.439,0.854,0.659,1.524,0.659
			c0.681,0,1.187-0.22,1.538-0.657c0.342-0.438,0.521-1.076,0.521-1.924c0-0.833-0.18-1.47-0.521-1.905
			c-0.352-0.433-0.862-0.649-1.546-0.649c-0.676,0-1.181,0.214-1.521,0.64C27.61,4.338,27.44,4.977,27.44,5.821z"/>
		<path fill="#6B6764" d="M37.182,2.421c0.301,0,0.574,0.023,0.81,0.073l-0.14,0.924c-0.277-0.059-0.53-0.092-0.742-0.092
			c-0.546,0-1.017,0.219-1.405,0.649c-0.393,0.435-0.586,0.972-0.586,1.617V9.12h-1.032v-6.58h0.841l0.124,1.22h0.053
			c0.252-0.431,0.551-0.759,0.908-0.994C36.373,2.536,36.757,2.421,37.182,2.421z"/>
	</g>
	<g>
		<path fill="#6B6764" d="M25.403,15.549H25.35c-0.474,0.67-1.184,1.004-2.121,1.004c-0.889,0-1.582-0.294-2.077-0.882
			c-0.491-0.585-0.733-1.424-0.733-2.503c0-1.085,0.245-1.928,0.737-2.528c0.495-0.599,1.185-0.9,2.067-0.9
			c0.916,0,1.625,0.323,2.113,0.972h0.078l-0.046-0.474l-0.024-0.46V7.099h1.033v9.333h-0.836L25.403,15.549z M23.349,15.717
			c0.702,0,1.22-0.184,1.523-0.553c0.315-0.369,0.474-0.965,0.474-1.79v-0.21c0-0.931-0.158-1.6-0.482-1.995
			c-0.312-0.4-0.831-0.597-1.519-0.597c-0.608,0-1.065,0.228-1.39,0.682c-0.317,0.454-0.48,1.094-0.48,1.924
			c0,0.836,0.163,1.473,0.475,1.9C22.27,15.506,22.737,15.717,23.349,15.717z"/>
		<path fill="#6B6764" d="M31.103,16.553c-1.001,0-1.794-0.294-2.374-0.886c-0.579-0.593-0.868-1.416-0.868-2.466
			c0-1.06,0.268-1.902,0.808-2.525c0.539-0.624,1.26-0.936,2.17-0.936c0.845,0,1.523,0.271,2.01,0.813
			c0.506,0.542,0.743,1.258,0.743,2.146v0.629h-4.673c0.025,0.773,0.229,1.359,0.609,1.76c0.387,0.399,0.92,0.595,1.609,0.595
			c0.735,0,1.451-0.146,2.169-0.444v0.889c-0.36,0.154-0.71,0.26-1.032,0.328C31.952,16.518,31.561,16.553,31.103,16.553z
			 M30.824,10.573c-0.544,0-0.979,0.172-1.3,0.515c-0.329,0.343-0.517,0.82-0.574,1.427h3.543c0-0.627-0.14-1.109-0.431-1.444
			C31.775,10.739,31.36,10.573,30.824,10.573z"/>
	</g>
	<g>
		<path fill="#6B6764" d="M12.956,23.696l-2.573-6.573h1.104l1.458,3.897c0.334,0.914,0.525,1.506,0.582,1.779h0.049
			c0.047-0.215,0.196-0.65,0.434-1.32c0.243-0.662,0.785-2.119,1.623-4.358h1.105l-2.575,6.571h-1.206V23.696z"/>
		<path fill="#6B6764" d="M23.349,20.407c0,1.072-0.279,1.912-0.829,2.51c-0.564,0.601-1.328,0.899-2.311,0.899
			c-0.609,0-1.146-0.136-1.617-0.413c-0.473-0.271-0.83-0.67-1.083-1.186c-0.263-0.519-0.39-1.121-0.39-1.811
			c0-1.074,0.279-1.91,0.83-2.508C18.5,17.298,19.272,17,20.25,17c0.951,0,1.705,0.31,2.266,0.918
			C23.07,18.534,23.349,19.36,23.349,20.407z M18.187,20.407c0,0.836,0.175,1.48,0.521,1.918c0.347,0.44,0.859,0.66,1.525,0.66
			c0.672,0,1.188-0.22,1.533-0.654c0.351-0.443,0.522-1.082,0.522-1.924c0-0.832-0.172-1.474-0.522-1.906
			c-0.346-0.437-0.865-0.646-1.543-0.646c-0.674,0-1.179,0.206-1.52,0.639C18.362,18.92,18.187,19.557,18.187,20.407z"/>
		<path fill="#6B6764" d="M27.928,17c0.308,0,0.568,0.026,0.814,0.072l-0.145,0.922c-0.276-0.059-0.527-0.086-0.739-0.086
			c-0.548,0-1.021,0.217-1.407,0.647c-0.391,0.433-0.588,0.97-0.588,1.613v3.526h-1.027v-6.573h0.85l0.111,1.218h0.05
			c0.255-0.428,0.559-0.759,0.909-0.988C27.118,17.119,27.504,17,27.928,17z"/>
		<path fill="#6B6764" d="M38.334,23.696v-4.276c0-0.522-0.117-0.913-0.347-1.175c-0.228-0.267-0.591-0.391-1.075-0.391
			c-0.644,0-1.114,0.174-1.417,0.527c-0.31,0.364-0.459,0.904-0.459,1.645v3.672h-1.032v-4.273c0-0.525-0.111-0.916-0.342-1.18
			c-0.229-0.263-0.592-0.391-1.082-0.391c-0.643,0-1.115,0.188-1.414,0.559s-0.446,0.982-0.446,1.838v3.447h-1.03v-6.572h0.835
			l0.169,0.9h0.049c0.188-0.322,0.468-0.572,0.818-0.746c0.354-0.184,0.744-0.275,1.188-0.275c1.059,0,1.748,0.371,2.074,1.121
			h0.051c0.201-0.345,0.49-0.62,0.881-0.823c0.387-0.197,0.818-0.298,1.309-0.298c0.768,0,1.342,0.193,1.729,0.574
			c0.377,0.381,0.566,0.996,0.566,1.833v4.286h-1.023V23.696z"/>
	</g>
</g>
</svg>
